<svg xmlns="http://www.w3.org/2000/svg" xmlns:xlink="http://www.w3.org/1999/xlink" width="168" height="40" viewBox="0 0 168 40"><defs><clipPath id="a"><rect width="168" height="40"/></clipPath></defs><g clip-path="url(#a)"><g transform="translate(166.188 38.355) rotate(180)"><path d="M163.993,1.368c-2.479.122-5.07.2-7.73.25-.9.016-1.818-.044-2.736-.119-.982.092-1.95.162-2.87.159-1.621,0-3.088-.09-4.568-.158l-.25-.012a4.763,4.763,0,0,1,.816-.2c-.759.091-3.729.071-6.092.056-1.732-.091-3.433-.236-5.087-.214-3.319.046-5.477.243-8.311.276a64.952,64.952,0,0,1-7.4-.312c-.5-.048-.965-.093-1.408-.132L114.765.955c-1.431.142-3.107.386-4.371.45a.863.863,0,0,0-.073.271,45.171,45.171,0,0,1-4.764.35c-1.62-.005-3.088-.091-4.568-.159l-.25-.011a4.67,4.67,0,0,1,.817-.2c-.759.09-3.729.07-6.092.056-1.733-.092-3.433-.236-5.087-.214-3.319.046-5.478.243-8.311.276a65.183,65.183,0,0,1-7.4-.312c-1.2-.114-2.191-.22-3.157-.245-1.654-.042-4.762.534-6.624.568a15.169,15.169,0,0,1-2.569-.254c-.657-.108-1.314-.224-1.972-.309a.787.787,0,0,0-.1.331,44.906,44.906,0,0,1-4.763.35c-1.621-.005-3.087-.09-4.569-.158l-.25-.011a5.543,5.543,0,0,1,.629-.166l-.065-.01c-1.024.066-3.682.363-5.84.348-1.733-.092-3.434-.3-5.087-.276-3.319.045-5.541.243-8.373.276a63.916,63.916,0,0,1-7.337-.375c-1.2-.114-2.192-.408-3.157-.432-1.654-.043-4.762.534-6.624.567a15.23,15.23,0,0,1-2.569-.253c-.931-.153-1.861-.325-2.795-.4A9.914,9.914,0,0,0,8.355.986c-1.63,0-3.267.6-4.893.622a9.992,9.992,0,0,1-3.37-.446C-.163.962.134.779.724.731,1,.7,1.256.662,1.545.653,2.645.584,3.752.606,4.872.643,5.7.693,6.522.359,7.351.335c2.9.033,5.822.239,8.732.2,1.27.006,2.536-.041,3.8.033,1.264.012,3.2-.232,7.953-.314.665-.011,4.511.039,5.173.038,1.012,0,2.012.362,2.972.377,3.584.055,6.6-.09,7.55-.05.455.01.892.058,1.354.035.3,0,3.334,0,7.208-.009.5,0,1.005-.14,1.524-.133.312,0,1.447.089,2.385.156A9.552,9.552,0,0,1,57.429.453c2.9.033,5.822.239,8.731.2,1.27.005,2.536-.041,3.8.033,1.264.013,3.2-.232,7.953-.314.664-.012,4.51.039,5.173.038a9.679,9.679,0,0,1,1.745.227l.2.005c.9.05,1.794-.284,2.693-.308,2.606.027,5.225.166,7.84.194A2.42,2.42,0,0,1,95.9.478c.273-.033.533-.069.821-.078,1.1-.069,2.207-.047,3.328-.01.832.05,1.65-.284,2.479-.307,2.166.024,4.342.146,6.517.189l.932-.017c.454-.007,2.276.01,3.745.024.141,0,.282,0,.423,0,.678.007,1.23.011,1.452.011.07,0,.14.005.209.008,1.293-.054,3.3-.232,7.207-.3.664-.011,4.511.04,5.173.039,1.012,0,2.012.362,2.971.377,3.584.055,6.6-.09,7.55-.05.455.009.892.057,1.354.035.3,0,3.335,0,7.208-.01.5,0,1.005-.139,1.525-.132.5.007,3.128.22,3.644.238.4.015.75.026,1.067.036l.584.016C155.148.463,155.838.388,156,.384c.293-.006,1.638.2,1.93.2.99-.005,1.605-.261,2.6-.283.808-.019,1.635.259,2.441.283a9.728,9.728,0,0,1,1.161.129c.559.124.613.15.594.25C164.781,1.137,164.613,1.345,163.993,1.368Z"/></g><g transform="translate(156.753 37.333) rotate(180)"><path d="M22.962,2.579a24.225,24.225,0,0,0-2.821.322c-.428.017-.845.036-1.244.062-3.312.2-12.586,3.671-13.547,3.73-1.305.079-1.162-.441-1.162-.441S1.12,2.837.345,1.031C.08.416-.034.139.008,0,.942.072,1.872.244,2.8.4,4.3,1.123,6.044,2.21,6.044,2.21S11.027.943,15.154.328a64.953,64.953,0,0,0,7.4.312C25.386.607,27.545.41,30.864.364c1.653-.022,3.354.122,5.087.214-1.343-.008-.442.843-.874.861a2.838,2.838,0,0,0-.66,1.2Z"/></g><g transform="translate(144.877 36.157) rotate(180)"><path d="M20.338.094a1.406,1.406,0,0,1,.769.24,1.43,1.43,0,0,1,.3,2.092l-.1.123c-.269.328.042,1.8-.382,1.8-.194,0-.433-.01-.7-.031-.151-.012-.311-.026-.48-.042C17.2,4.02,12.372,3.12,11.688,3.465c-.844.422-3.225,9.773-3.493,12.118a.659.659,0,0,1-.724.583C5.6,15.97.307,15.343.054,14.46c-.211-.736.143-1.65,2.124-1.981,1.392-.232,2.595.328,3.09-.828.393-.915,2.014-7.073,3-9.926A5.477,5.477,0,0,1,8.88.313C9.338-.148,16.362.014,20.338.094Z"/></g><g transform="translate(42.817 1.903)"><g transform="translate(0 0)"><path d="M-253.326-28.405a3.472,3.472,0,0,1,3.438,3.5,3.472,3.472,0,0,1-3.438,3.5,3.472,3.472,0,0,1-3.438-3.5A3.472,3.472,0,0,1-253.326-28.405Z" transform="translate(256.764 28.405)" fill="#fceff8"/></g><g transform="translate(52.316 0.2)"><path d="M-44.062-27.605a3.472,3.472,0,0,1,3.438,3.5,3.472,3.472,0,0,1-3.438,3.5A3.472,3.472,0,0,1-47.5-24.1,3.472,3.472,0,0,1-44.062-27.605Z" transform="translate(47.5 27.605)" fill="#fceff8"/></g></g><g transform="translate(125.561 37.044) rotate(180)"><path d="M20.038.233,20.3.238c1.042.023,2.16-.224,3.258-.21l5.616.138c5.161.02,7.277-.194,8.65-.163,1.372.1,2.75.05,4.13.05,3.164-.04,6.474.288,9.63.318A10.808,10.808,0,0,0,53.1.16c1.649.133,2.981.207,3.575.176,1.234.062,2.4-.317,3.633-.165A15.227,15.227,0,0,0,63.773.5C65.327.424,66.9.162,68.465.057c.505.053,1.156.132,1.35.125.117,0,.5-.05,1.1-.113a9.7,9.7,0,0,1,1.118.172c2.025.322,3.861.492,5.92.714A68.543,68.543,0,0,0,90.987.991a6.008,6.008,0,0,1,3.468.624c1.389.15,2.847-.021,4.256.037,7.95.09,11.193-1.305,16.376,5.883a5.25,5.25,0,0,0,.5.615c.013.1.027.207.037.3.028.323.053.617.076.887,0,.272.006.521.008.75a7.665,7.665,0,0,1-.066,1.168c-.15.868-.311,1.729-.533,2.575q-.15.517-.322,1.053c-.028.08-.05.16-.079.24l-.007.021a22.8,22.8,0,0,1-4.7,7.211c-.418-1.236-1.328-3.757-2.22-4.492-1.694-1.392-2.583-1.418-4.716-1.57-2.245-.16-4.424.35-6.674.3-2.621-.056-5.444.8-8.06.969-.727.047-15.265,2.929-18.428,3.3-10.05.842-16.907,2.25-26.932.93-2.339-.308-14.659-3.768-14.991-3.874C25.1,17.011,22.242,16,19.367,15.05c.019-.128-10.847-2.835-12.951-3.149C5.579,11.764.989,11.007.17,10.782A3.45,3.45,0,0,1,.029,9.559,6.859,6.859,0,0,1,.076,7.864c.05-.3.329-.646.424-1.035C.6,6.386,2.11,5.317,2.288,4.9,3.6,2.924,7.207,1.132,9.441.335L10.6.25c1.481.068,2.538.033,4.16.038A46.567,46.567,0,0,0,19.617.249a1.1,1.1,0,0,0-.012.115" fill="#ffdef2"/><g transform="translate(0.597 10.632)"><path d="M8.938,14.667c-.282-.278-.59-.162-.917-.441-.59-.532-.78-1.15-1.341-1.694-.688-.673-1.379-1.47-2.006-2.217-.19-.22-1.219-.868-1.382-1.1a27.6,27.6,0,0,1-1.553-2.4,13.4,13.4,0,0,1-1.557-5.2A15.318,15.318,0,0,1,0,.035V0A8.43,8.43,0,0,1,1.424.112c.409.063.812.15,1.215.243.524.08.33.016.7.218,0-.015-.006-.032-.009-.05a24.31,24.31,0,0,0,2.488.541c7.307,1.186,30.743,8.339,36.06,9.5,10.024,1.319,17.182-.188,27.232-1.03,3.162-.372,17.9-3.051,18.627-3.1,2.616-.168,5.238-.825,7.86-.769,2.25.05,4.528-.459,6.774-.3,2.133.15,3.521.079,5.215,1.47.892.733,1.4,3.662,1.822,4.9-.26.278-.156.467-.424.735-.3.318-.616.737-.894,1.082a4.37,4.37,0,0,1-.847,1.035l-.8.517-.659.706c-.471.359-1.035.446-1.506.8-.254.176-.485.332-.72.508-.342.23-.729.151-.739.285q-.669.321-1.41.616c-.061-.028-.323.429-.755.521-.411.132-.6.018-1.035.188-.818.285-1.629.625-2.447.871a24,24,0,0,1-2.612.847c-.308.06-2.09-.127-2.4-.071a47.96,47.96,0,0,1-5.576.918c-1.859.2-4.03.626-6.071.776-.877.047-1.972.236-3.459.282l-4.276-.131c-.614.017-1.211.178-1.8.2-3.825.147-6.921.337-8.044.4-.222.013-.367.021-.425.023-.547.033-1.065,0-1.6-.008l-.478-.009c-1.41-.026-4.336-.074-8.084-.125-1.135-.017-2.826-.342-4.023-.353H42.538c-5.618-.006-8.752.1-10.235.017-1.479-.16-2.541-.049-4.024-.228a38.126,38.126,0,0,1-5.05-.858,21.653,21.653,0,0,1-3.192-1.123c-.546-.222-1.091-.442-1.64-.632a18.518,18.518,0,0,1-2.823-.635q-.39-.18-.776-.363c-.92-.437-1.821-.887-2.712-1.348-.3-.156-.579-.279-.864-.426-.24-.17-.424-.665-.717-.657-.185-.123-.372-.243-.553-.369-.238-.165-.471-.334-.7-.505C9.331,15.154,9.3,15.1,8.938,14.667Z" fill="#fdf0f9"/></g></g><g transform="translate(126.191 37.904) rotate(180)"><g transform="translate(80.344 32.855)"><path d="M0,.517C2.041.367,4.005.2,5.864,0,5.009.111,4.1.212,3.133.291,1.736.406.881.47,0,.517Z"/></g><g transform="translate(11.867 27.54)"><path d="M.891.248c.285.147.564.271.864.426,1.14.59,2.1,1.213,3.288,1.762a15.953,15.953,0,0,0,2.613.619c1.6.553,3.436,1.123,5.088,1.509a37.9,37.9,0,0,0,5.05.758c1.482.179,3.7.085,5.175.245a51.556,51.556,0,0,0,8.878.821l6.069-.15c1.2.01,2.229-.033,3.365-.015,4.243.057,7.809-.14,8.938-.118.539,0,1.056.042,1.6.008.353-.01,3.946-.064,8.526-.24.586-.024,1.183-.185,1.8-.2l4.317.035c1.487-.045,2.39-.075,3.267-.122s1.736-.111,3.133-.226c.962-.078,1.876-.18,2.731-.29a56.791,56.791,0,0,0,6.088-.856c.309-.056,1.736-.313,2.044-.372a23.2,23.2,0,0,0,2.641-.34c.818-.245,2.042-.4,2.861-.689.438-.167.793-.216,1.2-.35.432-.092.585-.12.646-.092a.075.075,0,0,1,.028.023.07.07,0,0,1,.013.034c.127.128.05.4-.568.691a29.6,29.6,0,0,1-8.4,2.266c-2.36.407-4.873,0-7.311.241-1.03.093-2.115.25-3.217.419-.019.046.009-.014-.134.029a.489.489,0,0,1-.374.05c-1.9.3-3.85.627-5.7.774-.121-.161-.014.068-.092.017-.047,0-.133-.081-.218.03-.071.041-.079,0-.232-.05.067.135-.047.07-.176.05-.094,0-.191.015-.284.019-3.238.146-5.964-.007-9.113.088-3.05.081-6.035-.2-8.9-.139-3.932.072-6.417.524-9.775.531-6.713.012-9.774-.511-12.6-.646-.489-.03-1.087-.025-1.745,0l-2.075-.32c-.345.007-.692.011-1.036.012.011-.021.024-.042.035-.064-.207.088-.1-.076-.321-.033-.257.157-.211.146-.4.093a19.072,19.072,0,0,1-2.179-.375A65.708,65.708,0,0,1,8.485,4.629a38.558,38.558,0,0,1-5.365-2A9.781,9.781,0,0,1,1.425,1.478,6.12,6.12,0,0,1,.028.215C-.022.1,0,.027.071,0A1.362,1.362,0,0,1,.891.248Z"/></g><path d="M116.65,10.651c-.035.9-.034,2.2-.163,3.542a12.885,12.885,0,0,1-.9,3.669,11.048,11.048,0,0,1-2.042,2.946c-.807.88-1.641,1.7-2.4,2.583-1.165,1.3-2.1,2.95-3.559,4.042a7.522,7.522,0,0,1-.753.529c-.3.176-.64.355-.97.518a5.583,5.583,0,0,1-1.646.546c-.117-.014-.165-.064-.161-.136.007-.133.206-.347.548-.577.236-.176.467-.332.721-.508.471-.354.976-.658,1.447-1.017l.727-.512.71-.545a4.3,4.3,0,0,0,.915-.962c.278-.346.516-.722.815-1.04q.4-.4.792-.819a19.822,19.822,0,0,0,4.331-6.75v-.007l0-.014c.03-.079.05-.16.079-.24.122-.35.228-.7.322-1.053.222-.846.383-1.707.533-2.575a7.664,7.664,0,0,0,.066-1.168c0-.228,0-.477-.008-.75-.023-.27-.05-.565-.076-.887-.01-.1-.024-.2-.037-.3a.968.968,0,0,0,.328.243.983.983,0,0,1-.326-.242,5.247,5.247,0,0,1-.5-.615c-5.183-7.187-8.122-5.373-16.073-5.462-1.409-.058-2.867.113-4.256-.037a6.008,6.008,0,0,0-3.468-.624A68.543,68.543,0,0,1,78.6,2.39c-2.06-.222-4.094-.468-6.118-.79a9.7,9.7,0,0,0-1.118-.171,14.8,14.8,0,0,0-2.447-.013c-1.564.106-3.138.368-4.692.444a15.232,15.232,0,0,1-3.467-.33c-1.234-.15-2.4.227-3.633.165-.594.031-1.925-.043-3.578-.169-1.521-.115-3.314-.275-5.066-.438l0,0c1.752.163,3.546.323,5.068.438a10.787,10.787,0,0,1-1.509.21c-3.156-.03-6.33-.233-9.493-.193-1.38,0-2.758.044-4.13-.05-1.375-.03-3.49.183-8.65.164l-5.616-.142c-.2,0-.393-.02-.589-.042-3.66.023-7.188.015-8.082-.017-1.082-.038-3.37-.021-5.358.039A10.975,10.975,0,0,0,5.1,5.593h0a7.418,7.418,0,0,0-.416,1.293,11.588,11.588,0,0,0,2.038,9.753c.062.268-.25.217-.638-.189A10.085,10.085,0,0,1,3.818,8.062c.041-.359.1-.72.174-1.08.15.08.256.111.376-.131a11.477,11.477,0,0,1,.706-1.214,11.478,11.478,0,0,0-.709,1.212c-.12.241-.226.211-.376.131-.285-.15-.733-.481-1.771.53a3.917,3.917,0,0,0-.991,1.979,11.485,11.485,0,0,0-.134,3.361l0,0a11.477,11.477,0,0,1,.131-3.363c-.022.275-.037.54-.034.8l-.006.6c.012.193.024.394.038.606v.035a15.457,15.457,0,0,0,.181,1.584,13.318,13.318,0,0,0,1.944,5.055,21.919,21.919,0,0,0,1.556,2.017c.163.233.8,1.4.992,1.625a21.967,21.967,0,0,0,1.908,1.7c.561.544.962,1.3,1.553,1.829.327.279.522.545.8.823.363.432.392.487.319.554-.058.17-.318.237-.826-.128a25.662,25.662,0,0,1-5.59-5.467,13.074,13.074,0,0,1-.915-1.4c-.255-.508-.532-1.007-.737-1.539a17.055,17.055,0,0,1-.568-1.609c-.079-.272-.181-.537-.25-.812s-.145-.55-.226-.82C1.181,14.248,1,13.52.835,12.769l-.005,0a.71.71,0,0,1-.269-.183C.512,11.961.493,11.348.5,10.738c0-.01,0-.018,0-.028-.022-.187-.051-.372-.066-.561A12.97,12.97,0,0,1,.709,5.921c.17.017.329.031.48.042h0c.271.021.509.033.7.031.424,0,.113-1.47.382-1.8l.1-.123a1.429,1.429,0,0,0-.3-2.092q.062-.209.12-.374C.584,1.476-.576,1.251.3.936.3.936,22.505,0,27.9,0S49.2.372,49.2.372l-.05.049L107.826.61a6.727,6.727,0,0,1,2.928.231q.257.082.5.184-.244-.1-.5-.185c.65.031,1.3.082,1.944.138a7.136,7.136,0,0,1,2.495,2.287,6.882,6.882,0,0,1,.45.773l.2.373c.057.125.1.254.147.378l.263.72c.068.237.115.471.167.694A16.683,16.683,0,0,1,116.65,10.651Z"/></g><g transform="translate(113.43 25.579) rotate(180)"><g transform="translate(16.844 3.414)"><path d="M3.633,0A3.434,3.434,0,0,1,7.266,3.193,2.925,2.925,0,0,1,6.56,5.078,3.8,3.8,0,0,1,3.633,6.385,3.458,3.458,0,0,1,.009,3.346c0-.05-.009-.1-.009-.153A3.433,3.433,0,0,1,3.633,0Z" fill="#ffdef2"/></g><g transform="translate(66.607 2.478)"><path d="M3.633,0A3.435,3.435,0,0,1,7.266,3.193c0,.059-.007.118-.011.177A3.461,3.461,0,0,1,3.633,6.385,3.706,3.706,0,0,1,.383,4.613,2.87,2.87,0,0,1,0,3.193,3.431,3.431,0,0,1,3.633,0Z" fill="#ffdef2"/></g><path d="M3.633,0A3.434,3.434,0,0,1,7.266,3.193a2.877,2.877,0,0,1-.03.388,3.5,3.5,0,0,1-3.6,2.8A3.434,3.434,0,0,1,0,3.193,2.889,2.889,0,0,1,.525,1.547,3.747,3.747,0,0,1,3.633,0Z" fill="#fdf0f9"/></g><g transform="translate(59.925 6.691)"><g transform="translate(0 0)"><path d="M-10.315,7.494A3.472,3.472,0,0,1-6.877,11a3.472,3.472,0,0,1-3.438,3.5A3.472,3.472,0,0,1-13.754,11,3.472,3.472,0,0,1-10.315,7.494Z" transform="translate(13.754 -7.494)" fill="#fceff8"/></g><g transform="translate(43.646 4.187)"><path d="M-10.315,7.494A3.472,3.472,0,0,1-6.877,11a3.472,3.472,0,0,1-3.438,3.5A3.472,3.472,0,0,1-13.754,11,3.472,3.472,0,0,1-10.315,7.494Z" transform="translate(13.754 -7.494)" fill="#fceff8"/></g></g><g transform="translate(110.888 16.802) rotate(180)"><g transform="translate(77.693)"><path d="M.156,2.152a4.252,4.252,0,0,0,.423.555,3.261,3.261,0,0,0,1.3.871,5.067,5.067,0,0,0,.55.141,4.042,4.042,0,0,0,1.582-.04,4.862,4.862,0,0,0,1.575-.73A3.553,3.553,0,0,0,6.855,1.054,3.255,3.255,0,0,0,6.98.52c.081-.379-.007-.6-.206-.493a2.979,2.979,0,0,0-.5.858,8.434,8.434,0,0,1-.516.957,3.152,3.152,0,0,1-1.1.911,3.153,3.153,0,0,1-1.383.336A2.251,2.251,0,0,1,1.95,2.91,5.321,5.321,0,0,1,.577,1.831C.292,1.576.1,1.645.035,1.771-.029,1.825-.014,1.86.156,2.152Z"/></g><g transform="translate(0 2.764)"><path d="M.007.434a4.216,4.216,0,0,0,.118.687A3.257,3.257,0,0,0,.875,2.5a5.151,5.151,0,0,0,.422.38,4.043,4.043,0,0,0,1.42.7,4.874,4.874,0,0,0,1.734.082,3.55,3.55,0,0,0,2-1.093,3.212,3.212,0,0,0,.358-.415c.25-.3.272-.537.046-.533a3,3,0,0,0-.843.528,8.411,8.411,0,0,1-.9.609,3.151,3.151,0,0,1-1.392.3,3.148,3.148,0,0,1-1.382-.344,2.253,2.253,0,0,1-1.1-.773A5.33,5.33,0,0,1,.526.343C.392-.015.185-.045.073.039-.006.059-.008.1.007.434Z"/></g><g transform="translate(43.976 7.58)"><path d="M.081.556a4.221,4.221,0,0,0,.284.637A3.256,3.256,0,0,0,1.433,2.339a5.281,5.281,0,0,0,.5.264,4.041,4.041,0,0,0,1.55.325,4.872,4.872,0,0,0,1.7-.35,3.55,3.55,0,0,0,1.667-1.55A3.2,3.2,0,0,0,7.1.538c.166-.35.132-.588-.087-.528a3.018,3.018,0,0,0-.686.72,8.307,8.307,0,0,1-.722.812,3.146,3.146,0,0,1-1.275.635A3.153,3.153,0,0,1,2.9,2.185a2.256,2.256,0,0,1-1.25-.479A5.325,5.325,0,0,1,.563.341C.344.026.137.048.049.158-.024.2-.017.232.081.556Z"/></g></g><g transform="translate(102.173 4.923) rotate(180)"><g transform="translate(52.279 0.372)"><path d="M.046.33C.131.218.338.191.564.5c.161.232.3.421.417.583a3.376,3.376,0,0,0,.705.756,2.252,2.252,0,0,0,1.264.45,3.153,3.153,0,0,0,1.423-.044,3.149,3.149,0,0,0,1.258-.666,8.337,8.337,0,0,0,.7-.83c.118-.155.234-.309.344-.438A1.237,1.237,0,0,1,7,.01c.144-.043.2.054.185.221a.983.983,0,0,1-.084.3,3.17,3.17,0,0,1-.232.5A3.551,3.551,0,0,1,5.242,2.624a4.885,4.885,0,0,1-1.691.39,4.045,4.045,0,0,1-1.556-.286,4.946,4.946,0,0,1-.509-.25,3.257,3.257,0,0,1-1.1-1.12,1.422,1.422,0,0,1-.126-.227C.2,1,.156.864.089.731-.016.407-.025.37.046.33Z"/></g><path d="M7.006.448c.223-.043.239.2.047.533-.011.022-.024.043-.035.064a2.817,2.817,0,0,1-.246.406A3.551,3.551,0,0,1,4.99,2.871a4.865,4.865,0,0,1-1.722.215,4.067,4.067,0,0,1-1.519-.442,5.147,5.147,0,0,1-.481-.3A3.264,3.264,0,0,1,.291,1.119,4.245,4.245,0,0,1,.056.462c-.072-.33-.077-.367,0-.4.1-.1.3-.108.5.222a5.324,5.324,0,0,0,.981,1.445A2.26,2.26,0,0,0,2.749,2.3a3.148,3.148,0,0,0,1.42.1,3.147,3.147,0,0,0,1.319-.535,8.321,8.321,0,0,0,.782-.755l.065-.069A2.6,2.6,0,0,1,7.006.448Z"/></g><g transform="translate(105.961 37.069) rotate(180)"><g transform="translate(0.364)"><path d="M29.409.9c-.219-.52-.1-.128-.5-.224-3.679-.889-8.372.246-11.733.017C15.951.61,14.732.405,13.5.336,11.444.221,9.379.487,7.322.368,5.718.274,4.3.132,2.718.017,1.738-.054.556.063.093.93c-.059.109-.371.8.622,1.253" fill="rgba(0,0,0,0)" stroke="#000" stroke-linecap="round" stroke-miterlimit="10" stroke-width="5"/></g><g transform="translate(0.356)"><path d="M32.45,2.071c-.028-.067,0-.678-.109-.735A17.853,17.853,0,0,0,28.913.678c-3.679-.889-8.372.246-11.733.017C15.951.61,14.732.405,13.5.336,11.444.221,9.379.487,7.322.368,5.718.274,4.3.132,2.718.017,1.738-.054.556.063.093.93c-.059.109-.371.8.622,1.253" fill="#ffdef2"/></g><g transform="translate(0 0.13)"><path d="M.951.223A4.678,4.678,0,0,0,.5.707C.459.758.437.662.433.724V.759a.849.849,0,0,0,.2.553,1.01,1.01,0,0,0,.328.269,1.623,1.623,0,0,1,.529.26l.221.2-.254.174a2.284,2.284,0,0,1-.3.159.266.266,0,0,0-.067.05.064.064,0,0,0-.021.033.065.065,0,0,0,0,.039.067.067,0,0,0,.024.031.064.064,0,0,0,.038.012l.214.025c.131.015.262.027.393.035.15.009.3,0,.45,0a.745.745,0,0,1,.4-.05l-.038.692c-.031,0-.063,0-.094,0a.4.4,0,0,0,.038.214.274.274,0,0,0,.066.093c.02.02.033.022.084.04a.8.8,0,0,0,.334,0,6.169,6.169,0,0,0,.856-.267,5.851,5.851,0,0,1,.971-.278A2.9,2.9,0,0,1,5.345,3c.163,0,.317,0,.459,0a1.6,1.6,0,0,0,.389-.063l.45-.16A2.15,2.15,0,0,1,7.757,2.7c.171.033.317.069.442.08l.479.029a52.035,52.035,0,0,0,6.815.45,5.83,5.83,0,0,1,.753-.05,3.116,3.116,0,0,1,.386-.009,1.454,1.454,0,0,1,.4.105,2.29,2.29,0,0,0,.516.023h.558c.187,0,.327,0,.531.005a4.324,4.324,0,0,1,.507.064l.21.035a1.235,1.235,0,0,0,.166.016c.114,0,.24-.006.375-.008a2.26,2.26,0,0,1,.75.116,3.07,3.07,0,0,0,.468.118l.758.055.507.042a2.923,2.923,0,0,0,.38.014c.139,0,.3-.011.518-.009a6.046,6.046,0,0,1,.8.085c.226.03.522.05.773.088A5.738,5.738,0,0,0,25.59,4c.612.021,1.074.147,1.584.176.25.02.506.028.761.029a5.085,5.085,0,0,1,.827.05c.272.038.533.09.786.139a3.059,3.059,0,0,0,.711.061,5.485,5.485,0,0,1,.836.026,4.963,4.963,0,0,1,.755.187c.471.144.892.342,1.365.436a12.574,12.574,0,0,0,1.28.2c.207.031.229.056.205.095.071.069,0,.15-.289.2a4.124,4.124,0,0,1-1.65-.064c-.517-.135-.943-.283-1.364-.374a2.746,2.746,0,0,0-.584-.08c-.194-.005-.395,0-.6.007a3.588,3.588,0,0,1-.634-.038l-.543-.1a5.214,5.214,0,0,0-.945-.1,9.811,9.811,0,0,1-1.8-.132,5.945,5.945,0,0,0-.716-.078,6.255,6.255,0,0,1-.767-.058c-.25-.036-.441-.059-.7-.085s-.474-.076-.684-.094a6.808,6.808,0,0,0-.686,0c-.255.005-.556-.033-.788-.043l-.778-.053a4.824,4.824,0,0,1-.909-.2,5.99,5.99,0,0,0-.923-.028l-.526-.076a3.1,3.1,0,0,0-.5-.017H17.23a1.26,1.26,0,0,1-.257-.015c-.23-.05-.326-.115-.383-.112-.078-.01-.213.008-.387.012a3.819,3.819,0,0,0-.4.019c-.268.025-.555.073-.863.09a4.036,4.036,0,0,1-.92-.078,3.437,3.437,0,0,0-.791-.05,4.664,4.664,0,0,1-.9-.045l-.844-.118a5.921,5.921,0,0,0-.815-.05,3.568,3.568,0,0,1-.467-.03c-.179-.026-.276-.054-.4-.059l-.422-.015a3.14,3.14,0,0,1-.458-.062c-.266-.046-.5-.042-.835-.066a4.84,4.84,0,0,0-.8-.109,2.15,2.15,0,0,0-.72.184,2.407,2.407,0,0,1-.95.161,3.3,3.3,0,0,0-.785.047c-.427.084-.915.322-1.6.5a1.718,1.718,0,0,1-.6.04.988.988,0,0,1-.359-.115.841.841,0,0,1-.3-.3,1.06,1.06,0,0,1-.156-.618h-.03c-.128-.009-.256-.023-.383-.039s-.213-.028-.45-.071a.7.7,0,0,1-.52-.278A.58.58,0,0,1,.4,2.295.684.684,0,0,1,.667,2a1.574,1.574,0,0,1-.293-.241A1.388,1.388,0,0,1,0,.887,1.1,1.1,0,0,1,.012.772C.021.651.057.689.119.584A1.165,1.165,0,0,1,.384.32C.442.275.5.24.551.2A2.127,2.127,0,0,1,.787.067C.8.059.819.049.833.042c.177-.08.343-.03.316.012S1.071.114.974.2A.177.177,0,0,0,.951.223Z"/></g></g><g transform="translate(53.159 35.236) rotate(180)"><g transform="translate(4.253 7.946)"><path d="M2.162.787a.5.5,0,0,1-.008.159c-.007.033-.017.067-.026.1a.8.8,0,0,1-.056.123.6.6,0,0,1-.145.192,1.007,1.007,0,0,1-.217.167.91.91,0,0,1-.578.091C.957,1.6.79,1.543.617,1.52A.249.249,0,0,1,.526,1.5C.5,1.483.482,1.463.458,1.451a.866.866,0,0,0-.137-.075.55.55,0,0,1-.206-.169A.457.457,0,0,1,.03,1,.981.981,0,0,1,0,.889a.565.565,0,0,1,0-.13A1.072,1.072,0,0,1,.058.491C.068.457.076.419.089.385A.767.767,0,0,1,.139.26.289.289,0,0,1,.207.173.732.732,0,0,1,.361.112C.426.086.492.078.557.053A.761.761,0,0,1,.734.007a3.054,3.054,0,0,1,.332,0c.1,0,.21,0,.314.009.083.007.17,0,.254,0,.061,0,.126,0,.183.013A.168.168,0,0,1,1.856.05.24.24,0,0,0,1.9.062.405.405,0,0,1,1.978.1a.237.237,0,0,1,.057.063c.014.017.032.025.04.05s0,.038.007.054A.411.411,0,0,1,2.1.329c0,.021.006.042.008.063.006.039.011.078.016.116s.02.063.025.1a.4.4,0,0,1,.008.055A.308.308,0,0,0,2.162.787Z"/></g><path d="M.9,12.558c.025-.064.051-.129.077-.194a1.087,1.087,0,0,0,.016-.243A7.47,7.47,0,0,0,.877,11C.8,10.525.679,9.733.663,9.49.652,9.179.627,8.859.591,8.537.55,7.857.523,7.169.509,6.487.492,5.705.518,5.308.537,4.912A15.259,15.259,0,0,1,.713,3.382a9.786,9.786,0,0,1,.2-1.232c.13-.547.239-1.069.316-1.55A1.791,1.791,0,0,0,1.27.252C1.3,0,1.218-.074,1.062.077a4.075,4.075,0,0,0-.5,1.518C.42,2.346.353,2.509.225,3.306.125,4.116.039,4.96.012,5.818A25.35,25.35,0,0,0,.09,8.732c.076.635.16,1.264.246,1.874A10.409,10.409,0,0,1,.5,12.263a.427.427,0,0,0,.215.417C.774,12.728.791,12.725.9,12.558Z"/><g transform="translate(4.708 2.467)"><path d="M2.161.787a.472.472,0,0,1-.008.159c-.006.033-.017.068-.025.1a.858.858,0,0,1-.056.123.6.6,0,0,1-.145.192,1.007,1.007,0,0,1-.218.167.913.913,0,0,1-.578.091C.957,1.6.79,1.543.616,1.52A.247.247,0,0,1,.526,1.5C.5,1.484.482,1.464.458,1.451a.81.81,0,0,0-.138-.074.569.569,0,0,1-.205-.17A.468.468,0,0,1,.029,1,1.128,1.128,0,0,1,0,.889a.627.627,0,0,1,0-.13A1.119,1.119,0,0,1,.057.491C.068.457.075.419.089.385A.8.8,0,0,1,.139.26.3.3,0,0,1,.207.173.743.743,0,0,1,.361.112C.426.086.492.078.557.053A.747.747,0,0,1,.734.007a3.045,3.045,0,0,1,.331,0c.1,0,.21,0,.314.01.083.006.169,0,.254,0,.062,0,.127,0,.184.014A.19.19,0,0,1,1.856.05.191.191,0,0,0,1.9.062.474.474,0,0,1,1.978.1c.026.014.037.04.057.064s.033.025.04.05,0,.038.006.055A.506.506,0,0,1,2.1.329c0,.022,0,.043.008.063.005.039.011.078.015.117s.021.062.026.1a.5.5,0,0,1,.008.055A.3.3,0,0,0,2.161.787Z"/></g></g></g></svg>