<svg xmlns="http://www.w3.org/2000/svg" xmlns:xlink="http://www.w3.org/1999/xlink" width="100" height="200" viewBox="0 0 239 353"><defs><clipPath id="a"><rect width="239" height="353" transform="translate(-0.138 -0.26)" fill="#fff"/></clipPath></defs><g transform="translate(0.138 0.26)" clip-path="url(#a)"><path d="M231.738,234.9c-.778-2.968-1.7-5.89-2.368-8.125l-2.551-12.514c.183-.585.3-.745.275-.894-1.144-6.807-1.361-13.843-5.079-20-.229-.378-.275-.871-.5-1.249a3.671,3.671,0,0,1,.709-5.157c2.288-2.2,1.876-4.16-.492-6.246a18.514,18.514,0,0,0-4.129-2.556,6.2,6.2,0,0,1-2.963-2.98c-4.667-9.7-10.157-18.932-15.442-28.283a21.144,21.144,0,0,0-2.448-3.564,97.855,97.855,0,0,1-6.955-8.973c-2.837-4.068-5.822-8.022-8.808-12-1.521-2.006-3.226-3.873-4.793-5.856-.48-.6-1.293-1.3-.686-2.109.778-1.066.755-2.292,1.2-3.438a52.034,52.034,0,0,0,3.111-17.728c.172-5.879-1.213-11.632-1.144-17.522,0-4.206-.675-8.4-.961-12.606A41.842,41.842,0,0,0,173.744,47.4c-3.146-6.509-7.172-12.526-10.718-18.805a7.352,7.352,0,0,0-2.562-2.762c-1.144-.7-1.144-1.444-.572-2.441a14.923,14.923,0,0,0,1.144-5.237c.526-3.931.24-7.907.835-11.838a19.835,19.835,0,0,0-.057-4.87c-.092-.974-.549-1.6-1.842-1.02a9.261,9.261,0,0,1-5.834.539A42.865,42.865,0,0,0,142.39.083C139.622.266,139.348.4,139.2,3.2c-.229,4.148-.332,8.3-.595,12.445-.183,2.945-.572,5.89-.8,8.847a1.809,1.809,0,0,1-1.544,1.822c-3.981,1.238-7.538,3.438-11.21,5.34a17.675,17.675,0,0,0-4.987,4.114c-2,2.292-3.352,4.916-5.182,7.277a36.044,36.044,0,0,0-6.394,12.136A27.631,27.631,0,0,1,106.6,60.7c-2.848-1.146-5.182-2.865-7.927-3.8-8.007-2.75-15.934-5.73-24.021-8.125-3.008-.894-5.96-2.04-8.877-3.22-4.358-1.765-8.876-3.323-13.646-2.681-3.8.516-7.732.344-11.358,1.983a3.427,3.427,0,0,1-4.358-.814,20.3,20.3,0,0,0-3.432-2.681c-4.026-2.911-8.007-5.73-12.891-7.277-4.038-1.284-7.435-1.2-10.455,2.395-2.7,3.22-5.09,6.876-8.865,9.007a1.152,1.152,0,0,0-.206.195c-.9,1.02-.732,1.891.618,2.143,2.951.527,5.6,1.914,8.419,2.819a51.977,51.977,0,0,1,15.557,8.022,2.088,2.088,0,0,1,.915,2.842A24.959,24.959,0,0,0,25,73.758a102.473,102.473,0,0,0,3.088,14.519,63.455,63.455,0,0,0,9.963,19.963c1.144,1.593,2.517,3.06,3.718,4.584a163.122,163.122,0,0,0,11.13,12.606c2.414,2.567,5,4.962,7.332,7.609,4.724,5.34,9.414,10.726,15.282,14.9.5.367.915.871,1.4,1.272a2.536,2.536,0,0,1,.8,2.636,78.271,78.271,0,0,0-1.35,12.044c0,7.77-.812,15.516-.48,23.3.32,7.391-.114,14.806.32,22.22s.732,14.577,1.144,21.865a121.652,121.652,0,0,0,1.407,12.858c1.235,7.116,3.695,13.934,5,21.029a23.173,23.173,0,0,0,2.219,6.074,106.886,106.886,0,0,1,4.953,12.057A92.457,92.457,0,0,0,96,294.932c3.9,7.7,10.123,13.546,15.74,19.881,2.288,2.635,5.651,3.828,8.6,5.525a2.611,2.611,0,0,1,1.624,2.451c.069,2.292.275,4.516.515,6.762.732,6.968,1.064,13.982,2.505,20.834a10.775,10.775,0,0,1-3.5.436c-3.695.091-7.378-.333-11.073,0-2.608.206-5.216.309-7.824.458a.42.42,0,0,1-.229-.2c.126-.343-.332.093,0,.127,7.264.48,14.539,1.041,21.825.86,3.6-.081,7.206-.517,10.8-.482,6.589,0,13.177.091,19.755.171,11.1.149,22.191.847,33.3.676,1.258,0,2.528.1,3.786.1,8.2,0,16.392.162,24.593,0,3.214,0,6.417-.835,9.666-1.019-5.925-.676-11.839.115-17.753-.23s-12.033-.48-18.519-.355c1.384-1.6,1.281-3.243,1.43-4.825.137-1.259.206-2.532.366-3.781q.938-7.277,1.945-14.518a126.376,126.376,0,0,1,1.933-12.608c.343-1.433.9-1.558,3.168-1.42,1.43.093,1.212.975,1.144,1.869,0,5.065-.137,10.129-.149,15.2,0,3.573,1.361,4.582,4.758,3.644a26.49,26.49,0,0,0,5.388-2.5c2.608-1.43,4.987-3.252,7.744-4.411l.595.791a18.518,18.518,0,0,0-.366,3.438,2.883,2.883,0,0,0,2.036,2.829c1.224.264,2.288-.274,3.008-1.741a6.8,6.8,0,0,0,.789-2.292,35.425,35.425,0,0,0-.435-8.868c-.206-1.641-1.361-2.2-3-1.744a13.011,13.011,0,0,0-1.727.757l-10.627,5.123-.549-.676c1.453-3.99,2.951-7.955,4.324-11.964a4.92,4.92,0,0,1,2.6-3.186,14.277,14.277,0,0,0,5.113-4.345c4.267-5.728,8.51-11.459,11.69-17.854a23.494,23.494,0,0,0,2.528-7.095c.423-3.025,1.041-6.027,1.373-9.064.606-5.363,1.3-10.761.744-16.159A140.54,140.54,0,0,0,231.738,234.9Zm-41.179,87.517-1.144,24.7-1.933,4.734-11.3-.069h-11.05l-13.726-.367h-5.216l-13.726-.2-6.211-5.728-.686-25.35a51.9,51.9,0,0,0,15.156-2.177l6.268-6.475a25.82,25.82,0,0,0,6.52-17.1c-.183-10.21-1.487-27.562-1.487-27.562l-1.739-22.323s5.719,12.125,8.007,19.345c2.1,6.622,6.863,20.134,7.653,22.333a2.165,2.165,0,0,0,.149.517c.366,1.754,3.054,14.418,6.921,18.645l.64.71a34.215,34.215,0,0,0,3.729,4.71,10.273,10.273,0,0,0,4.255,2.569,13.4,13.4,0,0,0,4.724,1.215c6.7.527,4.164,7.884,4.164,7.884Z" transform="translate(0 0.074)" fill="#ffdef2"/><path d="M177.489,212.816A112.74,112.74,0,0,0,169,203.488a75.922,75.922,0,0,1-5.491-5.535c-1.682-1.937-3.489-3.873-4.026-6.544a8.142,8.142,0,0,1-4.941-.562,8,8,0,0,1-1.315-.894c-.469-.4-1.144-.848-.641-1.536s1.075-.332,1.613,0a4.752,4.752,0,0,0,3.146,1.215,6.517,6.517,0,0,0-.217-1.581c-1.716-4.229-3.363-8.48-4.77-12.835a1.981,1.981,0,0,0-1.052-1.146c0,1.524.149,3.071,0,4.584a6.462,6.462,0,0,1-4.816,6.142c-2.757.687-6.966-.905-8.4-3.163a3.51,3.51,0,0,1-.355-.722.986.986,0,0,1,.3-1.146.766.766,0,0,1,1.144.321,6.326,6.326,0,0,0,4.358,2.888c2.894.653,4.839-.573,5.719-3.438a10.811,10.811,0,0,0-.114-5.34c-.263-1.306.183-1.914,1.579-1.536.172-2.017-.9-3.667-1.624-5.386a57.314,57.314,0,0,0-9.734-16.158c-5.033-5.673-10.958-10.417-16.906-15.092-3.752-2.945-7.5-5.913-10.947-9.168-6.154-5.856-10.455-13.1-14.321-20.547a76.068,76.068,0,0,0-21.448-25.36c-6.04-4.687-12.4-8.927-18.245-13.912A43.53,43.53,0,0,1,46.871,53.9c-3.043-5.845-6.005-11.735-9.06-17.579a22.168,22.168,0,0,0-4.827-6.475A61.494,61.494,0,0,0,17.073,19.765C13.276,18,9.489,16.316,5.12,17.542a3.505,3.505,0,0,1-.526-.1,9.981,9.981,0,0,0-2.082,2.086c3.191,2.613,6.863,4.263,10.295,6.211,3.237,1.822,6.12,4.16,9.151,6.234a3.326,3.326,0,0,1,1.533,4.366,25.133,25.133,0,0,0-1.144,6.876,28.969,28.969,0,0,0,1.521,10.1c1.716,5.73,2.711,11.586,4.9,17.19,1.807,4.584,3.729,9.168,7.1,12.984,1.338,1.5,3.134,2.361,4.472,3.885,5.411,6.177,10.432,12.709,16.277,18.5,3.523,3.507,7.08,6.979,10.775,10.314a119.324,119.324,0,0,1,10.9,11.288c3.958,4.584,8.568,8.5,13.006,12.606,3.592,3.312,7.687,5.994,11.221,9.374A172.939,172.939,0,0,1,118.774,167.2q4.347,5.512,8.739,11.013a31.408,31.408,0,0,1,4.129,6.979c2.631,5.844,5.262,11.689,8.2,17.384a18.358,18.358,0,0,0,1.43,2.6,17.615,17.615,0,0,1,3.089,6.876,3.756,3.756,0,0,0,3.18,3.151,95.238,95.238,0,0,0,13.9,2.2C167.343,217.9,172.605,215.968,177.489,212.816Z" transform="translate(3.64 24.889)" fill="#fdeff8"/><path d="M114.074,153.488a25.025,25.025,0,0,0-2.745-11.459c-.984-2.028-2-4.034-3-6.052-1.041,5.936-1.556,11.964-2.894,17.856a32.07,32.07,0,0,1-2.814,7.149c.663-4.582,1.338-9.167,1.91-13.751.595-4.812,1.75-9.556,1.887-14.427a41.781,41.781,0,0,1-8.716-18.336A60.842,60.842,0,0,0,92.878,98.8L90.5,100.109a36.349,36.349,0,0,1-8.476,3.438c-5.582,1.146-11.2,2.018-16.918,1.146a4.411,4.411,0,0,0-2.379,0c-.263.62.183,1.053.377,1.536,1.636,4.2,4.061,8.021,5.25,12.446.286,1.031,1.007,1.065,1.865,1.146a76.909,76.909,0,0,0,20.761-.884,19.2,19.2,0,0,1,4.576-.115,2.9,2.9,0,0,1,2.642,1.629,3.051,3.051,0,0,1-.789,3.243,6.471,6.471,0,0,1-3.958,2.143,55.875,55.875,0,0,1-15.065,1.146,62.779,62.779,0,0,1-7.7-.585c.938,3.027,1.842,5.674,2.768,8.288,2.15,6.118,3.317,12.512,5.719,18.6a47.77,47.77,0,0,0,8.007,13.661c2.551,3.037,6.028,3.828,9.711,3.644,1.235-.059,2.5-.242,3.752-.208a16.961,16.961,0,0,0,5.319-.617,4.5,4.5,0,0,1,1.373-1.215,13.114,13.114,0,0,0,4.69-6.877c-.526-.125-1.567,0-.869-.962a25.809,25.809,0,0,1,2.494-2.763.78.78,0,0,1,.176-.424.79.79,0,0,1,.384-.252,1.415,1.415,0,0,0,.537-.372,1.43,1.43,0,0,0,.31-.578C113.7,155.712,114.062,154.509,114.074,153.488Z" transform="translate(90.775 143.247)" fill="#fdeff8"/><path d="M73.693,211.6c-1.544-.162-2.208-1.433-3.077-2.429C61.35,198.475,55.951,185.9,52.7,172.289a3.447,3.447,0,0,1,0-2.591,20.875,20.875,0,0,1,2.036,5.5,90.772,90.772,0,0,0,10.215,23.79,15.421,15.421,0,0,0,2.482,3.519,3.367,3.367,0,0,0,.1-2.121,76.9,76.9,0,0,1-1.99-20.329,12.626,12.626,0,0,1,.766-4.756c-.069-.722-.435-1.408-.16-2.143V162.594c-.137-5.043.48-10.107-.538-15.116-.812-3.954-1.636-7.907-3.775-11.46v12.136c0,.629.057,1.261,0,1.878a.549.549,0,0,1-.4.607c-.332.081-.618-.137-.8-.492a4.728,4.728,0,0,1-.423-2.084c-.171-5.192-1-10.383-.171-15.586a13.276,13.276,0,0,0-.08-2.418,69.465,69.465,0,0,1-4.576-19.631c-.652-7.632-.446-15.333,2.139-22.713.378-1.077.641-2.292,1.864-2.842a37.354,37.354,0,0,0-6.2-4.492,51.315,51.315,0,0,0-2.528,15.539c0,4.974,0,9.959-.446,14.9-.515,5.489-.275,10.99-.767,16.479a91.816,91.816,0,0,0,.183,12.147c.354,8.388,1.636,16.674,2.288,25.018,0,.492.435,1.031-.332,1.536a17.812,17.812,0,0,1-.7-1.971,63.729,63.729,0,0,1-1.716-12.605A53.518,53.518,0,0,0,49.122,146c-.561-5.592-.355-11.2-.446-16.788-.08-4.7.286-9.408.092-14.1a119.6,119.6,0,0,1,1.51-27.5c.423-2.212.652-4.458,1.087-6.669A2.877,2.877,0,0,0,49.809,77.6c-2.608-1.616-5.124-3.438-7.7-5.054a55.374,55.374,0,0,0-8.327-5.008c-.526-.229-1-.882-1.739-.3-.08,5.019.366,10.084-.526,15.115a4.227,4.227,0,0,0,0,1.891,13.671,13.671,0,0,1,.286,4.034c0,5.145,0,10.314-.3,15.436-.354,7.838.309,15.677.767,23.5a98.822,98.822,0,0,0,1.578,13.408c1.659,8.3,3.569,16.536,5.388,24.787a36.235,36.235,0,0,0,2.825,8.435c.984,2.006,1.647,4.2,2.436,6.3,1.693,4.582,3.031,9.248,5.319,13.58A65.821,65.821,0,0,0,60.607,209.3c2.139,2.211,4.4,4.286,6.646,6.394a9.516,9.516,0,0,0,2.86,2.006,46.03,46.03,0,0,1,4.575,2.383c2.551,1.364,5.193,2.554,8.236,1.937-1.144-1.239-2.78-1.881-3.992-3.027C76.678,216.879,74.184,214.92,73.693,211.6Z" transform="translate(45.509 97.163)" fill="#fdeff8"/><path d="M45.3,60.644c2.482,1.284,4.884,2.7,7.344,4.023s4.873,2.533,7.344,3.816c4.45-15.253,10.1-26.621,14.276-28.649a4.429,4.429,0,0,1-1.03,2.143,41.715,41.715,0,0,0-5.056,8.939c-2.208,4.653-4.118,9.42-5.971,14.222-.5,1.3-1.864,2.636-1.247,3.9s2.208,1.742,3.5,2.383a2.679,2.679,0,0,0,1.144-1.146A41.752,41.752,0,0,0,72.38,54.227a124.76,124.76,0,0,1,3.2-14.451c1.979-6.876,5.857-12.72,9.311-18.828,3.34-5.9,6.543-11.872,6.005-19.012-2.951-.252-5.9-.481-8.854-.768-1.144-.1-1.83,0-2.093,1.387-.618,3.174-1.487,6.3-2.162,9.477-.755,3.61-1.384,7.254-2.139,10.864-.194.94-.3,2.166-1.361,2.51-3.523,1.146-6.589,3.255-10,4.652a21.149,21.149,0,0,0-10.638,8.858c-3.649,6.246-6.234,13.03-9.151,19.619C43.955,59.659,44.31,60.117,45.3,60.644Z" transform="translate(64.115 1.727)" fill="#fdeff8"/><path d="M231.738,234.9c-.778-2.968-1.7-5.89-2.368-8.125-.206.836.366,2.406.286,3.988a35.884,35.884,0,0,0,1.144,9.363c1.658,7.919,3.271,15.825,2.368,24.066-.538,4.825-.309,9.718-.7,14.589a19.576,19.576,0,0,1-2.631,8.4c-3.237,5.648-7.058,10.9-10.775,16.225a15.549,15.549,0,0,1-7.366,5.731c-2.94,1.146-5.937,2.131-8.968,3-1.968.551-3.935,1.411-6.074.847a16.961,16.961,0,0,1-5.319.62c-1.247,0-2.517.149-3.752.206-3.683.184-7.161-.607-9.711-3.644a47.782,47.782,0,0,1-8.007-13.661c-2.356-6.083-3.523-12.478-5.719-18.6-.926-2.613-1.83-5.261-2.768-8.285a63.25,63.25,0,0,0,7.7.585,56.072,56.072,0,0,0,15.065-1.146,6.484,6.484,0,0,0,3.958-2.143,3.054,3.054,0,0,0,.789-3.245,2.893,2.893,0,0,0-2.642-1.626,18.944,18.944,0,0,0-4.575.115,76.912,76.912,0,0,1-20.761.882c-.858-.056-1.579-.091-1.864-1.146-1.144-4.389-3.615-8.251-5.251-12.446-.194-.48-.64-.916-.377-1.536a4.458,4.458,0,0,1,2.379,0c5.719.86,11.336,0,16.918-1.146a36.343,36.343,0,0,0,8.476-3.437l2.414-1.215c2.162-1.627,4.678-2.739,6.7-4.584a3.243,3.243,0,0,1,2.574-.493c2.162.092,4.3.539,6.474.435a6.965,6.965,0,0,0,2.654-.458,1.146,1.146,0,0,0-.114-2.212l-3.18-.8c1.864-.756,3.432-1.329,4.85-1.971a1.26,1.26,0,0,0,.9-1.478c-.194-.791-.869-.825-1.521-.779-1.2.069-2.4.172-4.026.287,1.27-1.146,2.219-1.983,3.077-2.876a1.273,1.273,0,0,0,.252-1.719,1.36,1.36,0,0,0-1.7-.424c-.755.264-1.418.756-2.162,1.077-1.007.436-1.693,2.2-2.871,1.352-.892-.63.48-1.7.572-2.636,0-.711.32-1.524-.526-1.914s-1.372.195-1.841.779a20.26,20.26,0,0,0-2.437,4.813c-.515,1.146-.778,2.487-1.8,3.289-2.665,2.143-5.17,4.584-8.407,5.821-4.884,3.186-10.135,5.123-16.014,4.584a95.208,95.208,0,0,1-13.841-2.292,3.756,3.756,0,0,1-3.18-3.151,17.616,17.616,0,0,0-3.089-6.876,18.357,18.357,0,0,1-1.418-2.578c-2.94-5.73-5.571-11.54-8.2-17.385a31.42,31.42,0,0,0-4.129-6.979q-4.392-5.478-8.739-11.013a172.909,172.909,0,0,0-16.254-17.751c-3.535-3.438-7.63-6.062-11.222-9.374-4.438-4.091-9.048-8.022-13.006-12.606a119.358,119.358,0,0,0-10.9-11.288c-3.695-3.312-7.252-6.784-10.775-10.314-5.845-5.787-10.867-12.319-16.277-18.5-1.338-1.524-3.134-2.384-4.472-3.885-3.432-3.8-5.3-8.366-7.1-12.984-2.185-5.546-3.18-11.46-4.9-17.19a28.973,28.973,0,0,1-1.533-10.027,25.131,25.131,0,0,1,1.144-6.876,3.326,3.326,0,0,0-1.556-4.332c-3.054-2.074-5.937-4.412-9.151-6.234-3.432-1.948-7.058-3.6-10.295-6.211a9.986,9.986,0,0,1,2.082-2.086c1.338-1.914,2.665-3.839,4.038-5.73.526-.733,1.144-1.4,1.727-2.086a1.588,1.588,0,0,1,1.933-.527,39.7,39.7,0,0,1,4.987,1.994c5.788,3.22,11.873,5.959,17.158,10.13a2.023,2.023,0,0,0,1.533.344,13.081,13.081,0,0,0,2.94-.435c3.5-1.249,7.1-1.054,10.672-.825a62.577,62.577,0,0,1,12.88,2.808,152.848,152.848,0,0,1,19.32,6.8c7.149,3.128,14.6,5.615,21.734,8.893,6.611,3.071,13.143,6.291,18.7,11.185a54.37,54.37,0,0,0,8.728,6.36,82.178,82.178,0,0,1,13.829,9.89c4.85,4.332,9.837,8.515,14.07,13.477,5.045,5.9,10.169,11.735,15.534,17.339a96.7,96.7,0,0,1,10.672,13.935c2.665,4.08,5.1,8.3,8.007,12.251s5.5,7.827,8.156,11.8a91.359,91.359,0,0,1,7.893,14.474c.252.573.847,1.329.389,1.742-1.6,1.478-.114,2.464.675,3.621a19.417,19.417,0,0,0-4.724,1.008c-.778.332-1.487.779-1.373,1.776s.778,1.146,1.521,1.3a16.959,16.959,0,0,0,2.139.332h3.717c-.24.882-.8.974-1.224,1.249-.915.573-1.842,1.146-2.734,1.765a1.606,1.606,0,0,0-.812,1.845c.286.94,1.144.8,1.8.722a14.54,14.54,0,0,0,1.83-.413c.446-.172.915-.756,1.327-.3s-.16.733-.515.974c-.206.894-1.144,1.914,0,2.659a2.285,2.285,0,0,0,2.917-.619c.355-.344.583-.986,1.35-.653,2.059,7.678,5.559,14.9,7.893,22.92.183-.585.3-.745.275-.894-1.144-6.807-1.361-13.843-5.079-20-.229-.378-.275-.871-.5-1.249a3.671,3.671,0,0,1,.709-5.157c2.288-2.2,1.876-4.16-.492-6.246a18.523,18.523,0,0,0-4.129-2.556,6.194,6.194,0,0,1-2.963-2.98c-4.667-9.695-10.157-18.931-15.442-28.283a21.146,21.146,0,0,0-2.448-3.564,97.817,97.817,0,0,1-6.955-8.973c-2.837-4.068-5.822-8.022-8.808-12-1.521-2.005-3.226-3.873-4.793-5.856-.48-.6-1.293-1.295-.686-2.109.778-1.066.755-2.292,1.2-3.438a52.031,52.031,0,0,0,3-17.751c.172-5.879-1.213-11.632-1.144-17.522,0-4.206-.675-8.4-.961-12.606A41.842,41.842,0,0,0,173.744,47.4c-3.146-6.509-7.172-12.526-10.718-18.805a7.352,7.352,0,0,0-2.562-2.762c-1.144-.7-1.144-1.444-.572-2.441a14.923,14.923,0,0,0,1.144-5.237c.526-3.931.24-7.907.835-11.838a19.835,19.835,0,0,0-.057-4.87c-.092-.974-.549-1.6-1.842-1.02a9.261,9.261,0,0,1-5.834.539A42.865,42.865,0,0,0,142.39.083C139.622.266,139.348.4,139.2,3.2c-.229,4.148-.332,8.3-.595,12.445-.183,2.945-.572,5.89-.8,8.847a1.809,1.809,0,0,1-1.544,1.822c-3.981,1.238-7.538,3.438-11.21,5.34a17.675,17.675,0,0,0-4.987,4.114c-2,2.292-3.352,4.916-5.182,7.277a36.044,36.044,0,0,0-6.394,12.136A27.631,27.631,0,0,1,106.6,60.7c-2.848-1.146-5.182-2.865-7.927-3.8-8.007-2.75-15.934-5.73-24.021-8.125-3.008-.894-5.96-2.04-8.877-3.22-4.358-1.765-8.876-3.323-13.646-2.681-3.8.516-7.732.344-11.358,1.983a3.427,3.427,0,0,1-4.358-.814,20.3,20.3,0,0,0-3.432-2.681c-4.026-2.911-8.007-5.73-12.891-7.277-4.038-1.284-7.435-1.2-10.455,2.395-2.7,3.22-5.09,6.876-8.865,9.007a1.152,1.152,0,0,0-.206.195c-.9,1.02-.732,1.891.618,2.143,2.951.527,5.6,1.914,8.419,2.819a51.977,51.977,0,0,1,15.557,8.022,2.088,2.088,0,0,1,.915,2.842A24.959,24.959,0,0,0,25,73.758a102.473,102.473,0,0,0,3.088,14.519,63.455,63.455,0,0,0,9.963,19.963c1.144,1.593,2.517,3.06,3.718,4.584a163.122,163.122,0,0,0,11.13,12.606c2.414,2.567,5,4.962,7.332,7.609,4.724,5.34,9.414,10.726,15.282,14.9.5.367.915.871,1.4,1.272a2.536,2.536,0,0,1,.8,2.636,78.271,78.271,0,0,0-1.35,12.044c0,7.77-.812,15.516-.48,23.3.32,7.391-.114,14.806.32,22.22s.732,14.577,1.144,21.865a121.652,121.652,0,0,0,1.407,12.858c1.235,7.116,3.695,13.934,5,21.029a23.173,23.173,0,0,0,2.219,6.074,106.886,106.886,0,0,1,4.953,12.057A92.457,92.457,0,0,0,96,294.932c3.9,7.7,10.123,13.546,15.74,19.881,2.288,2.635,5.651,3.828,8.6,5.525a2.611,2.611,0,0,1,1.624,2.451c.069,2.292.275,4.516.515,6.762.732,6.968,1.064,13.982,2.505,20.834a10.775,10.775,0,0,1-3.5.436c-3.695.091-7.378-.333-11.073,0-2.608.206-5.216.309-7.824.458a.42.42,0,0,1-.229-.2c.126-.343-.332.093,0,.127,7.264.48,14.539,1.041,21.825.86,3.6-.081,7.206-.517,10.8-.482,6.589,0,13.177.091,19.755.171,11.1.149,22.191.847,33.3.676,1.258,0,2.528.1,3.786.1,8.2,0,16.392.162,24.593,0,3.214,0,6.417-.835,9.666-1.019-5.925-.676-11.839.115-17.753-.23s-12.033-.48-18.519-.355c1.384-1.6,1.281-3.243,1.43-4.825.137-1.259.206-2.532.366-3.781q.938-7.277,1.945-14.518a126.376,126.376,0,0,1,1.933-12.608c.343-1.433.9-1.558,3.168-1.42,1.43.093,1.212.975,1.144,1.869,0,5.065-.137,10.129-.149,15.2,0,3.573,1.361,4.582,4.758,3.644a26.49,26.49,0,0,0,5.388-2.5c2.608-1.43,4.987-3.252,7.744-4.411.172-.206.457-.367.641-.184s.137.654,0,.975a18.518,18.518,0,0,0-.366,3.438,2.883,2.883,0,0,0,2.036,2.829c1.224.264,2.288-.274,3.008-1.741a6.789,6.789,0,0,0,.789-2.292,35.415,35.415,0,0,0-.434-8.868c-.206-1.641-1.361-2.2-3-1.744a13.009,13.009,0,0,0-1.727.757l-10.672,5.123c-.217.056-.526.228-.618.149-.286-.252-.126-.563.069-.825,1.453-3.99,2.951-7.955,4.324-11.964a4.92,4.92,0,0,1,2.6-3.186,14.277,14.277,0,0,0,5.113-4.345c4.267-5.728,8.51-11.459,11.69-17.854a23.494,23.494,0,0,0,2.528-7.095c.423-3.025,1.041-6.027,1.373-9.064.606-5.363,1.3-10.761.744-16.159A140.54,140.54,0,0,0,231.738,234.9Zm-36.386-7.22c0,.069.126.126.194.195l-.194.355c-.057-.069-.183-.137-.172-.183A2.633,2.633,0,0,1,195.352,227.685ZM108.589,60.2c2.951-6.589,5.536-13.373,9.151-19.619a21.148,21.148,0,0,1,10.638-8.858c3.432-1.4,6.474-3.507,10-4.653,1.064-.344,1.144-1.57,1.361-2.51.755-3.61,1.384-7.254,2.139-10.864.675-3.174,1.544-6.3,2.162-9.477.263-1.387,1-1.49,2.093-1.387,2.951.286,5.9.516,8.854.768a20.949,20.949,0,0,0,5.056-1.65,11.043,11.043,0,0,1,.149,4.309,79.822,79.822,0,0,0-.5,8.091c-.126,3.564.229,7.208-1.453,10.589-.355.7,0,1.329.652,1.856,3.569,2.819,5.571,6.773,7.755,10.623,4.061,7.116,6.383,14.9,8.591,22.69,1.293,4.584,1.556,9.385,2.459,14.061a42.305,42.305,0,0,1-.378,16.353,60.46,60.46,0,0,0-.618,6.452c-.412,5.478-.8,10.956-1.2,16.433a1.146,1.146,0,0,1-.48,1.02c-14.87-14.5-29.237-29.532-46.464-41.381-1.293-.642-2.917-1.146-3.5-2.384s.744-2.6,1.247-3.9c1.853-4.8,3.763-9.569,5.971-14.221a41.71,41.71,0,0,1,5.056-8.939,4.425,4.425,0,0,0,1.029-2.143c-4.175,2.04-9.826,13.408-14.275,28.649-2.471-1.284-4.918-2.521-7.343-3.816s-4.862-2.739-7.344-4.022C108.429,61.771,108.074,61.312,108.589,60.2Zm42.952,188.961c1.819,4.354,3.649,8.709,5.559,13.259-4.964,0-5.01,0-4.942-4.32C152.251,255.12,151.461,252.232,151.541,249.161Zm-15.1,101.373c0-1.034.938-.722,1.327-1.146a3.3,3.3,0,0,0,.789-3.255,2.78,2.78,0,0,0-2.208-2.155,7.191,7.191,0,0,0-3.992.171,12.4,12.4,0,0,1-3.912,1.031c-.355-2.292.332-4.514.48-6.75a133.457,133.457,0,0,1,1.853-14.77c.446-2.454-.092-2.75,3.054-3.2a29.447,29.447,0,0,0,3.134-.813,103.7,103.7,0,0,1,2.768,11.77c.972,4.778,1.956,9.544,2.985,14.3a9.629,9.629,0,0,0,2.162,4.883c-3.054.48-5.7-.5-8.4-.069Zm-7.309-31.252a5.635,5.635,0,0,1-.778-.171c-3.043.62-5.719-.573-8.236-1.937a46.059,46.059,0,0,0-4.576-2.383,9.472,9.472,0,0,1-2.86-2.006c-2.288-2.109-4.507-4.183-6.646-6.394a65.771,65.771,0,0,1-10.73-15.517c-2.288-4.332-3.626-9.03-5.319-13.58-.789-2.109-1.453-4.3-2.436-6.3a36.237,36.237,0,0,1-2.825-8.435c-1.819-8.251-3.729-16.492-5.387-24.788a98.815,98.815,0,0,1-1.579-13.408c-.457-7.827-1.144-15.665-.766-23.5.24-5.145.263-10.314.3-15.436a13.67,13.67,0,0,0-.286-4.034,4.227,4.227,0,0,1,0-1.891c.892-5.031.446-10.1.526-15.116.744-.584,1.213.069,1.739.3a55.353,55.353,0,0,1,8.327,5.008c2.574,1.673,5.09,3.438,7.7,5.054a2.877,2.877,0,0,1,1.556,3.346c-.434,2.212-.663,4.458-1.087,6.67a119.6,119.6,0,0,0-1.51,27.5c.194,4.687-.172,9.4-.092,14.1.092,5.592-.114,11.2.446,16.789.183,1.788,0,3.61.057,5.42a63.752,63.752,0,0,0,1.716,12.608,17.714,17.714,0,0,0,.7,1.969c.766-.5.377-1.041.332-1.536-.663-8.341-1.945-16.627-2.288-25.016a91.856,91.856,0,0,1-.183-12.147c.492-5.489.252-10.99.767-16.479.446-4.939.389-9.924.446-14.9a51.315,51.315,0,0,1,2.528-15.539,37.387,37.387,0,0,1,6.2,4.492,39.772,39.772,0,0,1,8.419,7.105A211.775,211.775,0,0,1,135.756,217c2.905,4.24,4.69,9.111,7.195,13.591,1.144,1.959,2.768,3.575,3.375,5.821.114.424.206.86.309,1.284.137.241.217.493-.08.653l-.332-.3a47.591,47.591,0,0,1-7.378-2.556c-2.288-.837-4.576-1.73-6.863-2.464-1.864-.584-3.34-.195-3.935.814s-.194,2.716,1.487,3.965a55.772,55.772,0,0,0,15.408,7.736c.767.262,1.556.436,2.288.651,2.4.654,2.494.654,2.288,2.993a41.1,41.1,0,0,0,.5,11.048,1.282,1.282,0,0,1-.24,1.144,60.056,60.056,0,0,1-10.066-2.29,55.6,55.6,0,0,1-10.569-4.08,4.155,4.155,0,0,1-2.345-3.037c-.355-1.582-.755-3.164-1.144-4.744a4.155,4.155,0,0,0-.984-1.9,1.139,1.139,0,0,0-1.213-.38.919.919,0,0,0-.732,1c0,1.32.114,2.638.194,4.288-1.235-.928-2.208-1.7-3.226-2.407a9.808,9.808,0,0,0-1.682-.825,1.14,1.14,0,0,0-1.258.24,1.033,1.033,0,0,0,0,1.467c.812,1.056,1.659,2.1,2.574,3.243h-3.546A1.35,1.35,0,0,0,114.377,253a1.4,1.4,0,0,0,.892,1.526,7.873,7.873,0,0,0,3.066.894c-.641.962-2.459,1.065-1.83,2.474s2.116,1.031,3.352.757c.7-.159,1.372-.424,2.082-.573a7.033,7.033,0,0,1,5.193.745,72.5,72.5,0,0,0,21.665,8.606c2.288.5,2.368.551,2.436,2.763.114,3.781,1.018,7.472,1.27,11.244a86.979,86.979,0,0,1,0,13.257c-.172,1.949-.275,3.921-.641,5.88a21.85,21.85,0,0,1-6.5,11.917c-4.5,4.217-9.689,7.141-16.186,6.8Zm53.5,25.428a9.055,9.055,0,0,0-3.5-.113,3.079,3.079,0,0,0-2.517,3.105c0,1.536.641,2.292,2.425,2.75.732.193,1.487.3,1.7.343-5.067.287-10.672.539-16.277.642-5.777.115-11.507-.71-17.272-.95h8.11a2.933,2.933,0,0,0,3.2-3.164,3.2,3.2,0,0,0-.811-2.505,3.189,3.189,0,0,0-2.415-1.046,27.643,27.643,0,0,0-6.131.962c-.686.137-1.35.539-2.139.069.149-10.073-.549-20.17-.252-30.287a4.121,4.121,0,0,1,.812-2.775c5.582-6.647,6.863-14.5,6.348-22.918a44.012,44.012,0,0,1-.137-4.585c.171-4.8-.686-9.512-1.03-14.268v-1.719l5.548.85c.915.137,1.235.71,1.613,1.536a98.729,98.729,0,0,1,5.079,15.125c1.144,4.149,1.842,8.425,3.123,12.549a26.091,26.091,0,0,0,6.692,11.275,15.9,15.9,0,0,0,7.858,4.482c2.711.573,2.78.664,3.031,3.438.652,7.117,1.212,14.234,1.807,21.348.183,2.143.355,4.286.561,6.774Z" transform="translate(0 0.074)"/><path d="M115.976,80.729a3.855,3.855,0,0,0,2.082,1.662,5.312,5.312,0,0,0-1.624-3.873c-3.889-4.137-7.481-8.549-11.885-12.216-3.695-3.06-7.824-5.478-11.576-8.423-6.246-4.916-13.063-8.962-19.652-13.351-7.126-4.744-14.722-8.7-22.226-12.8a87.48,87.48,0,0,0-28.1-9.168,3.748,3.748,0,0,0-3.26.963c3.5.7,6.428,1.49,9.414,1.834a52.675,52.675,0,0,1,11.7,3.2c7.893,2.876,15,7.391,22.466,11.139,3.523,1.776,6.806,4.057,10.18,6.131,4.576,2.773,9.025,5.581,13.555,8.354,5.022,3.071,8.933,7.518,13.646,10.978A70.842,70.842,0,0,1,115.976,80.729Z" transform="translate(28.59 32.675)"/><path d="M98.561,133.751c-1.51,10.624-6.246,19.85-12.079,28.649a1.41,1.41,0,0,1-.846.953.8.8,0,0,1-.178.424.787.787,0,0,1-.383.252,25.779,25.779,0,0,0-2.494,2.763c-.7,1.007.343.835.869.962a18.541,18.541,0,0,0,4.576-4.23c4.3-6.59,8.442-13.271,10.386-21.018.663-2.613,1.144-5.27,1.613-7.93a149.662,149.662,0,0,0,2.288-15.745c.526-7.621-1.224-15.047-2.208-22.53a8.255,8.255,0,0,0-.583-1.639,10.133,10.133,0,0,0-.057,4.756,94.551,94.551,0,0,1,1.224,17.51Q100.045,125.389,98.561,133.751Z" transform="translate(119.325 137.247)"/><path d="M83.411,113.223a10.724,10.724,0,0,1-.641,4.239c-.137,4.871-1.293,9.615-1.887,14.427-.572,4.585-1.247,9.169-1.91,13.751a32.094,32.094,0,0,0,2.814-7.151c1.338-5.89,1.853-11.917,2.894-17.854a44.057,44.057,0,0,1,.538-6.407,9.09,9.09,0,0,0-.675-4.79A9.635,9.635,0,0,0,83.411,113.223Z" transform="translate(114.435 158.659)"/><path d="M40.922,36.246c2.013,1.467,4.061,2.911,6.051,4.423s3.946,3.128,5.936,4.664,4.209,3.105,6.211,4.767,3.718,3.438,5.639,5.042,2.894,3.954,5.411,4.7C62.884,48.955,51.56,43.007,40.922,36.246Z" transform="translate(59.298 52.6)"/><path d="M58.139,89.725c1.43,2.292,5.639,3.85,8.4,3.163a6.461,6.461,0,0,0,4.816-6.142c.126-1.513,0-3.06,0-4.584a2.3,2.3,0,0,1-.583-1.49c-1.4-.378-1.842.229-1.578,1.536a10.816,10.816,0,0,1,.114,5.34c-.858,2.888-2.8,4.114-5.719,3.438A6.325,6.325,0,0,1,59.226,88.1a.766.766,0,0,0-1.144-.321.987.987,0,0,0-.3,1.146A3.521,3.521,0,0,0,58.139,89.725Z" transform="translate(83.626 116.813)"/><path d="M28.656,29.655c7.229,3.736,14.47,7.46,21.734,11.242a15.219,15.219,0,0,0,1.739.687.319.319,0,0,0,.24-.08c.275-.241-.286-.229.08-.218C49.852,38.284,31.962,29.3,28.656,29.655Z" transform="translate(41.524 43.034)"/><path d="M75.547,86.005a10.7,10.7,0,0,0,1.258-6.257c-.057-.928.149-2.292-1.315-2.12s-.561,1.432-.572,2.006a10.49,10.49,0,0,1-.492,4.24c-.915,2.888-2.86,3.541-5.353,1.845a7.684,7.684,0,0,1-2.219-2.292c-.309-.458-.766-.894-1.327-.447a1.148,1.148,0,0,0-.114,1.478,8.723,8.723,0,0,0,3.935,3.564,4.413,4.413,0,0,0,6.2-2.017Z" transform="translate(94.471 112.542)"/><path d="M68.649,91.406A4.754,4.754,0,0,1,65.5,90.191c-.538-.39-1.144-.745-1.613,0s.172,1.146.641,1.536a8,8,0,0,0,1.315.894,8.141,8.141,0,0,0,4.941.562,18.49,18.49,0,0,0,2.1-1.639,5.233,5.233,0,0,0,1.27-5.5c-.194-.642-.423-1.249-1.247-1.089s-.675.733-.606,1.295c0,.264.1.527.114.8C72.584,89.882,71.714,90.89,68.649,91.406Z" transform="translate(92.343 123.141)"/><path d="M38.809,144.331c1.922,0,3.432.517,5.216-.882C40.765,143.244,40.765,143.244,38.809,144.331Z" transform="translate(56.235 207.789)"/><path d="M94.406,143.689a4.925,4.925,0,0,0,3.432,0C96.683,142.945,95.8,143.312,94.406,143.689Z" transform="translate(136.799 207.664)"/><path d="M97.047,143.618h2.288a2.131,2.131,0,0,0-2.288,0Z" transform="translate(140.625 207.704)"/><path d="M55.73,142.659c-.48-.127-.606-.527-.744-.918a15.352,15.352,0,0,1-2.482-3.517,90.786,90.786,0,0,1-10.192-23.78,20.874,20.874,0,0,0-2.036-5.5,3.447,3.447,0,0,0,0,2.591c3.249,13.614,8.648,26.185,17.913,36.878.869,1,1.533,2.292,3.077,2.43.229-.975-.583-1.455-1.029-2.087C58.738,146.671,57.217,144.675,55.73,142.659Z" transform="translate(57.996 157.941)"/><path d="M43.473,122.1a4.725,4.725,0,0,0,.423,2.087c.183.355.355.585.8.492s.389-.367.4-.607V110.059c-1.144-8.388-.149-16.743.377-25.143a56.752,56.752,0,0,0-1.533,7.059c-.7,4.011-.263,8.09-.721,12.124a13.254,13.254,0,0,1,.08,2.418C42.443,111.72,43.3,116.877,43.473,122.1Z" transform="translate(62.201 123.124)"/><path d="M47.133,114.684c0,3.757,4.953,12.353,7.927,13.9C53.012,123.645,48.757,116.046,47.133,114.684Z" transform="translate(68.298 166.26)"/><path d="M46.776,113.637a3.992,3.992,0,0,0-1.144-3.3c-.275.732.092,1.42.16,2.143C46.284,112.767,46.124,113.524,46.776,113.637Z" transform="translate(65.977 159.962)"/><path d="M44.324,84.217c.172-.481.732-.985.114-1.707C44.038,83.117,44.37,83.69,44.324,84.217Z" transform="translate(64.103 119.638)"/><path d="M68.069,40.892a6.65,6.65,0,0,0,5.09-2.2.907.907,0,0,0,.229-1.215.96.96,0,0,0-1.407-.252c-.16.092-.3.218-.446.31-3.763,2.223-4.85,2.051-7.858-1.146-.423-.47-.835-1.077-1.544-.527s-.423,1.146-.069,1.707a6.563,6.563,0,0,0,6.005,3.323Z" transform="translate(89.399 51.725)"/><path d="M72.875,41.454a5.284,5.284,0,0,0,4.13-2.819.975.975,0,0,0-.194-1.432.914.914,0,0,0-1.224.195c-.32.321-.561.71-.892,1.02-1.567,1.444-3.008,1.364-4.427-.264-.412-.47-.7-1.054-1.144-1.547a.834.834,0,0,0-1.144-.252.986.986,0,0,0-.4,1.146,5.949,5.949,0,0,0,5.3,3.953Z" transform="translate(97.85 52.571)"/></g></svg>