<svg xmlns="http://www.w3.org/2000/svg" xmlns:xlink="http://www.w3.org/1999/xlink" width="156" height="156" viewBox="0 0 156 156"><defs><clipPath id="a"><rect width="77" height="136" transform="translate(0.113)"/></clipPath><clipPath id="b"><path d="M11.934,22.067H0V0H11.934V22.067" transform="translate(0 0)" fill="#fff"/></clipPath></defs><g transform="translate(-1074 -283)"><circle cx="78" cy="78" r="78" transform="translate(1074 283)" fill="#f8e4f0" opacity="0.853"/><g transform="translate(1109.887 283)" clip-path="url(#a)"><g transform="translate(18.341 130.972)"><path d="M-76.1-3.621c-1.068-.092-2.121-.161-3.125-.158-.332,0-.655.007-.977.012-2.435.045-4.622.213-6.993.251-.367.006-.741.009-1.117.008-3.043-.01-6.019.363-8.879.326-1.5-.02-2.806-.065-4.029-.114a1.968,1.968,0,0,0-.456.329q.379.245.758.493c.048.031.1.062.145.093,3.55-.011,6.416.11,7.4.073.538-.011,1.056-.066,1.6-.041.353,0,3.947,0,8.531.011.586,0,1.189.159,1.8.152.593-.008,3.7-.251,4.313-.272,2.983-.1,3.613-.094,6.412-.089,4.715.011,8.468.5,8.9.508.319.007,1.785-.228,2.1-.228,1.079.006,1.749.3,2.831.323.879.021,1.781-.3,2.659-.323a10.15,10.15,0,0,0,1.264-.148c.608-.141.668-.171.647-.285.061-.2-.121-.433-.8-.459-2.7-.14-5.523-.228-8.421-.285-2-.038-4.031.281-6.085.376-.385.018-.77.031-1.156.03C-71.063-3.048-73.628-3.407-76.1-3.621Z" transform="translate(101.676 3.779)"/></g><g transform="translate(43.918 108.789)"><g transform="translate(0 0)"><path d="M-17.488-24.854c2.472.214,5.037.57,7.338.583.386,0,.771-.012,1.156-.03a2.616,2.616,0,0,0-.524-1.578c-.856-1.287-3.766-1.141-3.766-1.141s-.4-14.414-.575-20.174a25.933,25.933,0,0,1-3.508.232Z" transform="translate(17.488 47.195)"/></g></g><g transform="translate(32.823 106.967)"><g transform="translate(0 0)"><path d="M-7.58-49.476a29.683,29.683,0,0,1-3.283-.386,3.791,3.791,0,0,1-.379-.105l-.109,21.679a4,4,0,0,0-1.948.366,2.451,2.451,0,0,0-1.44,2.225c2.373-.038,4.558-.206,6.992-.251C-7.727-28.392-7.636-43.95-7.58-49.476Z" transform="translate(14.738 49.967)"/></g></g><g transform="translate(48.823 104.834)"><g transform="translate(0 0)"><path d="M-9.34-22c.126,1.549-.278,2.906.065,4.394.314,1.2,1.87,1.158,2.6.243,1.74-2.335.851-5.455.544-8.023-.375-2.736-1.26-6.514-1.295-7.067-.883.261-2.093.57-3.517.841C-10.653-30.233-9.441-23.4-9.34-22Z" transform="translate(10.938 32.454)"/></g></g><g transform="translate(2.386 93.963)"><g transform="translate(0 0)"><path d="M-44.052-15.955a13.693,13.693,0,0,1-1.5-3.2c-.123.058-.258.112-.4.166-.78.3-.879.393-1.592.668-2.488.961-6.044.731-7.375-.688-.843-.731-.623-.55-1.752-1.612-.4-.38-.488-1.14-.868-1.545-.092-.1-.186-.192-.275-.294-.427-.486-.487-.836-1.189-1a3.52,3.52,0,0,0-1.444-.209c-.879.687-1.442-.258-2.255-.822-.911-.5-1.771.241-1.151,1.232a17.059,17.059,0,0,1,2.348,2.9l.158.256q.447.506.931.966a25.788,25.788,0,0,0,5.136,4.342c2.276.968,1.926.462,3.714.875,1.206.278,2.2-.244,4.43-.709a6.725,6.725,0,0,0,2.373-.968C-44.535-15.706-44.3-15.825-44.052-15.955Z" transform="translate(64.063 24.65)"/></g></g><g transform="translate(22.384 39.606)"><g transform="translate(0 0)"><path d="M-64.828-84.508c.35-.389.7-.78,1.043-1.168a24.12,24.12,0,0,0,2.72-4.818c.931-1.775,1.8-3.582,2.571-5.434a36.021,36.021,0,0,0,2.856-11.615,5.1,5.1,0,0,1,.043-1.036,40.891,40.891,0,0,0-9.433-38.885c.829,11.732-13.577,6.6-19.517,11.742-10.276,8.07-1.665,23.335-8.835,32.765-2.5,2.961-7.458,4.01-7.706,8.583-.765,3.392.064,9.469-3.991,10.4,4.363,5.367,12.609,7.235,19.124,8.04a19.061,19.061,0,0,0,2.885-.048c1.216-.023,2.425.216,3.641.125a13.529,13.529,0,0,0,2.114-.386,22.86,22.86,0,0,0,7.493-3.6A28.833,28.833,0,0,0-64.828-84.508Z" transform="translate(105.076 147.463)" fill="#ffdef2"/></g></g><g transform="translate(12.074 30.584)"><path d="M-98.6-83.5a28.556,28.556,0,0,0,3.422,5.1c.218-.346.675.454.97.368,2.249-1.092,2.369-4.285,2.764-6.634.417-3.164.382-6.855,3.41-8.75C-83.316-96.3-80.728-99-80.146-104.8c.685-9.167-1.749-21.453,7.615-26.869,3.294-1.981,7.382-1.466,11.04-2.327,4.32.024,7.757-4.274,7.175-8.54a30.456,30.456,0,0,0-11.895-7.4l-.251.033c-.121.035-.179,0-.307-.212a.109.109,0,0,0-.008-.027c-9.615-3.58-21.56-.944-28.4,6.887-2.4,2.891-3.775,6.387-5.222,9.656-1.732,3.916-3.233,6.452-4.041,10.663a22.557,22.557,0,0,1-.309,2.725q-.135.888-.243,1.781a.268.268,0,0,1,.109.1c.74,2.823-.2,5.623-.582,8.427-.209,2.768.914,5.4,1.3,8.063.224,2.166.137,5.144.733,7.431A84.647,84.647,0,0,0-98.6-83.5Z" transform="translate(105.491 151.713)" fill="#fff0f9"/></g><g transform="translate(16.356 43.134)"><g transform="translate(56.083 6.548)"><path d="M-.026-.023l.011-.008V-.04l-.014,0Z" transform="translate(0.028 0.044)"/></g><g transform="translate(54.472 6.113)"><path d="M-3.5-1.835l0,.01a5.5,5.5,0,0,1,.721-.554,1.521,1.521,0,0,0,.432-.265A.48.48,0,0,0-2.27-2.73c.008-.012.023-.031.021-.041v-.017c0-.011.005.009,0-.028a.507.507,0,0,0-.03-.1.5.5,0,0,1-.034-.146v-.057l.015,0a.281.281,0,0,0,.12.032c.051-.005.117,0,.157-.133a.226.226,0,0,0,0-.094.228.228,0,0,0-.038-.084.3.3,0,0,0-.157-.13.4.4,0,0,0-.094-.023l-.046-.005a.535.535,0,0,0-.086,0A.951.951,0,0,0-2.8-3.5a2.248,2.248,0,0,0-.948.521A1.1,1.1,0,0,1-3.93-2.8C-3.785-2.485-3.639-2.164-3.5-1.835Z" transform="translate(3.93 3.549)"/></g><g transform="translate(56.241 44.335)"><path d="M0,0l0,0Z" transform="translate(0.006 0.003)"/></g><g transform="translate(54.573 43.269)"><path d="M-3.586-1.849a1.551,1.551,0,0,1,.435.134,2.7,2.7,0,0,0,.617.22c.11.039.228-.036.349-.052.194-.1.218-.123.256-.245,0-.008.007-.019.011-.028.08-.2.123-.452-.022-.522-.732-.354-.856-.281-1.369-.543C-3.4-2.539-3.489-2.192-3.586-1.849Z" transform="translate(3.586 2.885)"/></g><g transform="translate(49.075 55.384)"><path d="M-3.981-2.529a7.866,7.866,0,0,1,.741.434c.2.191.685.488,1.01.247A.617.617,0,0,0-2.1-2.033a.362.362,0,0,0,.05-.195.357.357,0,0,0-.064-.191.766.766,0,0,0-.16-.208,2.42,2.42,0,0,0-.795-.587,1.143,1.143,0,0,1-.373-.2C-3.615-3.119-3.792-2.82-3.981-2.529Z" transform="translate(3.981 3.419)"/></g><g transform="translate(0.215 0.243)"><path d="M0,0,0,0Z" transform="translate(0.003 0.003)"/></g><g transform="translate(0 0)"><path d="M-2.046-2.475l.074-.108c-.032-.031-.065-.064-.1-.094-.559-.3-.436-.182-.589-.31a1.471,1.471,0,0,0-.4-.25c-.069-.044-.177.017-.263.022A.766.766,0,0,0-3.6-3.03l-.021.021a.83.83,0,0,0-.189.236.22.22,0,0,0-.027.126.223.223,0,0,0,.047.12c.514.45.6.342.948.669.105.064.213.123.32.183Z" transform="translate(3.836 3.253)"/></g></g><g transform="translate(11.338 29.663)"><g transform="translate(39.243 2.629)"><path d="M-26.1-121.359a28.31,28.31,0,0,0-6.978-12.786,35.1,35.1,0,0,0-11.61-9.428,4.677,4.677,0,0,0,1.007.824,43.369,43.369,0,0,0-4.156-1.7c-.1.2-.093.575-.458.5,11.909,3.723,19.335,15.214,21.78,26.954,1.709,5.933.665,12.791-.759,18.561-.681,3.722-.747,7.591-2.041,11.189-1.434,3.853-3.736,6.66-5.622,10.345-2.945,4.893.153,1.817,1.493-.435,2.364-4.131,4.73-8.313,5.774-13C-25.237-100.438-23.563-110.951-26.1-121.359Z" transform="translate(48.291 144.452)"/></g><g transform="translate(1.292 0)"><path d="M-76.259-34.918a54.4,54.4,0,0,1,3.739-11.84c1.416-3.164,2.759-6.55,5.108-9.349a22.493,22.493,0,0,1,5.938-4.819,30.256,30.256,0,0,1,10.352-3.24,28.063,28.063,0,0,1,6.426.087,29.9,29.9,0,0,1,3.257.716c.608.184,1.209.382,1.808.588-.035-.12-.1-.225-.07-.33a1.6,1.6,0,0,1,.088-.307A36.9,36.9,0,0,0-51.1-64.878c-.285.023.462-.491.943-.807a7.746,7.746,0,0,0-1.306.011l-1.266.213a27.2,27.2,0,0,0-2.955.755l-2.092.807c-.518.224-.97.463-1.392.661A31.6,31.6,0,0,0-62.13-61.55c-.655.5-2.025,1.444-2.594,2.019-.325.294-.678.613-1.069.97a42.142,42.142,0,0,0-5.646,7l-.074.108L-73-48.931a10.243,10.243,0,0,0-.642,1.218c-.186.45-.844,2.575-.992,3.029-.554,1.527-1.141,2.407-1.6,3.984a37.623,37.623,0,0,0-.6,3.984,16.588,16.588,0,0,0-.189,1.9c0,.925.015,1.015.13,1a.158.158,0,0,0,.122.021C-76.608-33.829-76.409-34.133-76.259-34.918Z" transform="translate(77.028 65.707)"/></g><g transform="translate(0 33.644)"><path d="M-93.825-62.425A22.159,22.159,0,0,1-96.3-66.99c-.7-1.087-1.046-2.364-1.8-3.429a47.523,47.523,0,0,1-2.544-6.141c-.583-2.214-.5-5.1-.717-7.195-.287-2.3-1.323-4.573-1.315-6.946.118-3.024,1.446-5.987.61-9.015-.87-.741-.993,4.6-.984,5.187-.751,4.082.029,8.256.6,12.337.909,5.123,1.935,10.672,4.292,15.5a2.826,2.826,0,0,0,.408.712c.3.382.406.905.757,1.25a17.892,17.892,0,0,0,2.39,2.9c2.1,2.547,4.343,5.165,7.433,6.5a69.667,69.667,0,0,0,9.053,3.382c5.364.882,11.625.972,16.8-.622a7.438,7.438,0,0,0,3.044-1.969,19.886,19.886,0,0,0,2.4-1.27,12.31,12.31,0,0,0,1.7-1.9,4.906,4.906,0,0,0,1.015-1.5.094.094,0,0,0-.051-.066c-.1-.172-.4-.215-.856.2l-1.4,1.241a26.528,26.528,0,0,1-4.85,3.079,22.3,22.3,0,0,1-6.077,2.455,20.4,20.4,0,0,1-7.147-.4A48.709,48.709,0,0,1-85.7-55.877,15.355,15.355,0,0,1-93.825-62.425Z" transform="translate(103.357 99.785)"/></g></g><g transform="translate(56.589 17.757) rotate(166.488)" clip-path="url(#b)"><g transform="translate(-13.86 7.92)"><path d="M.179.312c.037-.059.17.035.2-.037C.426.211.5.288.5.157.54.111.587.167.6.085.586,0,.607-.086.785.165a2.564,2.564,0,0,1,.263.461.919.919,0,0,1,.041.119c.035.128.033.2-.005.208s-.046.032-.038.1C.957,1.1.95,1.091.9,1.2c-.021.048-.064.06-.13.036a.091.091,0,0,0-.028.007.366.366,0,0,0-.058-.031c-.02,0-.055.036-.076.063s-.044.027-.089,0a1.051,1.051,0,0,1-.133-.144A2.09,2.09,0,0,1,.2.864,1.874,1.874,0,0,1,0,.491Z" transform="translate(0 0)" fill="rgba(0,0,0,0)"/></g><g transform="translate(3.23 17.152)"><path d="M1.139.115c.018,0,0,.008-.038.012S1,.131.912.133c-.169,0-.216,0-.325,0-.2,0-.423,0-.429,0C.127.116.1.106.083.093S.191.073.141.064.208.049.092.037C.067.029.139.027.07.018S-.083,0,.222,0C.436,0,.671,0,.755,0l.126,0c.132.006.194.012.185.018s.008.009.071.013c0,.016-.006.016.073.031.034.007.025.014-.025.02-.005,0-.007,0-.007,0L1.124.1C1.1.1,1.126.11,1.139.115Z" transform="translate(0 0)" fill="rgba(0,0,0,0)"/></g><g transform="translate(21.862 16.027)"><path d="M.96.106c.012,0,0,.007-.046.011S.822.12.739.122c-.152,0-.2,0-.291,0-.174,0-.37,0-.373,0S.072.1.038.085.147.067.1.058C.13.05.121.042.074.034.055.026.119.025.06.017S-.072,0,.2,0c.19,0,.4,0,.473,0l.109,0c.117.005.17.011.161.016s0,.008.058.012C.987.05.982.05,1.045.064c.027.006.016.013-.033.019L1,.087l-.05,0C.939.093.951.1.96.106Z" transform="translate(0 0)" fill="rgba(0,0,0,0)"/></g></g><g transform="translate(38.495 25.23)"><g transform="translate(0 0)"><path d="M-33.919-12.567a37.826,37.826,0,0,1,10.549,1.2c.279.066.6.156.937.263.317.1.652.212,1,.334,1.609.57,3.361,1.32,3.962,1.6a6.128,6.128,0,0,1-.813-.718,9.561,9.561,0,0,1-1.54-1.92c-.6-1.4.311-3.134-.323-4.508a14.37,14.37,0,0,0-1.638.987c-.52.366-1.379,1.728-2.084,1.758-.8.033-.335-1.912-.336-2.5a4.794,4.794,0,0,0-.212-1.756c-.557.092-1.181,1.39-1.458,1.808-.373.563-.875,1.654-1.562,1.9-.817.285-.711-2.1-.917-2.659-.336-.918-.689.128-.849-.536-.218.067-.717.978-.887,1.243a6.553,6.553,0,0,1-1.2,1.35,9.638,9.638,0,0,1-1.387,1.158l-.3.192C-33.457-13.059-34.2-12.544-33.919-12.567Z" transform="translate(33.982 17.829)"/></g></g><g transform="translate(22.234 70.229)"><g transform="translate(0 0)"><path d="M-7.873-1.326c-.353.059-.367.105-.741.161a5.864,5.864,0,0,1-.961.031,11.507,11.507,0,0,1-2.1-.015,9.5,9.5,0,0,1-1.431-.108,6.183,6.183,0,0,1-1.135-.28,2.487,2.487,0,0,1-.609-.305c-.272-.12-.563-.5-.408-.634.127-.089.34-.028.622.215a5.217,5.217,0,0,0,1.164.437,7.906,7.906,0,0,0,2.158.241,10.2,10.2,0,0,0,3.778-.353c.352-.119.62.083.555.184A2.652,2.652,0,0,1-7.873-1.326Z" transform="translate(15.302 2.514)"/></g></g><g transform="translate(20.007 64.786)"><g transform="translate(10.766 0.547)"><path d="M-2.016-5.123a.285.285,0,0,0-.132-.009.48.48,0,0,0-.085.018.537.537,0,0,0-.107.05.493.493,0,0,0-.171.143,1.139,1.139,0,0,0-.156.231,1.378,1.378,0,0,0-.123.654c0,.2.034.4.041.6a.361.361,0,0,0,.011.107c.009.028.025.054.033.079a1.3,1.3,0,0,1,.049.166A.533.533,0,0,0-2.37-2.7a.905.905,0,0,0,.092.043.367.367,0,0,0,.107.015A.978.978,0,0,0-1.852-2.7a.529.529,0,0,0,.107-.042.254.254,0,0,0,.078-.069A.989.989,0,0,0-1.6-2.978c.04-.14.09-.271.118-.416.028-.245.043-.5.05-.742a7.688,7.688,0,0,0-.157-.836c-.087-.049-.191-.072-.278-.12a.238.238,0,0,0-.044-.016A.179.179,0,0,1-2.016-5.123Z" transform="translate(2.792 5.136)"/></g><g transform="translate(0 0)"><path d="M-1.908-5.323a.244.244,0,0,0-.122-.008.4.4,0,0,0-.079.018.552.552,0,0,0-.1.051.486.486,0,0,0-.159.149,1.2,1.2,0,0,0-.145.239,1.582,1.582,0,0,0-.114.678c0,.21.032.417.038.626a.445.445,0,0,0,.011.111c.008.029.023.056.031.088A1.508,1.508,0,0,1-2.5-3.2a.544.544,0,0,0,.264.392.643.643,0,0,0,.085.044.3.3,0,0,0,.1.016.552.552,0,0,0,.21-.032c.028-.009.057-.012.084-.024a.3.3,0,0,0,.172-.115,1.139,1.139,0,0,0,.057-.177c.036-.145.084-.281.11-.432.014-.13.024-.262.029-.394s.016-.251.018-.376c0-.1.015-.2.016-.3,0-.074.007-.152,0-.221a.319.319,0,0,0-.013-.048.486.486,0,0,1-.005-.057A.508.508,0,0,0-1.4-5.018a.267.267,0,0,0-.044-.075c-.014-.043-.053-.048-.077-.068a.221.221,0,0,0-.09-.048.827.827,0,0,1-.166-.076A.231.231,0,0,0-1.816-5.3.172.172,0,0,1-1.908-5.323Z" transform="translate(2.627 5.336)"/></g></g><g transform="translate(55.935 88.751)"><g transform="translate(3.207 0)"><path d="M-1.324-2.073c.27-1.629-2.2-.172-.7.551A.469.469,0,0,0-1.324-2.073Z" transform="translate(2.51 2.815)"/></g><g transform="translate(0 3.518)"><path d="M-1.343-2.008c.377-1.164-1.616-.779-1.086.227C-2.159-1.24-1.129-1.242-1.343-2.008Z" transform="translate(2.519 2.724)"/></g><g transform="translate(4.329 4.932)"><path d="M-1.525-2.157A.792.792,0,0,0-2.4-2.728c-1.054-.133-.263,1.631.541,1.273l-.007-.013A.511.511,0,0,0-1.525-2.157Z" transform="translate(2.903 2.736)"/></g></g></g></g></svg>