<svg xmlns="http://www.w3.org/2000/svg" width="156" height="156" viewBox="0 0 156 156"><g transform="translate(-954 -172)"><circle cx="78" cy="78" r="78" transform="translate(954 172)" fill="#f8ffe5" opacity="0.796"/><g transform="translate(973.689 209.48)"><path d="M11.577,75.123c.335.006,2.256.184,5.067.324a.408.408,0,0,0,.3-.375c-.1-1.311-.827-2.183-1.385-3.355-.617-1.374-1.406-2.829-2.125-4.151-.392-.677-.673-.641-.122-1.3a31,31,0,0,1,4.027-3c.915-.693,1.68-1.192,2.317-1.6l-.037-.018a5.378,5.378,0,0,1-1.4-.6,4.726,4.726,0,0,1-.568-.434c-.16-.174-.342-.381-.478-.543-.266-.335-.6-.671-.926-1.014-.75-.759-1.247-1.339-1.689-1.876-1.073,1.375-1.98,3.018-3.31,4.846-.976,1.341-2.4,3.236-2.144,4.3A11.4,11.4,0,0,0,10.753,70.4a8.789,8.789,0,0,0,1.035,1.909c.38.645-.305,1.059-1.065,1.155-1.048.157-2.441.073-2.987,1.189-.07.142-.261.474-.1.618A11.126,11.126,0,0,0,8.9,75.35C9.3,75.345,11.172,75.116,11.577,75.123Z" transform="translate(0.56 4.23)"/><path d="M31.846,74.723A42.527,42.527,0,0,0,27.994,68.7c-.509-.677-2-2.61-1.738-3.005.7-1.052,1.45-2.491,2.25-3.463a6.981,6.981,0,0,1-3.107-.061c-.169-.025-.652-.037-1.129-.1a7.594,7.594,0,0,1-.99-.177c-.313,1.552-1.19,3.114-.993,4.709.827,2.01,2.837,3.7,3.765,5.66.5.916.107.737-.709.842-.976.157-2.419.369-2.782,1.5-.14.375-.126.567.125.657,2.881,0,3.855,0,7.337-.087.276-.007.964-.042,1.765-.084a.3.3,0,0,0,.057-.372Z" transform="translate(1.646 4.578)"/><path d="M87.406,48.41c.009.05.02.1.03.151a11.262,11.262,0,0,0,.216-1.3c-.021.11-.045.212-.067.32Q87.5,48,87.406,48.41Z" transform="translate(6.465 3.496)"/><path d="M88.917,40.744A41.079,41.079,0,0,1,87.74,51.17c.088.433.172.866.26,1.3.249,1.231.548,2.451.868,3.658a16.494,16.494,0,0,1,.382,2.5c.045.4.008.815.04,1.224.043.563.069,1.075.069,1.644,0,1.134,0,2.279.1,3.406.046.5.189.97.253,1.464.061.468.142.938.236,1.4.215,1.066.4,2.139.571,3.218.076.485.064.946.1,1.434.03.354.074.7.071,1.054,0,.459.033.938,0,1.4-.012.177-.08.327-.1.5a3.781,3.781,0,0,1,0,.4.815.815,0,0,1-.45.584c-.166.076-.386.04-.552.128a1.438,1.438,0,0,0-.34.324,2.188,2.188,0,0,0-.147.189c2.769-.014,5.542-.1,8.308-.163a2.8,2.8,0,0,0-.545-.542,9.882,9.882,0,0,0-2.548-.974c-.157-.048-.359-.035-.423-.228a1.982,1.982,0,0,1,.005-.484,2.351,2.351,0,0,0-.02-.536c-.05-.213-.052-.426-.089-.662-.077-.5-.1-1-.165-1.5-.088-.7-.21-1.394-.259-2.111q-.258-3.792-.519-7.574c-.07-1.02-.05-2.057-.158-3.073-.046-.432-.124-.845-.194-1.269a8.839,8.839,0,0,0-.2-1.243,11.4,11.4,0,0,1-.258-1.621c-.045-.294,0-.607-.028-.908-.042-.445-.075-.883-.138-1.324s-.048-.892-.087-1.328c-.033-.365-.065-.729-.1-1.093-.041-.426-.069-.853-.1-1.28-.026-.4-.135-.768-.2-1.159-.371-2.288-.859-4.551-1.3-6.822-.268-1.39-.662-2.75-.985-4.122-.221-.938-.451-1.876-.671-2.814.079.828.114,1.459.191,1.981A31.448,31.448,0,0,1,88.917,40.744Z" transform="translate(6.489 2.526)"/><path d="M41.645,2.275c-.658.194-1.3.4-1.931.607C40.346,2.673,40.987,2.47,41.645,2.275Z" transform="translate(2.937 0.168)" fill="#e0fe94"/><path d="M32.109,6.254Q30.806,7,29.6,7.816,30.807,7,32.109,6.254Z" transform="translate(2.189 0.463)" fill="#e0fe94"/><path d="M87.291,48.859c.034-.145.067-.292.1-.441C87.359,48.567,87.328,48.718,87.291,48.859Z" transform="translate(6.456 3.581)" fill="#e0fe94"/><path d="M33.311,5.516l-.138.068Z" transform="translate(2.454 0.408)" fill="#e0fe94"/><path d="M18.53,63.584a5.936,5.936,0,0,0,1.351.368,5.482,5.482,0,0,0,.938.029c.4-.018.79-.076.914-.082.255,0,.519.117.772.1a7.244,7.244,0,0,0,2.38-.7,5.429,5.429,0,0,0,.679-.39,2.412,2.412,0,0,0,.3-.2,3.467,3.467,0,0,0,.521-.463c.159-.161.515-.431.938-.8a3.18,3.18,0,0,0,.57-.613,7.64,7.64,0,0,0,.468-.984l.11-.026.583-.124a1.477,1.477,0,0,1,.2.325c-.14.243-.271.5-.416.779a3.629,3.629,0,0,1-.587.861c-.478.5-.944.985-1.421,1.5a5.677,5.677,0,0,1-1.78,1.3,6.951,6.951,0,0,0,3.42.221,9.451,9.451,0,0,0,.96-.31c.325-.119.645-.242.957-.374a8.785,8.785,0,0,0,1.742-.957c.489-.378.76-.39.87-.232a9.1,9.1,0,0,0,1.015-1.345c-.055-.02-.084-.081-.081-.2a13.852,13.852,0,0,1,.727-2.069c.359-.863.772-1.765,1.052-2.3.777-1.688,1.851-3.344,2.623-5.1.314-.9.633-1.832.96-2.763.639-2.352.96-4.81,2.038-7.067.076-.146.157-.3.242-.454a11.051,11.051,0,0,0-.668-5.046,3.164,3.164,0,0,1-.189-1.717A27.387,27.387,0,0,0,38.379,36.4a.733.733,0,0,1-.534.189c-.2-.035-.151-.156-.133-.248,0-.046.026-.1-.031-.129-.019-.033.044-.11.159-.3a5.817,5.817,0,0,1,.6-.7,12.022,12.022,0,0,1,1.39-1.485,17.1,17.1,0,0,1,2.019-.844,12.159,12.159,0,0,1,1.4-.84,15.435,15.435,0,0,1,6.712.055c.512.1.911.233,1.272.323l.968.323.975.376c.361.143.761.335,1.269.557.119.067.4.19.745.349.276.1.564.211.855.331-.032-.541-.033-1.078-.032-1.632a4.567,4.567,0,0,1,.409-2.779c.047-1.357.821-1.459,1.434-1.357,2.427.724,2.82,4.925,3.232,7.146.116.933.191,1.868.252,2.8a16.069,16.069,0,0,1,2.163,4.5,29.156,29.156,0,0,1,.816,3.321,42.151,42.151,0,0,1,1.928,5.008,20.114,20.114,0,0,0,3.972,8.019c2.036,2.547,7.131,5.4,7.131,5.807,0,.288-.254,4.542-.4,7.014a24.51,24.51,0,0,1,3.352-.04,2.417,2.417,0,0,1,1.125.368c0-.159.007-.316.008-.474.006-.857.01-1.71.05-2.562.031-.74.062-1.477.092-2.2.025-.786.05-1.554.073-2.294l.324-.178c.055-.065.129-.055.221-.081l.191-.046.047-.012c.015-.006,0-.067,0-.1l-.011-.225c-.022-.1.038-.088.076-.106l.1-.035.153-.055.612-.233,1.2-.491a9.618,9.618,0,0,0,2.113-1.214c.588-.461.883-.483.982-.312a13.022,13.022,0,0,0,1.109-1.269c-.052-.025-.083-.085-.079-.191a11.851,11.851,0,0,1,.707-1.726c.321-.709.653-1.462.9-1.931.055-.11.11-.221.169-.334a4.266,4.266,0,0,1-2.967-.624,10.116,10.116,0,0,1-3.465-4.97c-1.14-2.907-1.569-5.988-2.331-9a59.4,59.4,0,0,0-2.814-8.44,43.086,43.086,0,0,0-8.848-13.787,22.3,22.3,0,0,0-12.374-6.723c-5.262-.757-10.43.942-14.828,3.782a37.666,37.666,0,0,0-3.955,2.963,35.024,35.024,0,0,0-4.023,3.9,39.14,39.14,0,0,0-4.935,7.6c-2.771,5.429-4.666,11.254-7.462,16.672a31.006,31.006,0,0,1-4.744,7.024,15.18,15.18,0,0,1-4.112,3.2c.206.419.428.833.674,1.241.227.377.478.743.717,1.116.267.354.522.717.8,1.055s.563.675.852,1c.2.228.4.479.59.7a1.175,1.175,0,0,1,.143-.231A6.908,6.908,0,0,0,18.53,63.584Z" transform="translate(1.006 0.943)" fill="#e0fe94"/><path d="M87.638,47.264a.079.079,0,0,1,0-.028c-.023.116-.047.232-.071.348C87.593,47.476,87.617,47.37,87.638,47.264Z" transform="translate(6.477 3.494)" fill="#e0fe94"/><path d="M17.9,55.725A31.012,31.012,0,0,0,22.64,48.7c2.8-5.416,4.689-11.244,7.462-16.672a39.14,39.14,0,0,1,4.935-7.6,35.029,35.029,0,0,1,4.027-3.9,37.669,37.669,0,0,1,3.955-2.963c4.4-2.841,9.565-4.54,14.828-3.782A22.3,22.3,0,0,1,70.22,20.5a43.081,43.081,0,0,1,8.848,13.787,59.4,59.4,0,0,1,2.813,8.44c.762,3.011,1.191,6.093,2.331,9a10.119,10.119,0,0,0,3.465,4.97,4.265,4.265,0,0,0,2.967.624,42.414,42.414,0,0,0,2.006-3.917q.141-.52.27-1.062c.034-.144.067-.292.1-.441l.022-.1q.091-.408.178-.827c.024-.116.047-.231.071-.348a18.451,18.451,0,0,0,.085-2.117c0-.322-.01-.644-.015-.964l-.042-.961c-.007-.637-.042-1.274-.009-1.909.078-1.088.185-2.567.289-4.022.017-.726.042-1.45.027-2.114s-.076-1.269-.149-1.757c-.138-.7-.3-1.41-.516-2.171-.247-.754-.466-1.578-.814-2.489a59.267,59.267,0,0,0-2.935-7.094A34.223,34.223,0,0,0,83.7,16.943a61.029,61.029,0,0,0-6.661-5.938,33.088,33.088,0,0,0-3.664-2.631c-1.242-.792-2.529-1.521-3.93-2.3C68,5.281,66.486,4.338,64.89,3.519a21.612,21.612,0,0,0-4.882-1.892,32.1,32.1,0,0,0-7.223-.362,35.371,35.371,0,0,0-8.32,1.06,1.324,1.324,0,0,1-.705.027c-.658.194-1.3.4-1.931.607a8.538,8.538,0,0,1-1.5.894c-.355.177-.727.343-1.07.491-.337.165-.65.305-.9.4-.885.375-1.857.57-2.787.89-.209.066-.42.131-.629.2L34.8,5.9q-.677.354-1.328.725-1.3.744-2.507,1.562c-.163.11-.319.226-.479.339-.226.214-.448.43-.669.647-.475.432-.874.953-1.324,1.406s-.906.89-1.353,1.343c-.4.373-.894.783-1.434,1.214l-1.6,1.434-.406.364-.372.386-.7.749c-.052.055-.1.11-.15.165-.509.662-1,1.341-1.481,2.044-.207.344-.412.7-.616,1.08l-1.151,2.354c-.783,1.791-1.816,3.978-3.124,7.082-.346.767-.653,1.5-.951,2.218s-.618,1.412-.9,2.14-.58,1.473-.892,2.266-.562,1.659-.867,2.6a27.039,27.039,0,0,0-.918,4.292c-.128.732-.145,1.483-.235,2.227l-.124,1.119q-.027.563-.055,1.127a21.528,21.528,0,0,0,1.255,8.733,27.825,27.825,0,0,0,1.368,3.409A15.181,15.181,0,0,0,17.9,55.725Z" transform="translate(0.822 0.091)" fill="#f8ffe5"/><path d="M70.052,61.449l-.012,0a1.289,1.289,0,0,1-.421.017H69.6l.062.012.133.025.12.016a.782.782,0,0,1,.043.159l.022.11.03.253.119,1.038c.072.678.135,1.276.161,1.523.03.369.055.7.082,1.016l-.084-4.132S70.2,61.476,70.052,61.449Z" transform="translate(5.147 4.545)"/><path d="M77.413,70.689a9.131,9.131,0,0,1-4.013.84l.552.079a3.178,3.178,0,0,0,.817-.036,9.793,9.793,0,0,0,1.4-.336c.217-.065.424-.136.627-.2.085-.029.226-.08.368-.137l.41-.165c.022-.081.047-.165.072-.246A.841.841,0,0,1,77.413,70.689Z" transform="translate(5.429 5.213)"/><path d="M53.034,32.913l.148.077c0-.031,0-.063,0-.094-.291-.119-.576-.228-.855-.331C52.546,32.668,52.792,32.788,53.034,32.913Z" transform="translate(3.87 2.409)"/><path d="M59.12,39.17c.155.382.368.708.552,1.071a17.274,17.274,0,0,1,.8,2.334c.13.49.262,1.044.39,1.631.055.123.11.25.17.381a29.155,29.155,0,0,0-.816-3.321,16.07,16.07,0,0,0-2.163-4.5c.015.239.029.479.042.717a10.341,10.341,0,0,1,.717,1.137C58.984,38.92,59.1,39.107,59.12,39.17Z" transform="translate(4.294 2.719)"/><path d="M82.009,58.858A9.618,9.618,0,0,1,79.9,60.071l-1.2.491-.612.233-.153.055-.1.035c-.038.018-.1.005-.076.106l.011.225c0,.03.012.091,0,.1l-.047.012-.191.046c-.093.024-.165.016-.221.081l-.324.178c-.024.74-.048,1.509-.073,2.294-.03.721-.061,1.458-.092,2.2-.04.849-.044,1.705-.05,2.562,0,.158-.006.316-.008.474a1.438,1.438,0,0,1,.7,1.021,2.9,2.9,0,0,1,.11.538c.024-.11.046-.211.063-.314.055-.317.11-.618.148-.9.086-.564.151-1.058.2-1.475.108-.835.17-1.365.179-1.522C78.182,66.127,78,64.374,78,64a10.217,10.217,0,0,1,.092-1.136l.073-.518a.46.46,0,0,1,.037-.153.894.894,0,0,1,.036-.084c.024-.015.029-.034.07-.017l.046.013h.014l.047-.016.188-.068a7.928,7.928,0,0,0,1.428-.767c.441-.279.944-.614,1.392-.914a6.3,6.3,0,0,0,1.184-1.042c.474-.594.487-.673.4-.731l-.012-.017C82.894,58.375,82.6,58.4,82.009,58.858Z" transform="translate(5.677 4.323)"/><path d="M50.591,32.151c-.087-.048-.174-.093-.262-.14A11.291,11.291,0,0,0,43.164,36.7,32.763,32.763,0,0,0,40.8,39.569a2.79,2.79,0,0,0-.647,1.162c0,.151-.009.3-.013.452a1.318,1.318,0,0,1,.013-.452c.006-.213.012-.426.018-.639q-.127.234-.242.454c-1.077,2.257-1.4,4.715-2.038,7.067-.156.577-.327,1.148-.538,1.707-.124.358-.269.708-.422,1.056-.772,1.759-1.846,3.415-2.623,5.1-.28.532-.693,1.434-1.052,2.3a13.851,13.851,0,0,0-.727,2.069c0,.115.028.177.081.2.14.055.447-.206.787-.717a11.607,11.607,0,0,0,.635-.982c.4-.679.772-1.33,1.116-2.066s.63-1.463.9-2.211c.375-1.117,1.109-2.083,1.518-3.177.657-1.936,1.248-3.889,1.909-5.811a31,31,0,0,1,2.39-5.535c.2-.386.452-.728.685-1.085l.772-1.092,1.5-2.166a6.258,6.258,0,0,1,2.667-2.1,5.286,5.286,0,0,1,2.679-.165A13.932,13.932,0,0,1,53.7,34.116C52.71,33.514,51.7,32.764,50.591,32.151Z" transform="translate(2.406 2.368)"/><path d="M16.989,64.121c.136.162.318.369.478.543a4.724,4.724,0,0,0,.568.434,5.375,5.375,0,0,0,1.4.6c-.149-.071-.3-.149-.441-.234a10.1,10.1,0,0,1-1.606-1.222,1.452,1.452,0,0,1,.11-.292c-.189-.221-.386-.473-.59-.7q-.434-.491-.852-1c-.28-.341-.537-.7-.8-1.055-.241-.373-.491-.739-.717-1.116-.246-.407-.467-.822-.674-1.241A27.815,27.815,0,0,1,12.5,55.426a21.525,21.525,0,0,1-1.253-8.736q.028-.565.055-1.127l.124-1.119c.09-.744.107-1.5.235-2.227a27.039,27.039,0,0,1,.918-4.292c.3-.942.558-1.806.867-2.6s.607-1.538.892-2.266.607-1.421.9-2.14.607-1.451.951-2.218c1.308-3.1,2.341-5.291,3.124-7.082l1.151-2.354c.2-.381.409-.735.616-1.08q.259-.429.521-.84a8.242,8.242,0,0,1,.959-1.2c.05-.055.1-.11.15-.165l.708-.751.372-.386.406-.364,1.6-1.434c.539-.43,1.032-.839,1.434-1.214.447-.453.916-.877,1.353-1.343s.846-.974,1.324-1.406c.221-.216.441-.433.669-.647.245-.233.493-.463.747-.687a11.01,11.01,0,0,1,1.606-1.094,8.692,8.692,0,0,1,2.1-.913c.21-.068.42-.134.629-.2.93-.32,1.9-.515,2.787-.89.25-.093.563-.232.9-.4.344-.148.717-.314,1.07-.491a8.531,8.531,0,0,0,1.5-.894c.041-.035.077-.068.11-.1.218-.312-.179-.386-.868-.192-.321.078-.631.147-.962.257a24.049,24.049,0,0,0-3.731,1.515c-.885.477-1.926.626-2.845,1.061a40.55,40.55,0,0,0-8.354,6.581c-.562.533-1.053,1.131-1.581,1.694a15.445,15.445,0,0,0-1.429,1.811c-.231.307-.52.634-.852,1.045l-1.153,1.512a42.329,42.329,0,0,0-3.4,5.458c-.182.361-.759,1.6-1.327,2.849-.521,1.263-1.042,2.526-1.195,2.9-.434,1.146-.51,2.41-.883,3.5a69.187,69.187,0,0,0-2.631,8.725c-.113.54-.183,1.064-.271,1.619-.014.18-.2,1.177-.367,2.723-.035.778-.126,1.69-.135,2.706a25.979,25.979,0,0,0,.213,3.31,11.7,11.7,0,0,0,.172,1.871,13.384,13.384,0,0,0,.723,2.123,19.221,19.221,0,0,0,.974,2.023,8.488,8.488,0,0,0,.52.913l.457.747.847,1.177c.143.177.285.353.433.533A25.023,25.023,0,0,0,16.07,63.1C16.393,63.451,16.723,63.787,16.989,64.121Z" transform="translate(0.743 0.182)"/><path d="M31.5,59.6a8.792,8.792,0,0,1-1.742.957c-.312.132-.632.255-.957.374a9.461,9.461,0,0,1-.96.31,6.952,6.952,0,0,1-3.42-.221,12.131,12.131,0,0,1-2.114.74c-.11.027-.224.047-.338.069.11,0,.217-.01.317-.017l.32-.024c.015.006.041.01.055.015.028.02.019.025.065.05l.207.1c.117.055.193.084.237.1s.079.024.127.038a7.6,7.6,0,0,0,.99.177c.478.063.96.075,1.129.1a6.98,6.98,0,0,0,3.107.061c.031-.009.06-.014.093-.024a13.069,13.069,0,0,0,2.427-1.447,4.743,4.743,0,0,0,1.03-.9c.4-.534.4-.607.31-.666a.166.166,0,0,0-.015-.02C32.263,59.213,31.992,59.223,31.5,59.6Z" transform="translate(1.625 4.384)"/><path d="M42.232,2.417A35.37,35.37,0,0,1,50.553,1.36a31.909,31.909,0,0,1,7.223.362,21.611,21.611,0,0,1,4.882,1.892c1.6.819,3.11,1.761,4.551,2.559,1.4.776,2.687,1.5,3.93,2.3A33.079,33.079,0,0,1,74.8,11.1a61.022,61.022,0,0,1,6.661,5.938,34.222,34.222,0,0,1,5.517,8.094,59.249,59.249,0,0,1,2.935,7.094c.348.911.568,1.736.814,2.489.214.761.377,1.468.516,2.171.074.49.119,1.094.15,1.757s-.009,1.388-.026,2.114c-.1,1.454-.211,2.934-.289,4.022-.033.635,0,1.269.009,1.909l.043.961c.005.32.011.643.015.964a18.476,18.476,0,0,1-.085,2.117.078.078,0,0,1,0,.028,11.285,11.285,0,0,1-.216,1.3c-.031.139-.055.279-.091.416A8.153,8.153,0,0,1,90.42,53.5a42.443,42.443,0,0,1-2.006,3.917c-.055.11-.116.221-.169.334-.244.467-.577,1.219-.9,1.931a11.837,11.837,0,0,0-.707,1.726c0,.107.027.166.079.191.133.063.421-.124.756-.528a6.6,6.6,0,0,0,.623-.8,15.248,15.248,0,0,0,1.781-3.661c.308-.963.962-1.8,1.26-2.778.012-.044.02-.088.032-.132a41.079,41.079,0,0,0,1.177-10.426,31.459,31.459,0,0,0-.285-4.6c-.077-.522-.11-1.154-.191-1.981-.036-.374-.079-.784-.142-1.249a32.964,32.964,0,0,0-1.395-6.3,12.078,12.078,0,0,0-.415-1.149c-.221-.526-.441-1.184-.752-1.806s-.575-1.263-.854-1.765-.493-.895-.591-1.074a7.2,7.2,0,0,0-1.131-1.48l-.607-.683a7.591,7.591,0,0,1-.591-.668,69.584,69.584,0,0,0-6.023-6.848c-.4-.381-.82-.7-1.21-1.1a58.415,58.415,0,0,0-6.785-5.453c-.491-.343-.935-.794-1.466-1.135-.268-.146-1.1-.612-1.964-1.009-.855-.421-1.741-.776-2.02-.914-.7-.31-1.26-.552-1.752-.753l-1.338-.527L61.515,2.3c-.483-.165-1.033-.338-1.715-.552A44.047,44.047,0,0,0,50.825,0c-.336-.035-1.841.3-2.165.311-1.1.11-1.833-.11-2.948.075a5.132,5.132,0,0,0-.673.153c-.221.074-.437.165-.654.254a13.255,13.255,0,0,1-1.292.486,10.9,10.9,0,0,0-1.2.485c-.559.3-.607.34-.557.441a.246.246,0,0,0,.195.237A1.324,1.324,0,0,0,42.232,2.417Z" transform="translate(3.056 0)"/><path d="M60.8,48.8c-.1-1.57-.868-6.625-.868-6.625s.4.819.926,1.978c-.129-.587-.26-1.141-.39-1.631a17.282,17.282,0,0,0-.8-2.334c-.184-.363-.4-.689-.552-1.071-.024-.062-.139-.249-.309-.552a10.351,10.351,0,0,0-.717-1.137q.055,1.043.077,2.086a12.785,12.785,0,0,1,1.629,3.6,36.883,36.883,0,0,1,.845,7.036c.081,1.209.165,2.251.264,3.169l.079.7a3.513,3.513,0,0,0,.11.362l.1.3a8.089,8.089,0,0,0,.4.955A20.694,20.694,0,0,1,60.8,48.8Z" transform="translate(4.297 2.768)"/><path d="M70.323,61.564l.012,0a15.356,15.356,0,0,1-2.548-.7,11.748,11.748,0,0,1-2.02-.929A7.524,7.524,0,0,0,67.4,61.068a6.2,6.2,0,0,0,2.135.5l.337.015H69.9A1.288,1.288,0,0,0,70.323,61.564Z" transform="translate(4.864 4.433)"/><path d="M53.53,32.727c-.342-.159-.626-.282-.745-.349-.51-.221-.91-.414-1.269-.557l-.975-.376-.968-.323c-.36-.09-.76-.221-1.272-.323a15.435,15.435,0,0,0-6.712-.055,12.144,12.144,0,0,0-1.4.84,16.826,16.826,0,0,0-2.019.844,12.062,12.062,0,0,0-1.39,1.485,5.817,5.817,0,0,0-.6.7c-.115.183-.178.264-.159.3.055.026.036.083.031.129-.017.093-.067.213.133.248a.733.733,0,0,0,.534-.189,27.382,27.382,0,0,1,2.332-1.652c.084-.4.286-.7.671-.739,1.288-1.264,5.193-2.417,6.85-1.922A38.861,38.861,0,0,0,51.066,31.9c-.331.078-.662.153-.993.233.088.046.175.092.262.14,1.112.613,2.119,1.363,3.109,1.966l.017.011c.361.234.717.45,1.061.672-.02-.366-.049-.731-.065-1.1-.03-.226-.05-.449-.065-.672l-.148-.077C54,32.947,53.752,32.828,53.53,32.727Z" transform="translate(2.664 2.249)"/><path d="M22.35,62.041c.11-.022.227-.043.338-.069a12.13,12.13,0,0,0,2.114-.74,5.677,5.677,0,0,0,1.78-1.3c.477-.514.943-1,1.421-1.5a3.627,3.627,0,0,0,.587-.861c.145-.282.276-.536.416-.779a1.474,1.474,0,0,0-.2-.325l-.583.124-.11.026a7.638,7.638,0,0,1-.468.984,3.178,3.178,0,0,1-.57.613c-.424.367-.78.638-.938.8a3.468,3.468,0,0,1-.521.463,2.4,2.4,0,0,1-.3.2,5.427,5.427,0,0,1-.679.39,7.242,7.242,0,0,1-2.38.7c-.252.016-.515-.1-.772-.1-.124.006-.512.065-.914.082a5.484,5.484,0,0,1-.938-.029,5.936,5.936,0,0,1-1.351-.368,6.91,6.91,0,0,1-1.149-.622,1.18,1.18,0,0,0-.143.231,1.453,1.453,0,0,0-.11.292,10.093,10.093,0,0,0,1.607,1.22,4.377,4.377,0,0,0,.441.234l.037.018a4.779,4.779,0,0,0,1.423.423A6.211,6.211,0,0,0,22.35,62.041Z" transform="translate(1.249 4.176)"/><path d="M39.615,40.581c0-.15.008-.3.013-.452A1.317,1.317,0,0,0,39.615,40.581Z" transform="translate(2.929 2.968)" fill="#070706"/><path d="M40.333,39.67A33.577,33.577,0,0,1,42.7,36.8a11.272,11.272,0,0,1,7.164-4.689c.331-.079.662-.155.993-.233a38.858,38.858,0,0,1-4.489-1.111c-1.655-.5-5.562.658-6.85,1.922-.386.036-.588.343-.671.739a3.164,3.164,0,0,0,.189,1.717,11.074,11.074,0,0,1,.668,5.045q-.009.32-.018.639A2.789,2.789,0,0,1,40.333,39.67Z" transform="translate(2.87 2.267)" fill="#070706"/><path d="M77.23,68.448A2.417,2.417,0,0,0,76.1,68.08a24.492,24.492,0,0,0-3.352.04c-.062,1.026-.106,1.747-.106,1.747l-2.241-.2-.007-.336a1.732,1.732,0,0,0,.686,2.026,8.964,8.964,0,0,0,2.544.354,9.133,9.133,0,0,0,4.013-.84.844.844,0,0,0,.232-.206.891.891,0,0,0,.165-.655,2.9,2.9,0,0,0-.11-.538,1.439,1.439,0,0,0-.7-1.021Z" transform="translate(5.199 5.032)" fill="#070706"/><path d="M73.423,71.8s.044-.721.106-1.747c.15-2.472.4-6.726.4-7.014,0-.408-5.094-3.26-7.131-5.807a20.1,20.1,0,0,1-3.972-8.018A42.144,42.144,0,0,0,60.9,44.21l-.17-.381c-.524-1.158-.926-1.978-.926-1.978s.763,5.055.868,6.625a20.691,20.691,0,0,0,.8,6.844,9.133,9.133,0,0,0,1.141,2.372,11.967,11.967,0,0,0,3.591,3.586,11.734,11.734,0,0,0,2.02.928,15.357,15.357,0,0,0,2.548.7c.146.027.231.041.231.041l.084,4.132.084,4.193.007.336Z" transform="translate(4.423 3.095)"/><path d="M58.736,77.113c-.287-.464-.552-.965-.862-1.419a1.831,1.831,0,0,1-.261-1.368c.613-7.591,1.725-15.19,1.233-22.839-.067-3.744.1-7.491.019-11.231q-.023-1.043-.077-2.086c-.013-.239-.027-.479-.042-.717-.061-.938-.136-1.87-.252-2.8-.412-2.221-.806-6.422-3.232-7.146-.615-.1-1.389,0-1.434,1.357a4.567,4.567,0,0,0-.409,2.779c0,.552,0,1.092.032,1.632a.6.6,0,0,0,0,.094c.015.221.035.446.065.672.016.366.044.732.065,1.1.2,3.591.574,7.168.938,10.746.079,2.682.5,5.311.432,7.991-.016,3.648-.281,7.29-.419,10.937-.234,3.33-.027,6.74-.317,10.04-.693,1.421-2.6,1.145-3.8,1.781a7.621,7.621,0,0,0-1.575.952c-.012.011-.025.019-.036.03-.471.619.241.383.657.4a44.02,44.02,0,0,1,6.311.211,10.87,10.87,0,0,0,1.82-.082c.645-.034,1.067-.009,1.152-.492A1.711,1.711,0,0,0,58.736,77.113Z" transform="translate(3.598 2.032)"/><path d="M117.041,74.28c-.411-.036-.8-.076-1.239-.086-1.66-.077-3.334-.052-5.025-.012-1.257.055-2.494-.313-3.743-.339-1.04.009-2.081.029-3.123.055-2.767.064-5.539.149-8.308.163-.585,0-1.17.012-1.754.007-1.918.006-3.83-.045-5.737.036-1.909.013-4.839-.256-12.01-.347-1-.013-6.811.043-7.81.043-1.528,0-3.039.4-4.487.416-.5.005-.984.009-1.465.011-.085.483-.507.458-1.152.492a10.882,10.882,0,0,1-1.821.082,44.082,44.082,0,0,0-6.311-.211c-.416-.018-1.128.221-.657-.4.011-.012.025-.019.036-.03H52.4c-.687.01-1.346.063-2.044.039-.451,0-5.035,0-10.884-.01-.749,0-1.518-.154-2.3-.147-.486,0-2.3.1-3.738.179-.8.042-1.487.077-1.765.084-3.484.089-4.459.092-7.337.087h-.841c-2.342,0-4.492-.078-6.284-.165-2.811-.14-4.732-.318-5.067-.324-.407-.007-2.277.221-2.683.221A11.13,11.13,0,0,1,8.2,74.04a21.767,21.767,0,0,0-2.353-.231c-1.122-.02-2.272.286-3.391.312-.607,0-1.06.1-1.614.143-.776.137-.851.165-.827.276-.078.19.154.419,1.016.444,3.446.135,7.046.221,10.744.276,3.025.044,6.115-.4,9.238-.393,4.2.014,9.106.726,13.35.717,4.12-.01,7.582-.273,11.593-.263,3.882.009,7.679-.351,11.327-.315,5.012.05,8.272.268,12.549.3,8.546.073,12.334-.547,15.943-.614,2.5-.047,7.192.589,10,.626,3.26.017,6.478-.834,9.746-.754,2.461,0,4.933.659,7.388.686a20.319,20.319,0,0,0,5.09-.492C118.381,74.536,117.933,74.334,117.041,74.28Z" transform="translate(0 5.455)"/><path d="M52.323,4.475l.407.242.076.046a24.746,24.746,0,0,1,3.912.463c.284.044.56.073.844.145a41,41,0,0,1,4.406,1.176c.3.1.578.276.887.38l1.088.351,1.086.4c.73.321,1.176.512,1.591.736s.822.434,1.464.82A16.163,16.163,0,0,1,71.7,12.288c.123.114.762.575.883.7.4.411.552.768.943,1.2.319.349.765.6,1.1.927a5.1,5.1,0,0,0,.532.436c.281.184.313.2.343.149.09-.044.1-.2-.147-.46-.979-1.068-1.95-2.239-3.081-3.338a21.37,21.37,0,0,0-3.18-2.3,29.832,29.832,0,0,0-4.849-2.958A36.881,36.881,0,0,0,59.5,5.245a37.731,37.731,0,0,0-4.75-.74c-.809-.09-1.512-.17-2.181-.186A1.014,1.014,0,0,0,52.323,4.475Z" transform="translate(3.87 0.319)"/><path d="M19.114,55.3l.239-.588.045-.11a53.544,53.544,0,0,1,.3-5.674c.039-.411.055-.808.11-1.225a55.791,55.791,0,0,1,1.184-6.437c.11-.437.3-.864.419-1.32.055-.218.226-.907.4-1.6s.375-1.379.452-1.6c.348-1.092.6-1.741.84-2.372s.5-1.238.963-2.21a29.412,29.412,0,0,1,3.586-5.789c.139-.2.705-1.171.858-1.362.507-.652.938-.963,1.482-1.583.441-.505.791-1.118,1.237-1.624.251-.268.4-.5.613-.758.273-.386.294-.429.244-.456-.036-.1-.216-.077-.584.292a38.787,38.787,0,0,0-4.279,4.921,36.85,36.85,0,0,0-2.715,4.91A46.394,46.394,0,0,0,21.148,38.1a55.769,55.769,0,0,0-1.5,6.886,57.782,57.782,0,0,0-.578,6.848c-.068,1.161-.09,2.168-.11,3.115A1.68,1.68,0,0,0,19.114,55.3Z" transform="translate(1.402 1.519)"/><path d="M54.354,26.056A3.333,3.333,0,0,1,53.7,25.7l-.116-.077c-.785-.228-1.545-.509-2.256-.723s-1.384-.386-1.986-.507a15.9,15.9,0,0,0-1.582-.229c-.445-.027-.795-.05-1.033-.055-.517.034-1.015.044-1.537.1a16.143,16.143,0,0,0-2.524.488,18.848,18.848,0,0,0-5.009,2.456c-.447.335-.953.621-1.421.978a6.888,6.888,0,0,0-.6.527c-.268.251-.6.544-.9.868-.631.622-1.2,1.3-1.4,1.514a29.1,29.1,0,0,0-1.912,2.452,28.589,28.589,0,0,0-1.591,2.514,39.885,39.885,0,0,0-3.285,7.784c-.081.295-.281,1.679-.328,1.977-.2,1-.441,1.61-.6,2.627-.129.827-.077,1.694-.169,2.513-.06.441-.055.778-.11,1.17-.064.552-.118.506-.062.555.02.055.063.081.175-.008a1.2,1.2,0,0,0,.268-.611c.252-1.269.386-2.558.615-3.862s.479-2.62.812-3.936A33.518,33.518,0,0,1,29.2,37.749a21.613,21.613,0,0,1,2.637-4.116,35.568,35.568,0,0,1,3.335-3.556,19.9,19.9,0,0,1,6.968-4.607,18.407,18.407,0,0,1,2.011-.583,15.968,15.968,0,0,1,2.054-.263,13,13,0,0,1,4.04.386c1.373.343,2.479.839,3.636,1.149A2,2,0,0,0,54.354,26.056Z" transform="translate(1.867 1.783)"/><path d="M72.166,35.354a2.915,2.915,0,0,1,.264-.431,5.061,5.061,0,0,1,.733-.759c.3-.31.892-.7,1.048-.842a4.415,4.415,0,0,1,.709-.466,6.144,6.144,0,0,1,.827-.391,6.6,6.6,0,0,1,.9-.216l.471-.052c.14-.01.264,0,.377.005a3.069,3.069,0,0,1,.589.049,4.922,4.922,0,0,1,1.379.386,3.461,3.461,0,0,1,.519.3c.165.11.34.205.5.322a4.183,4.183,0,0,1,1.109,1.135,1.646,1.646,0,0,1,.195.34c.137.247.117.418-.055.391-.288-.1-.782-.785-1.08-1.054a4.454,4.454,0,0,0-1.3-.868,3.555,3.555,0,0,0-1.007-.371l-.47-.065c-.17-.018-.362-.006-.6-.017A4.977,4.977,0,0,0,75,33.488a9.753,9.753,0,0,0-2.483,2.078c-.179.185-.327.158-.4.074C72.068,35.612,72.068,35.586,72.166,35.354Z" transform="translate(5.332 2.381)"/><path d="M81.645,37.939c.019-.013.035,0,.055.009a.787.787,0,0,1,.116.033,1.305,1.305,0,0,1,.216.11.815.815,0,0,1,.254.31,1.148,1.148,0,0,1,.077.713.619.619,0,0,1-.036.091.932.932,0,0,1-.06.131.571.571,0,0,1-.2.173.782.782,0,0,1-.214.087.569.569,0,0,1-.11.013.58.58,0,0,1-.11.015A.409.409,0,0,1,81.5,39.6a.482.482,0,0,1-.146-.119c-.043-.05-.089-.1-.129-.151a.992.992,0,0,1-.11-.145.321.321,0,0,1-.011-.046c-.006-.017-.018-.026-.024-.042a.878.878,0,0,1-.024-.121,1,1,0,0,1-.035-.268,1.547,1.547,0,0,1,.063-.379.793.793,0,0,1,.09-.174.9.9,0,0,1,.051-.083.228.228,0,0,1,.067-.043.387.387,0,0,1,.159-.065.342.342,0,0,0,.084-.006.3.3,0,0,1,.095-.022C81.633,37.941,81.629,37.946,81.645,37.939Z" transform="translate(5.992 2.805)"/><path d="M72.136,39.608c.019-.013.035,0,.055.009a.806.806,0,0,1,.116.033,1.353,1.353,0,0,1,.216.11.818.818,0,0,1,.254.31,1.145,1.145,0,0,1,.077.713.6.6,0,0,1-.035.09.979.979,0,0,1-.06.131.568.568,0,0,1-.2.173.771.771,0,0,1-.214.087.537.537,0,0,1-.11.013.546.546,0,0,1-.11.015.411.411,0,0,1-.141-.026.491.491,0,0,1-.146-.12c-.043-.05-.089-.1-.129-.151a1.065,1.065,0,0,1-.11-.145.338.338,0,0,1-.011-.046c-.006-.016-.018-.025-.024-.042a.788.788,0,0,1-.023-.121.975.975,0,0,1-.035-.268,1.543,1.543,0,0,1,.063-.38.777.777,0,0,1,.094-.172.9.9,0,0,1,.051-.084.234.234,0,0,1,.067-.043.383.383,0,0,1,.159-.064.336.336,0,0,0,.084-.006.293.293,0,0,1,.095-.023C72.123,39.609,72.119,39.614,72.136,39.608Z" transform="translate(5.289 2.929)"/></g></g></svg>