<svg xmlns="http://www.w3.org/2000/svg" width="156" height="156" viewBox="0 0 156 156"><g transform="translate(-858 -237)"><circle cx="78" cy="78" r="78" transform="translate(858 237)" fill="#dad9f7" opacity="0.92"/><g transform="translate(873.419 251.134)"><path d="M95.791,96.078a3.064,3.064,0,0,1-1.179.238c-.017.2-.04.5-.069.977-.041.657-.122,2.114-.081,2.682a7.325,7.325,0,0,0,.345,1.167,12.514,12.514,0,0,0,.9,2.056c.212.4.358.821.446,1,.121.253.182.438.015.464-.553.085-1.636.3-1.846.634a.538.538,0,0,0-.1.449c.866.074,1.723.139,2.523.142s1.583-.066,2.366-.125c-.234-.489-.756-1.552-1.348-2.569a21.12,21.12,0,0,1-1.068-2.527,4.344,4.344,0,0,1,.081-1.978c.564-3.3.326-3.508.326-3.508a.867.867,0,0,0-.023-.094A3.4,3.4,0,0,1,95.791,96.078Z" transform="translate(-4.458 -4.499)"/><path d="M49.077,81.205a3.28,3.28,0,0,0,0,.392c.007.055.032.1.039.157a1.506,1.506,0,0,0,.006.186,1.01,1.01,0,0,1,.024.148,13.467,13.467,0,0,1,1.673.631,28.365,28.365,0,0,1,3.329,1.989c.716.459,1.466.859,2.215,1.275.373.209.745.422,1.107.652l.227.15L56.06,83a.2.2,0,0,1-.048.13c-.128.016-.265.022-.4.038l-.319-.069-.305-.071c-.142-.032-.284-.063-.421-.1-.279-.071-.555-.146-.826-.232-1.619-.513-3.172-1.066-4.663-1.632C49.077,81.108,49.077,81.155,49.077,81.205Z" transform="translate(-2.322 -3.836)" fill="#b2b0ff"/><path d="M46.415,84.307a1.571,1.571,0,0,0,.883-.872A3.137,3.137,0,0,0,47.539,82a6.657,6.657,0,0,0-.252-1.471,3.671,3.671,0,0,0-.675-1.3,2.5,2.5,0,0,0-1.049-.817,1.246,1.246,0,0,0-1.309.149,2.321,2.321,0,0,0-.715,1.536,3.4,3.4,0,0,0,.154,1.242c.115.4.268.773.395,1.15a6.165,6.165,0,0,0,.6,1.3,1.752,1.752,0,0,0,1,.793.312.312,0,0,1,.246.154,1.373,1.373,0,0,0,.5-.184c-.035-.015-.072-.03-.1-.047A1.723,1.723,0,0,1,46.415,84.307Z" transform="translate(-2.06 -3.705)" fill="#faf7ff"/><path d="M64.654,73.079c-.269.333-.552.693-.9,1.1a15.355,15.355,0,0,1-1.034,1.157,5.934,5.934,0,0,1-1.3.963l-.387.2a.616.616,0,0,1,.2,0c.581.1.361,1.156.265,1.515a9.436,9.436,0,0,0-.434,1.681,2.978,2.978,0,0,0,.231,1.314,8.8,8.8,0,0,0,1.428,2.118,3.14,3.14,0,0,1,.806,3.713,24.008,24.008,0,0,0,2.5-1.406c.511-.324,1.082-.686,1.706-1.142.311-.229.64-.476.964-.765a6.132,6.132,0,0,0,.477-.46,3.166,3.166,0,0,0,.215-.255c.016-.022.035-.044.049-.065l.018-.028c.008-.016.023-.032.022-.05l-.12-.333c-.776-2.08-1.327-3.695-2.337-6.1-.372-.875-.805-1.745-1.269-2.611l-.355-.646a1.183,1.183,0,0,0-.457-.318,1.645,1.645,0,0,0-.158-.061,3.132,3.132,0,0,1-.176.264A.757.757,0,0,1,64.654,73.079Z" transform="translate(-2.888 -3.435)" fill="#faf7ff"/><path d="M57.994,86.515l.133.092.106.079c.039.024.05.072.076.107l.173.292.156.278c.078.147.2.4.2.408a.23.23,0,0,0,.047.024l.028.01.063.012a1.979,1.979,0,0,0,.3.031,6.372,6.372,0,0,0,1.366-.117,10.918,10.918,0,0,0,2.436-.721l.152-.071a3.14,3.14,0,0,0-.806-3.712,8.806,8.806,0,0,1-1.428-2.118,2.98,2.98,0,0,1-.231-1.314,9.435,9.435,0,0,1,.434-1.681c.1-.36.316-1.411-.265-1.515a.616.616,0,0,0-.2,0,16.845,16.845,0,0,1-2.54,1.164,12.243,12.243,0,0,1-2.854.409.5.5,0,0,1-.114-.28,12.457,12.457,0,0,0,2.069-.537c.2-.061,1.182-.51,1.367-.591s.417-.078.606-.152l.14-.057c.05-.227.125-.562.183-.793a2.784,2.784,0,0,0-.1-.971l-.055.031c-.418.247-.866.528-1.333.8s-.994.542-1.511.806a13.538,13.538,0,0,0-1.5.848,2.786,2.786,0,0,0-.321.255,1.4,1.4,0,0,0-.139.142.756.756,0,0,0-.079.09.044.044,0,0,0-.011.054l.014.058c0,.027.036.118.057.182l.14.416c.19.552.386,1.089.591,1.6.195.486.409.961.618,1.439l.078.18.085.2a3.881,3.881,0,0,1,.173.51,1.008,1.008,0,0,1,.027.231c0,.022,0,.044,0,.066l1.637,3.785Z" transform="translate(-2.58 -3.539)" fill="#b2b0ff"/><path d="M28.515,101.768a4.616,4.616,0,0,0-1.9-1.991,5.357,5.357,0,0,0-1.226-.54c-.346-.1-.7-.17-1.047-.261a1.981,1.981,0,0,1-.955-.393c-.085-.1-.032-.213.068-.321-.215.014-.438.031-.68.057-.133.014-.265.032-.4.054l0,.019a.7.7,0,0,1-.07-.006c-.8.136-1.618.384-2.467.508a13.3,13.3,0,0,0-2.863.809c-.5.19-1.057.351-1.611.572a5.506,5.506,0,0,0-1.526.826,3.96,3.96,0,0,0-.759.936c-.2.343-.372.691-.563,1.017a5.12,5.12,0,0,0-.706,2.574.345.345,0,0,1-.04.192c.155.009.3.012.426.01,1.3-.035,2.66-.353,5.734-.315,1.538.018,2.711.131,4.515.156,1.312.018,2.678-.167,4.074-.162.89,0,1.706-.048,2.548-.088A7.886,7.886,0,0,0,28.515,101.768Z" transform="translate(-0.557 -4.65)" fill="#b2b0ff"/><path d="M34.453,103.027c-.023-.063-.045-.126-.069-.189a12.712,12.712,0,0,0-.623-1.369q-.115-.131-.239-.254c-.3-.314-.633-.58-.887-.9-.223-.272-.49-.664-.823-1.007a3.23,3.23,0,0,0-1.049-.723,5.9,5.9,0,0,0-1.584-.269c-.643-.045-1.437-.075-2.544-.1-.9-.009-1.647-.027-2.605.037-.1.108-.153.222-.068.321a1.981,1.981,0,0,0,.955.393c.348.091.7.164,1.047.261a5.359,5.359,0,0,1,1.226.54,4.616,4.616,0,0,1,1.9,1.991,7.867,7.867,0,0,1,.551,3.651c.522-.025,1.055-.046,1.622-.048,1.252,0,2.661.239,3.963.331-.02-.091-.042-.186-.064-.278a3.335,3.335,0,0,1-.563-1.215A8.123,8.123,0,0,1,34.453,103.027Z" transform="translate(-1.132 -4.647)" fill="#faf7ff"/><path d="M71.35,76.59c0,.177-.085.344-.095.51-.023.309-.05.6-.08.865a.472.472,0,0,1,.217.082c.684.52,2.357,2.217,3.029,2.664s3.156,2.246,3.83,2.246a27.3,27.3,0,0,0,3.256.251c.39-.028,1.782,0,3.081.039-.147-.353-.3-.722-.471-1.124-.188-.467-.389-.938-.59-1.415-.326.005-.633.008-.9.008-1.572,0-3.7-.112-3.7-.112s-4.943-2.526-6.392-3.842c-.256-.232.049-.569-.88-1.105a1.331,1.331,0,0,0-.473-.136c.028.121.065.286.094.453A4.87,4.87,0,0,1,71.35,76.59Z" transform="translate(-3.368 -3.574)"/><path d="M70.113,75.757c-.144.224.014.121-.13.6a1.585,1.585,0,0,0-.032.666s-.016.65.212.764a1.377,1.377,0,0,0,.364.121A15.888,15.888,0,0,0,70.489,76c-.009-.147-.013-.3-.015-.453A.576.576,0,0,0,70.113,75.757Z" transform="translate(-3.309 -3.575)"/><path d="M92.4,105.545c-.087-.458-.309-1.632-.593-3.214-.146-.814-.487-2.1-.572-2.89a6.364,6.364,0,0,1,.836-2.908c.165-.3.329-.579.487-.837-.033-.022-.066-.042-.1-.065a5.038,5.038,0,0,1-.855-.787,12.192,12.192,0,0,1-1-1.375c-.218.653-.479,1.445-.721,2.236a16.538,16.538,0,0,0-.614,2.831,3.394,3.394,0,0,0-.017.778,19.475,19.475,0,0,0,.493,2.859c.117.518.211,1.243.264,1.477.066.29.12.961-.053,1-.584.134-1.8.127-2.053.468a1.877,1.877,0,0,0-.234.4c.852-.033,1.71-.067,2.642-.07C90.977,105.446,91.682,105.489,92.4,105.545Z" transform="translate(-4.148 -4.423)"/><path d="M93.392,106.268c-.506-.043-1.014-.088-1.518-.128-.714-.056-1.42-.1-2.087-.1-.932,0-1.791.036-2.642.07-.876.034-1.746.069-2.68.066-1.782,0-3.526.18-5.2.162-.88-.01-1.643-.032-2.36-.057a1.177,1.177,0,0,0-.267.164l.444.245.085.046c2.08-.006,3.758.054,4.337.036.315-.006.618-.032.939-.021.207,0,2.312,0,5,.006.344,0,.7.079,1.057.075s2.169-.125,2.527-.134c1.747-.05,2.116-.048,3.756-.045,2.761.006,4.96.248,5.212.252.187,0,1.045-.113,1.232-.113.632,0,1.024.148,1.659.161.514.01,1.042-.148,1.557-.161a7.127,7.127,0,0,0,.74-.073c.356-.07.392-.085.379-.142.036-.1-.071-.215-.466-.228-1.582-.07-3.235-.113-4.933-.142-.619-.01-1.245.03-1.874.077-.783.058-1.572.127-2.366.124S94.258,106.344,93.392,106.268Z" transform="translate(-3.626 -5.018)"/><path d="M76.227,51.006q.1.545.194,1.094Q76.321,51.55,76.227,51.006Z" transform="translate(-3.607 -2.413)" fill="#b2b0ff"/><path d="M100.226,44.73c.017-.626.034-1.268.051-1.929a5.987,5.987,0,0,0-.079.771A7.574,7.574,0,0,0,100.226,44.73Z" transform="translate(-4.741 -2.025)" fill="#b2b0ff"/><path d="M99.62,36.872c-.056.012-.07-.025-.138-.394-.021-.263-.071-.477-.073-.765-.015-.532-.187-1.07-.2-1.595a15.727,15.727,0,0,0,.006-1.7,4.987,4.987,0,0,0-.164-.6c-.074-.255-.177-.492-.194-.583a5.226,5.226,0,0,0-.546-1.525,2.649,2.649,0,0,0-.193-.295,1.732,1.732,0,0,0-.235-.28,2.378,2.378,0,0,0-.686-.442,7.343,7.343,0,0,0-1.9-.535,14.124,14.124,0,0,0-1.884-.177c-.265,0-.535-.006-.845.017s-.684.057-1.145.068a10.03,10.03,0,0,1-1.345-.03c-.091-.008-.181-.012-.269-.015a12.506,12.506,0,0,0-3.393,2.785,6.67,6.67,0,0,0-1.423,5.766,15.845,15.845,0,0,0,1.408,3.6,16.91,16.91,0,0,1,1.5,3.523c.738,3.024-.971,5.957-1.717,8.809-.69,2.638.417,5.332,1.066,7.98a30.587,30.587,0,0,0,1.3,3.917,35.636,35.636,0,0,1,1.08,4.414c.706,2.741-.026,5.546-.077,8.345a29.261,29.261,0,0,0,.184,4.3,11.61,11.61,0,0,0,1.154,3.659,10.479,10.479,0,0,1,1.3,3.544,6.308,6.308,0,0,1-.4,2.733,4.682,4.682,0,0,0,.987.722,3.35,3.35,0,0,0,2.388.337,2.286,2.286,0,0,0,1.008-.55,3.206,3.206,0,0,0,.672-.963,5.027,5.027,0,0,0,.641-1.316c.11-.493.2-.986.287-1.477a7.019,7.019,0,0,1-.727-1.653c0-.744.507-1.326,1-1.176A2.8,2.8,0,0,1,98,84.866c0-.456-.147-.929-.125-1.384.028-.56.182-.9.2-1.463,0-.165-.1-.93-.09-1.1.01-.223.294-2.17.357-4.622.036-1.456.048-1.785.037-3.336,0-.317-.083-1.938-.078-2.247s.091-.631.1-.935c.07-2.384.126-4.253.131-4.437.021-.283,0-.554,0-.834,0-.587.135-2.44.177-4.647.011-.591-.173-1.213-.152-1.836.011-.407.077-2.775.088-3.184.149-2.921.329-4.109.348-4.888-.015-.778.038-1.556.061-2.338.081-1.79.023-3.59.06-5.376.028-.51.233-1.007.222-1.52,0-.691,0-1.371.064-2.046.01-.177.034-.337.056-.5.03-.3.11-.467.2-.434.006-.3.01-.583.013-.861A.1.1,0,0,1,99.62,36.872Z" transform="translate(-4.014 -1.324)" fill="#b2b0ff"/><path d="M100,52.726q.022-.731.044-1.482c-.031.29-.052.556-.055.779S99.99,52.485,100,52.726Z" transform="translate(-4.731 -2.425)" fill="#b2b0ff"/><path d="M98.8,88.717c-.057.007-.07-.024-.132-.344-.006-.072-.014-.142-.023-.207-.491-.15-1,.432-1,1.176a7.021,7.021,0,0,0,.727,1.653c.03-.168.06-.337.092-.5s.066-.328.1-.492c.064-.355.181-.529.281-.363a5.094,5.094,0,0,1-.035,2.109c-.006.028-.016.057-.023.085a5.545,5.545,0,0,1,.42,1.07c.248.6.334,1.758.714,2.8s.438,1.97.877,2.167c.537.24,1.239-.153,1.083-.751-.214-.732-.509-2.825-.71-3.574-.454-1.7-.113-1.42-.967-3.009a12.03,12.03,0,0,1-.683-1.136,4.756,4.756,0,0,0-.46-.891c-.014-.02-.028-.036-.043-.054C98.979,88.688,98.88,88.749,98.8,88.717Z" transform="translate(-4.62 -4.171)"/><path d="M76.388,51.853c-.039-.285-.1-.567-.161-.847q.094.545.194,1.094C76.409,52.017,76.4,51.935,76.388,51.853Z" transform="translate(-3.607 -2.413)" fill="#faf7ff"/><path d="M77.817,57.812a6.028,6.028,0,0,1,.212.626c.111.442.369.863.464,1.308.116.548.057.92.193,1.463.039.161.346.865.385,1.026a28.019,28.019,0,0,0,1.113,4.48c.478,1.37.635,1.662,1.2,3.117.117.3.742,1.8.83,2.1s.116.629.205.921c.678,2.292,1.237,4.066,1.3,4.237.079.273.188.519.288.778s.294.85.588,1.6.7,1.677,1.193,2.665c.261.53.716.992.994,1.546.173.368,1.289,2.444,1.488,2.8l1.515,2.859a8.663,8.663,0,0,0,.859,1.355c.223.244.452.485.693.708a6.305,6.305,0,0,0,.4-2.733,10.512,10.512,0,0,0-1.3-3.544,11.608,11.608,0,0,1-1.154-3.659,29.27,29.27,0,0,1-.184-4.3c.05-2.8.782-5.6.077-8.345a35.632,35.632,0,0,0-1.08-4.414,30.588,30.588,0,0,1-1.3-3.917c-.649-2.647-1.756-5.342-1.066-7.98.747-2.852,2.455-5.785,1.717-8.809a16.861,16.861,0,0,0-1.5-3.523,15.844,15.844,0,0,1-1.408-3.6,6.671,6.671,0,0,1,1.423-5.766,12.507,12.507,0,0,1,3.393-2.785,8.217,8.217,0,0,0-.988.039c-.3.019-.6,0-.894.011l-.044.057-.078.026-.411.133a.862.862,0,0,1-.007-.167c-1.248.135-2.357.243-3.186.361-.909.124-1.487.252-1.592.27a7.915,7.915,0,0,0-.926.252,12.862,12.862,0,0,0-1.84.68,9.473,9.473,0,0,0-2.706,1.954,6.057,6.057,0,0,0-1.038,1.732,3.1,3.1,0,0,0-.217.593,4.034,4.034,0,0,0-.114,1.022c0,.38.031.777.048,1.115s.031.6.037.719c.057,1.716.015,2.931-.01,3.815a16.408,16.408,0,0,0,.026,1.9c.12.892.212,1.794.341,2.7.277,2.071.71,4.131,1.072,6.182.085.588,0,1.2.131,1.785.162.789.319,1.569.432,2.352.035.2.05.392.071.587a1.588,1.588,0,0,1,.013.4c.075.345.149.691.227,1.036C77.727,57.618,77.763,57.692,77.817,57.812Z" transform="translate(-3.564 -1.326)" fill="#faf7ff"/><path d="M17.926,106.641c.55,0,1.093-.2,1.614-.213,1.947-.031,3.584.05,4.1.029.247-.006.484-.032.736-.02.162,0,1.811,0,3.915,0,.269,0,.546.079.828.075s1.7-.125,1.979-.135c1.369-.05,1.658-.047,2.943-.044a40.322,40.322,0,0,1,4.083.252c.147,0,.819-.113.965-.113.495,0,.8.148,1.3.16.4.01.817-.147,1.221-.16a4.406,4.406,0,0,0,.58-.073c.279-.07.306-.085.3-.142.028-.1-.055-.215-.365-.228-1.239-.07-2.535-.113-3.864-.142-1.088-.023-2.2.207-3.322.2-.272,0-.553-.016-.838-.036-1.3-.092-2.711-.335-3.963-.331-.568,0-1.1.023-1.623.048-.842.04-1.657.091-2.547.088-1.4-.006-2.762.18-4.074.161-1.8-.026-2.975-.137-4.515-.156-3.074-.037-4.436.281-5.734.315-.127,0-.272,0-.426-.01a.174.174,0,0,1-.065.073.181.181,0,0,1-.094.027c-.046.011-.065,0-.124-.12-.914-.078-2.1-.277-2.889-.292-1.172-.009-2.33.429-3.505.388-.885,0-1.774-.339-2.657-.353a5.2,5.2,0,0,0-1.831.253c-.138.113.023.216.343.244a4.445,4.445,0,0,0,.446.044q.9.049,1.806.008c.452-.029.9.161,1.346.174,1.576-.019,3.162-.135,4.742-.113.69,0,1.377.023,2.063-.019.687-.007,1.74.131,4.32.178C15.478,106.669,17.567,106.639,17.926,106.641Z" transform="translate(0 -5.003)"/><path d="M24.9,98.118c-.053-.021-.048-.057.07-.377l.021-.046-.011,0c-.78.083-1.49.15-2.038.2l.014.019-.008.069c-.014.113-.028.229-.042.342.133-.021.266-.04.4-.054.242-.024.464-.041.68-.057.957-.064,1.7-.046,2.605-.037,1.107.02,1.9.05,2.544.1a5.9,5.9,0,0,1,1.584.269,3.23,3.23,0,0,1,1.049.723c.334.344.6.737.823,1.007.256.317.587.582.887.9.082.081.162.167.239.254a2.8,2.8,0,0,1,.511.8,2.544,2.544,0,0,1,.182.757,8.122,8.122,0,0,0,.146,1.179,3.335,3.335,0,0,0,.563,1.215s.008.01.012.012c.133.074.209-.063.182-.3a2.039,2.039,0,0,0-.035-.332,6.514,6.514,0,0,0-.366-1.293c-.132-.309-.07-.686-.184-1.008a10.11,10.11,0,0,0-2.009-2.987,4.249,4.249,0,0,0-1.3-.932c-.235-.121-.524-.293-1-.5a8.19,8.19,0,0,0-2.121-.565c-.136-.018-.6-.061-1.065-.069s-.925,0-1.06.007a2.247,2.247,0,0,0-.639.138c-.069.1-.136.211-.206.312C25.113,98.178,24.96,98.2,24.9,98.118Z" transform="translate(-1.084 -4.609)"/><path d="M11.587,105.9a.172.172,0,0,0,.094-.026.175.175,0,0,0,.065-.073.342.342,0,0,0,.04-.192,5.122,5.122,0,0,1,.706-2.574c.191-.327.359-.674.563-1.017a3.937,3.937,0,0,1,.759-.935,5.484,5.484,0,0,1,1.526-.826c.554-.222,1.113-.383,1.611-.572a13.3,13.3,0,0,1,2.862-.812c.848-.124,1.662-.372,2.467-.508a.8.8,0,0,1-.157-.031l-.227-.36c-.213.024-.378.045-.48.064-.18.031-.349.082-.534.1l-.9.131c-.5.074-1.2.17-1.963.349-.2.046-.417.023-.622.086a7,7,0,0,0-.687.3c-.29.142-.57.3-.662.35-.454.239-.717.4-.973.557s-.5.309-.9.582a9.773,9.773,0,0,0-2.256,2.131,5.618,5.618,0,0,0-.218.726,6.387,6.387,0,0,0-.448.93,3.706,3.706,0,0,0,.068.975,1.476,1.476,0,0,0,.1.445l.04.087C11.522,105.9,11.541,105.916,11.587,105.9Z" transform="translate(-0.532 -4.636)"/><path d="M88.075,28.039c.3-.013.6.008.894-.011a8.236,8.236,0,0,1,.988-.039c.088,0,.178.007.269.015a10.047,10.047,0,0,0,1.345.03c.461-.011.831-.047,1.145-.068s.58-.02.845-.017a14.093,14.093,0,0,1,1.884.177,7.339,7.339,0,0,1,1.9.535,2.376,2.376,0,0,1,.686.442,1.734,1.734,0,0,1,.235.28,2.674,2.674,0,0,1,.193.3,5.228,5.228,0,0,1,.546,1.525c.017.092.12.329.194.583a5,5,0,0,1,.163.6,15.936,15.936,0,0,1-.006,1.7c.014.525.187,1.063.2,1.595,0,.288.052.5.073.765.068.368.082.406.138.394a.1.1,0,0,0,.054,0c.083-.016.165-.149.178-.486.037-.822.056-1.666.03-2.529a13.067,13.067,0,0,0-.312-2.637,4.6,4.6,0,0,0-1.041-2.02l-.2-.208a2.759,2.759,0,0,0-.234-.194,2.821,2.821,0,0,0-.516-.28,7.685,7.685,0,0,0-1.079-.358,21.881,21.881,0,0,0-3.163-.615c-.278-.03-.557-.054-.843-.06l-.8-.024a13.4,13.4,0,0,1-1.494-.142,6.455,6.455,0,0,0-1.511-.021c-.065.006-.127.016-.191.023Z" transform="translate(-4.168 -1.289)"/><path d="M77.421,56.108c-.021-.2-.036-.383-.071-.587-.112-.783-.27-1.562-.432-2.352-.132-.584-.046-1.2-.131-1.785-.362-2.051-.8-4.111-1.072-6.183-.128-.9-.22-1.8-.341-2.7a16.4,16.4,0,0,1-.026-1.9c.025-.884.066-2.1.01-3.815-.006-.12-.02-.383-.037-.719s-.049-.735-.048-1.115a4.034,4.034,0,0,1,.114-1.022,3.113,3.113,0,0,1,.217-.593,6.091,6.091,0,0,1,1.038-1.732,9.475,9.475,0,0,1,2.706-1.954,12.849,12.849,0,0,1,1.84-.68,7.9,7.9,0,0,1,.926-.252c.105-.018.683-.146,1.592-.27.83-.118,1.938-.227,3.186-.361a.944.944,0,0,1,.008-.1q.251-.3.516-.623l-.588.085c-.886.133-1.772.25-2.73.368h0c.084.2.052.3-.023.314-.036.042-.073.017-.335-.263a14.945,14.945,0,0,0-4.858,1.558,11.22,11.22,0,0,0-2.587,1.844,7.067,7.067,0,0,0-.973,1.077,4.358,4.358,0,0,0-.687,1.4,5.024,5.024,0,0,0-.142,1.505c.019.457.057.861.085,1.244.068.763.127,1.42.18,2.007.111,1.169.193,2.052.246,2.91.053,1.185.028,3.452.209,4.783.179,1.255.65,2.451.934,3.685.064.28.122.562.161.847.014.082.022.164.033.247.138,1.082.037,2.21.223,3.285a8.43,8.43,0,0,0,.71,2.336c.088.094.144.047.163-.1A1.593,1.593,0,0,0,77.421,56.108Z" transform="translate(-3.524 -1.295)"/><path d="M84.89,82.465c.546,1.307.979,2.344,1.586,3.584A28.726,28.726,0,0,0,88.5,89.526c.571.835,1.022,1.447,1.448,2.048.057.079.117.17.179.262a12.173,12.173,0,0,0,1,1.375,5.036,5.036,0,0,0,.855.787c.033.023.066.043.1.065a3.444,3.444,0,0,0,.834.412,2.991,2.991,0,0,0,.915.133A3.065,3.065,0,0,0,95,94.37a3.4,3.4,0,0,0,1.29-.987c.079-.094.155-.19.227-.288a8.371,8.371,0,0,0,1.319-2.647c.007-.028.016-.057.023-.085a5.092,5.092,0,0,0,.035-2.109c-.1-.166-.217.008-.281.363-.035.163-.075.318-.1.492s-.062.337-.092.5c-.089.492-.176.984-.287,1.477a5,5,0,0,1-.641,1.316,3.2,3.2,0,0,1-.672.963,2.285,2.285,0,0,1-1.008.55,3.349,3.349,0,0,1-2.389-.337,4.688,4.688,0,0,1-.987-.722c-.241-.223-.47-.464-.693-.708a8.653,8.653,0,0,1-.859-1.355l-1.515-2.859c-.2-.355-1.316-2.431-1.488-2.8-.277-.555-.732-1.016-.994-1.546-.487-.989-.9-1.914-1.193-2.665s-.48-1.33-.588-1.6-.21-.505-.288-.778c-.066-.17-.625-1.945-1.3-4.237-.089-.292-.1-.616-.205-.921s-.714-1.8-.831-2.1c-.561-1.455-.717-1.747-1.2-3.117a28.029,28.029,0,0,1-1.113-4.48c-.04-.16-.346-.865-.385-1.026-.135-.543-.077-.915-.193-1.463-.095-.445-.353-.865-.464-1.308a6.027,6.027,0,0,0-.212-.626c-.055-.119-.09-.193-.117-.239-.039-.068-.06-.074-.091-.06-.1-.011-.2.106-.136.453.227,1.39.522,2.834.886,4.3.3,1.2.874,2.354,1.268,3.566.264.816.493,1.725.744,2.628s.464,1.8.736,2.613c.524,1.584,1.043,2.9,1.518,4.471a29.539,29.539,0,0,0,1.1,2.913c.2.477.4.948.59,1.415C84.589,81.743,84.742,82.112,84.89,82.465Z" transform="translate(-3.67 -2.79)"/><path d="M100.112,38.656c-.023.167-.048.327-.056.5-.057.675-.061,1.356-.064,2.046.012.513-.193,1.011-.222,1.52-.037,1.785.021,3.587-.06,5.376-.023.781-.076,1.558-.061,2.338-.02.778-.2,1.967-.348,4.888-.011.409-.077,2.777-.088,3.184-.022.623.163,1.245.152,1.836-.042,2.207-.181,4.06-.177,4.647,0,.28.016.55,0,.834-.005.184-.06,2.052-.131,4.437-.009.305-.1.617-.1.935s.074,1.929.078,2.247c.012,1.552,0,1.88-.037,3.336-.063,2.452-.347,4.4-.357,4.622-.007.166.094.931.09,1.1-.017.56-.17.9-.2,1.463-.022.455.123.928.125,1.384a2.8,2.8,0,0,0,.034.453c.009.067.017.135.023.207.062.319.076.351.132.344.082.032.181-.028.223-.264a1.167,1.167,0,0,0,.016-.138c.1-1.4.194-2.876.252-4.381.05-1.233-.154-2.5-.118-3.769.046-1.713.461-3.7.5-5.432.039-1.679-.059-3.093-.007-4.728.05-1.581-.089-3.134-.023-4.621.091-2.04.248-3.366.326-5.108a53.164,53.164,0,0,0-.079-5.8c-.008-.241-.013-.473-.011-.7s.024-.489.055-.779c.111-1.036.36-2.392.4-3.287a22.262,22.262,0,0,0-.232-2.827,7.829,7.829,0,0,1-.029-1.158,6.155,6.155,0,0,1,.08-.771,19.6,19.6,0,0,0,.366-2.229,6.61,6.61,0,0,0-.2-2.082.126.126,0,0,0-.059-.05C100.222,38.19,100.143,38.36,100.112,38.656Z" transform="translate(-4.662 -1.808)"/><path d="M22.4,97.92a.8.8,0,0,0,.157.031c.023,0,.047.006.07.007l0-.019c.014-.113.028-.228.042-.342l.008-.069-.014-.019c-.727-1.015-1.247-1.88-1.459-2.157a5.677,5.677,0,0,1-.337-.458c-.07-.1-.787-1.158-1.668-2.526-.114-.175-.163-.4-.284-.578s-.812-1.042-.934-1.218a3.887,3.887,0,0,1-.259-.437c-.033-.066-.063-.129-.087-.189q-.028-.063-.049-.129a.446.446,0,0,1-.022-.248.13.13,0,0,1,.09-.088.5.5,0,0,1,.145,0,.823.823,0,0,1,.137.036.624.624,0,0,1,.089.036,1.154,1.154,0,0,1,.13.068,2.839,2.839,0,0,1,.8.775,6.093,6.093,0,0,1,.5.811c.254.491.381.84.417.905.055.1.41.485.463.585.18.335.163.612.328.956.135.28.421.492.576.764a2.585,2.585,0,0,0,.273.366c.163.16.186.172.232.139.1-.026.17-.139.071-.356-.127-.294-.26-.6-.4-.9l-.032.263a1.227,1.227,0,0,1-.252-.2l-.726-2.077a11,11,0,0,0-1.573-1.8,5.42,5.42,0,0,0-.458-.411,2.244,2.244,0,0,0-.284-.185l-.193-.082-.208-.054a.555.555,0,0,0-.407.068.538.538,0,0,0-.184.371,1.416,1.416,0,0,0,.047.5c.036.142.06.239.1.353a3.876,3.876,0,0,0,.27.623c.1.184.2.362.3.528.622.97,1.263,1.706,1.879,2.641.6.905,1.348,1.676,1.914,2.522.2.3.383.581.551.845C22.248,97.682,22.325,97.8,22.4,97.92Z" transform="translate(-0.809 -4.216)"/><path d="M21.408,93.445l.032-.263.031-.255.012-.1c-.781-2.013-1.294-3.677-1.5-4.24-.112-.307-.233-.6-.325-.917-.032-.1-.22-.671-.478-1.552a31.47,31.47,0,0,1-.823-3.433c-.062-.348-.03-.715-.075-1.077l-.041-.363c-.01-.085-.025-.17-.028-.257s-.009-.193-.01-.3c0-.2,0-.416.02-.6a2.955,2.955,0,0,1,.065-.414.163.163,0,0,1,.125-.125.257.257,0,0,1,.091,0,.723.723,0,0,1,.379.242.932.932,0,0,1,.131.188c.039.071.074.142.108.212.134.283.239.532.339.778.2.492.363.983.632,1.793A39.964,39.964,0,0,1,21.411,88c.049.187.389,1.017.436,1.2.16.635.118,1.065.26,1.706.116.521.395,1.017.528,1.534.066.283.162.482.244.733.151.345.173.377.225.353.1.015.194-.119.115-.523-.039-.213-.082-.43-.123-.645l-.06.166a1.425,1.425,0,0,1-.192-.295c-.035-.533-.072-1.092-.116-1.69q-.272-1.262-.6-2.556c-.354-1.406-.992-2.76-1.44-4.18-.268-.84-.486-1.75-.741-2.686a13.978,13.978,0,0,0-.461-1.4,1.451,1.451,0,0,0-.635-.7.984.984,0,0,0-.635-.1.719.719,0,0,0-.493.377c-.027.057-.048.117-.071.176l-.032.085-.017.057c-.023.076-.039.147-.057.219-.028.142-.049.28-.064.416a6.445,6.445,0,0,0-.032.774c.017.272.041.5.07.74.066.472.154.925.256,1.371.2.892.453,1.757.713,2.684.5,1.8,1.273,3.457,1.85,5.1l.085.242.726,2.075A1.225,1.225,0,0,0,21.408,93.445Z" transform="translate(-0.826 -3.734)"/><path d="M25.426,94.189c.093.052.223-.06.279-.519.015-.12.026-.243.04-.363l-.009.01-.331.356a1.026,1.026,0,0,1-.082-.2c0,.087.005.175,0,.268C25.358,94.156,25.369,94.2,25.426,94.189Z" transform="translate(-1.198 -4.415)"/><path d="M23.247,92.4l.06-.166.135-.373.037-.1c-.236-2.412-.331-4.364-.4-5.036-.034-.366-.085-.715-.1-1.089-.01-.24-.2-2.684-.264-5.806-.01-.4.071-.8.054-1.24a12.612,12.612,0,0,1-.075-1.417c.03-.305.078-.442.231-.449.124-.022.263.117.325.182a3.93,3.93,0,0,1,.6,1.048c.135.323.233.609.323.892A20.727,20.727,0,0,1,24.7,80.9a24.391,24.391,0,0,1,.449,4.085c.032,1.074-.007,1.783,0,1.928.011.215.15,1.2.15,1.421,0,.732-.149,1.184-.187,1.914-.03.593.091,1.21.061,1.806a3.8,3.8,0,0,0-.008.447c.173-.636.356-1.312.568-2.089.026-.094.046-.192.071-.286.057-1,.078-2.012.053-3.045a40.077,40.077,0,0,0-.674-4.922c-.177-1.115-.337-2.327-.616-3.542a7.288,7.288,0,0,0-.63-1.807,2.036,2.036,0,0,0-.325-.445.917.917,0,0,0-.12-.108l-.068-.052-.093-.053a.873.873,0,0,0-.411-.105.824.824,0,0,0-.717.374l-.1.182a.965.965,0,0,0-.054.148,1.882,1.882,0,0,0-.061.27,4.7,4.7,0,0,0-.028.893c.017.265.034.526.051.783.022.5.043,1.022.074,1.523l.183,3.086c.1,2.081.446,4.1.6,6.044.028.37.054.718.079,1.056.043.6.081,1.158.116,1.69A1.422,1.422,0,0,0,23.247,92.4Z" transform="translate(-1.038 -3.599)"/><path d="M25.3,92.8l-.018.068c.006.028.015.053.023.079a1.034,1.034,0,0,0,.082.2l.331-.356.009-.01.054-.057c.439-1.9.931-3.414,1.051-3.948.072-.289.12-.572.211-.861l.379-1.435c.1-.407.225-.886.351-1.42A8.329,8.329,0,0,1,28.2,83.4a.831.831,0,0,1,.551-.437.117.117,0,0,1,.126.014.2.2,0,0,1,.045.05.986.986,0,0,1,.062.12,1.837,1.837,0,0,1,.1.314,4.671,4.671,0,0,1,.085.689c.016.211.028.379.035.462,0,.407,0,.735-.012,1.02s-.037.529-.053.77-.062.475-.1.747-.1.574-.17.952a15.322,15.322,0,0,1-1.026,3.155c-.352.793-.635,1.292-.684,1.4-.036.079-.107.313-.178.549a5.583,5.583,0,0,1-.191.545,3.633,3.633,0,0,1-.409.661,7.165,7.165,0,0,0-.432.647,4.147,4.147,0,0,0-.288.67,5.443,5.443,0,0,1-.291.672c-.122.21-.188.386-.28.583l-.021.046c-.118.321-.123.357-.07.377.064.082.217.06.426-.252.07-.1.137-.209.206-.312a25.682,25.682,0,0,0,2.107-3.767A24.031,24.031,0,0,0,28.86,89.2c.227-.885.509-1.84.71-2.828l.132-.745c.039-.249.061-.5.088-.748s.032-.5.038-.741l0-.364a2.977,2.977,0,0,0-.032-.39,2.633,2.633,0,0,0-.085-.386,1.557,1.557,0,0,0-.19-.42.9.9,0,0,0-.486-.372.7.7,0,0,0-.3-.02.521.521,0,0,0-.15.024l-.129.043a1.443,1.443,0,0,0-.671.534,2.373,2.373,0,0,0-.308.668,10.656,10.656,0,0,0-.24,1.252c-.067.387-.167.806-.27,1.222-.39,1.523-.653,3.053-1.028,4.5-.024.095-.045.192-.071.286C25.659,91.484,25.475,92.16,25.3,92.8Z" transform="translate(-1.181 -3.888)"/><path d="M89.669,22.136l-.456.46a1.759,1.759,0,0,1-.013-.4l.2-.446-.011.018c-.213.356-.28.8-.469,1.168a4.639,4.639,0,0,0-.225.552c-.079.282-.081.312-.028.332.07.073.216.057.383-.212.681-1.072,1.349-2.215,2.088-3.34.3-.459.568-.949.86-1.428a5.841,5.841,0,0,1,1.04-1.328,2.715,2.715,0,0,1,1-.578,1.2,1.2,0,0,1,.483-.045.149.149,0,0,1,.115.094.235.235,0,0,1-.015.146c-.015.028-.043.1-.085.188s-.085.167-.133.249c-.1.166-.207.329-.32.484l-.359.469q-.182.241-.346.482c-.85,1.249-1.47,2.365-2.334,3.559-.835,1.154-1.513,2.386-2.334,3.446-.237.3-.459.582-.673.845q-.266.326-.516.623a.938.938,0,0,0-.008.1.862.862,0,0,0,.007.167l.411-.133L88,27.589l.044-.057q.3-.394.576-.749c.724-.935,1.3-1.65,1.5-1.952.146-.207.268-.418.43-.619.1-.133,1.1-1.493,2.338-3.255.158-.227.385-.413.546-.652s.883-1.5,1.035-1.749a5.732,5.732,0,0,0,.411-.808,1.957,1.957,0,0,0,.176-.733.492.492,0,0,0-.133-.366.512.512,0,0,0-.4-.118,1.561,1.561,0,0,0-.439.069,2.332,2.332,0,0,0-.443.183,5.658,5.658,0,0,0-1.27.988c-.35.345-.644.677-.892.963-.332.385-.579.686-.725.869-.3.735-.637,1.56-1,2.444Z" transform="translate(-4.141 -0.782)"/><path d="M87.22,20.206l-.312.64c-.014-.033-.024-.069-.036-.1-.062.294-.085.544-.135.833-.047.482-.044.532.014.53.083.07.233-.042.372-.556.577-2.053,1.177-4.2,1.84-6.379.541-1.785.9-3.674,1.536-5.5.214-.613.463-1.244.73-1.881l.415-.96c.142-.312.3-.63.458-.941s.323-.623.493-.916c.042-.073.085-.145.128-.207a.842.842,0,0,1,.125-.154,1.168,1.168,0,0,1,.312-.232.588.588,0,0,1,.29-.071c.028.006.02.017.021.025s.039.107.055.164.035.136.05.208c.028.145.052.295.07.446a8.644,8.644,0,0,1,.059.881c0,.117-.015.285-.021.425s-.015.29-.028.435c-.057.579-.133,1.147-.231,1.712a27.578,27.578,0,0,1-.827,3.429c-.7,2.28-1.347,4.544-2.189,6.638-.373.917-.717,1.722-1.051,2.476-.066.15-.133.3-.2.446a1.764,1.764,0,0,0,.013.4l.456-.46.085-.088c.365-.884.7-1.708,1-2.444.578-1.423,1.005-2.506,1.168-3,.144-.4.252-.8.408-1.2.046-.132.309-.868.672-2.012a39.109,39.109,0,0,0,1.175-4.5c.09-.459.234-.927.288-1.42.006-.12.018-.367.033-.678a7.306,7.306,0,0,0-.091-1.08,3.721,3.721,0,0,0-.3-1.077.6.6,0,0,0-.454-.342.91.91,0,0,0-.35.012,1.752,1.752,0,0,0-1.154,1.088c-.178.379-.315.7-.45,1.027-.275.642-.507,1.287-.88,2.323-1.269,3.5-2.321,6.29-2.422,6.615-.077.242-.282,1.388-.347,1.632-.152.542-.325.935-.491,1.376-.074.719-.155,1.5-.238,2.318Z" transform="translate(-4.103 -0.174)"/><path d="M83.947,13.852A54.448,54.448,0,0,1,84.4,7.513a22.4,22.4,0,0,1,1.282-4.386,9.455,9.455,0,0,1,1.046-1.995c.2-.279.467-.487.588-.46.1,0,.068,0,.107.043a.847.847,0,0,1,.111.318,4.78,4.78,0,0,1,.055.943q-.016.512-.032,1.01c0,.67.007,1.324.01,1.976,0,1.3-.02,2.583-.1,3.963-.153,2.669-.188,5.3-.443,7.8-.135,1.318-.272,2.456-.407,3.526a2.221,2.221,0,0,0,.085.312c.012.035.022.071.036.1l.312-.64.059-.122c.083-.822.163-1.6.238-2.318.208-2.005.369-3.538.4-4.18.035-.474.04-.93.09-1.411.016-.312.287-3.472.38-7.52.014-.512.089-1.063.105-1.579,0-.126.014-.395.016-.74A6.168,6.168,0,0,0,88.261.947a1.544,1.544,0,0,0-.286-.664.831.831,0,0,0-.148-.142,1.378,1.378,0,0,0-.183-.1C87.579.026,87.514.013,87.451,0a.728.728,0,0,0-.17.005.944.944,0,0,0-.522.209,1.678,1.678,0,0,0-.246.229,3.749,3.749,0,0,0-.525.785c-.129.248-.232.478-.322.694-.179.432-.308.807-.431,1.178-.24.744-.454,1.473-.734,2.681-.465,2.037-.731,3.891-.937,5.278s-.29,2.316-.3,2.506c-.025.283.062,1.587.062,1.868-.006.687-.079,1.19-.111,1.776.213.781.469,1.747.747,2.828A59.274,59.274,0,0,1,83.947,13.852Z" transform="translate(-3.937 0)"/><path d="M83.686,22.373c.125.528.145.578.2.554.1.043.2-.13.155-.721,0-.063-.008-.127-.012-.19l-.048.252a1.533,1.533,0,0,1-.235-.28c-.1-.474-.213-.967-.341-1.486.042.255.081.51.105.763C83.548,21.686,83.62,21.994,83.686,22.373Z" transform="translate(-3.946 -0.97)"/><path d="M84.239,27.209c.075-.014.107-.11.023-.314a1.885,1.885,0,0,0-.155-.289,44.2,44.2,0,0,1-2.857-5.288,33.009,33.009,0,0,1-2-4.763,17.536,17.536,0,0,1-.546-3.68q-.01-.476-.021-.95c0-.315.015-.629.017-.938s.028-.615.043-.916q.011-.227.021-.448a3.814,3.814,0,0,1,.043-.4,1.677,1.677,0,0,1,.2-.613c.043-.061.068-.075.078-.08s.043-.015.157.02a1.3,1.3,0,0,1,.826.855,9.142,9.142,0,0,1,.417,1.475c.129.545.284,1.056.426,1.609.572,2.117,1.374,4.109,1.909,6.09.126.465.237.9.341,1.319.127.519.24,1.012.341,1.486a1.537,1.537,0,0,0,.235.28l.048-.253.064-.335.02-.113c-.048-.19-.1-.375-.142-.558-.278-1.081-.535-2.047-.747-2.828-.223-.82-.4-1.436-.5-1.757-.114-.368-.243-.718-.341-1.1-.034-.122-.227-.8-.524-1.848-.144-.523-.312-1.14-.48-1.822a9.338,9.338,0,0,0-.649-2.281,2.8,2.8,0,0,0-.433-.6,1.529,1.529,0,0,0-.7-.386.592.592,0,0,0-.138-.024.7.7,0,0,0-.215,0,.845.845,0,0,0-.5.267,1.9,1.9,0,0,0-.4,1.033,3.97,3.97,0,0,0-.031.523c0,.162.008.317.011.458,0,.281.009.505.011.616.033.54.047.974.085,1.35s.075.7.11,1.013l.148.982c.054.357.145.755.24,1.252a41.509,41.509,0,0,0,1.17,4.22c.36,1.089.626,1.8.692,1.946.047.106.211.387.375.668s.346.55.4.652c.173.35.291.646.413.941a6.848,6.848,0,0,0,.433.935,6.472,6.472,0,0,0,.555.793,9.626,9.626,0,0,1,.591.765,8.11,8.11,0,0,0,.568.72l.042.044C84.166,27.226,84.2,27.251,84.239,27.209Z" transform="translate(-3.694 -0.367)"/><path d="M56.808,86.493l.344.255.3.227a.116.116,0,0,1,.02.028l.052.092.105.188.209.376.1.189.076.139c.028.052.065.094.1.142a.9.9,0,0,0,.323.125.948.948,0,0,0,.147.026c.042,0,.085.012.124.013a5.64,5.64,0,0,0,1.58-.194,10.471,10.471,0,0,0,1.451-.482c.473-.179,1.082-.382,1.993-.763.457-.188.987-.421,1.612-.726A19.927,19.927,0,0,0,67.5,84.921a11.4,11.4,0,0,0,.991-.734,6.974,6.974,0,0,0,.648-.606,3.869,3.869,0,0,0,.29-.347c.023-.03.044-.058.067-.093a1.653,1.653,0,0,0,.1-.158,2.375,2.375,0,0,0,.131-.307l-.151-.417-.081-.214-.136-.352-.017-.044-.028.1-.057.027-.293.137a.732.732,0,0,1-.124-.165c.083-.229.164-.471.242-.739-.293-.641-.7-1.222-.962-1.835-1.1-2.6-2-4.806-2.352-5.479-.159-.324-.334-.623-.489-.957l-.034-.067-.006-.009a.2.2,0,0,1-.251-.036c-.045-.031-.049-.052.021-.227a1.972,1.972,0,0,0-.2-.148A2.172,2.172,0,0,0,64.247,72a1.047,1.047,0,0,0-.2-.039.633.633,0,0,0-.252.022c-.048.012-.075.026-.1.034l-.085.03-.174.062a36.443,36.443,0,0,0-3.644,1.461c-.356.17-.754.289-1.118.493-.179.1-.694.441-1.212.776l-1.216.778a13.714,13.714,0,0,0-1.822,1.251,3.929,3.929,0,0,0-.326.33c-.046.064-.1.124-.157.215s-.121.177-.083.278c.072.224.14.365.212.549l.242.59c.341.83.643,1.619.882,2.325l.166.513.037.123.018.07.024.113a.376.376,0,0,1,.006.179.8.8,0,0,1-.18-.063c-.043-.018-.078-.034-.109-.049l-.022-.011-.062-.022-.127-.044-.426-.153-.45-.163c-.2-.062-1.167-.234-1.369-.3-.683-.218-1.063-.494-1.743-.73-.552-.193-1.171-.234-1.728-.41-.3-.1-.539-.132-.821-.2a2.646,2.646,0,0,0-.393-.05q.019.062.036.123l.055.028a1.657,1.657,0,0,0,.241.085c.19.051.383.094.568.159,0,.021-.007.03.179-.009a.523.523,0,0,0-.071.29c1.491.567,3.046,1.12,4.663,1.632.271.087.547.161.826.232.139.036.28.067.421.1l.305.071.319.069c.134-.016.271-.022.4-.038a.2.2,0,0,0,.048-.13c0-.022,0-.044,0-.066a1,1,0,0,0-.027-.231,3.9,3.9,0,0,0-.173-.51l-.085-.2-.078-.18c-.21-.478-.424-.954-.618-1.439-.2-.51-.4-1.046-.591-1.6l-.14-.416c-.021-.064-.052-.155-.057-.182l-.014-.058a.044.044,0,0,1,0-.029.045.045,0,0,1,.015-.025.773.773,0,0,1,.079-.09,1.412,1.412,0,0,1,.139-.142,2.787,2.787,0,0,1,.321-.255,13.5,13.5,0,0,1,1.5-.848c.518-.264,1.03-.528,1.511-.806s.915-.548,1.333-.8l.054-.031c-.066-.3-.137-.537-.137-.537s3.35-1.319,4.107-1.6,1.18-.425,1.086-.094a.7.7,0,0,1-.064.133,1.616,1.616,0,0,1,.158.061,1.183,1.183,0,0,1,.457.318l.355.646c.464.866.9,1.736,1.269,2.611,1.01,2.408,1.562,4.024,2.337,6.1l.12.333c0,.018-.014.034-.022.05l-.018.028c-.013.022-.033.044-.049.065a3.159,3.159,0,0,1-.215.255,6.116,6.116,0,0,1-.477.46c-.324.288-.653.535-.964.765-.625.456-1.2.817-1.706,1.142a24.017,24.017,0,0,1-2.5,1.406l-.152.071a10.918,10.918,0,0,1-2.436.721,6.37,6.37,0,0,1-1.366.117,1.97,1.97,0,0,1-.3-.031l-.063-.012-.028-.01a.226.226,0,0,1-.047-.024c0-.011-.124-.261-.2-.408l-.156-.278L58,86.659c-.026-.035-.037-.083-.076-.107l-.106-.079-.133-.092-.041-.027-.227-.15c-.361-.23-.733-.443-1.107-.652-.749-.415-1.5-.816-2.215-1.275a28.36,28.36,0,0,0-3.325-1.99,13.473,13.473,0,0,0-1.673-.63c0,.01,0,.018,0,.028,0,.045.038.094.032.135-.072.036-.178-.115-.234-.147a2.59,2.59,0,0,0-.256-.085c-.133-.059-.267-.083-.394-.127,0,.071,0,.142,0,.213a2.107,2.107,0,0,0,.341.208c.19.1.369.2.577.3.78.382,1.587.719,2.406,1.052a5.31,5.31,0,0,1,.868.457c.267.17.523.355.8.513A32.088,32.088,0,0,1,56.114,86Q56.462,86.241,56.808,86.493Z" transform="translate(-2.272 -3.405)"/><path d="M65.822,72.61a.2.2,0,0,0,.251.036.284.284,0,0,0,.064-.04,2.3,2.3,0,0,1,2.009-.349,5.167,5.167,0,0,1,.856.287,2.005,2.005,0,0,1,.767.592,2.667,2.667,0,0,1,.467,1.308c.035.31.037.617.042.913,0,.155.006.307.015.453a15.884,15.884,0,0,1,.036,1.907c-.01.174-.024.349-.048.531A22.093,22.093,0,0,1,70,80.672c-.028.111-.058.216-.088.319-.078.268-.159.51-.242.739a.731.731,0,0,0,.124.165l.293-.137.057-.027.028-.1c.243-.907.441-1.638.473-1.9a4.393,4.393,0,0,1,.06-.445c.011-.075.121-.662.214-1.5.028-.266.057-.556.08-.865.01-.165.1-.333.094-.51a4.868,4.868,0,0,0-.076-.615c-.028-.167-.066-.333-.094-.453-.016-.07-.028-.125-.036-.156a6.845,6.845,0,0,0-.251-.9,5.109,5.109,0,0,0-.365-.822,4.878,4.878,0,0,0-1.114-1.379A2.751,2.751,0,0,0,68.4,71.6a2.754,2.754,0,0,0-.67.013,3.121,3.121,0,0,0-.909-.057c-.29.069-.5.338-.712.5a1.108,1.108,0,0,0-.258.31l0,.012C65.773,72.559,65.776,72.578,65.822,72.61Z" transform="translate(-3.113 -3.385)"/><path d="M42.162,79.525a4.675,4.675,0,0,0-.818.14c-.206.046-.389.163-.591.215a5.034,5.034,0,0,1-.524.184c-.172.062-.194.1-.369.157-.1.014-.3.091-.312.236.007.094.069.159.138.156a.3.3,0,0,0,.1,0,1,1,0,0,0,.356-.1.72.72,0,0,1,.26-.085,3.594,3.594,0,0,1,.616-.206,2.092,2.092,0,0,0,.393-.137l.085-.027a1.07,1.07,0,0,1,.1-.049,2.139,2.139,0,0,1,.305-.065,1.177,1.177,0,0,0,.237-.055c.042-.009.066-.054.1-.08.043-.065.047-.077.038-.121C42.263,79.613,42.228,79.523,42.162,79.525Z" transform="translate(-1.871 -3.763)"/><path d="M41.589,80.087c-.028.018.063-.018,0,0Z" transform="translate(-1.968 -3.789)"/><path d="M38.024,81.5c-.026.023.058-.028,0,0Z" transform="translate(-1.799 -3.856)"/><path d="M38.48,80.8c-.267.08-.5.192-.76.3-.193.079-.356.222-.549.3a3.924,3.924,0,0,1-.5.243c-.163.08-.182.121-.351.19-.1.02-.294.122-.284.266.018.093.087.15.155.139a.311.311,0,0,0,.1-.012,1.092,1.092,0,0,0,.346-.131.767.767,0,0,1,.251-.11,4.432,4.432,0,0,1,.589-.28,1.92,1.92,0,0,0,.371-.2l.08-.042c.009-.009.032-.026.087-.065a2.72,2.72,0,0,1,.29-.123,1.086,1.086,0,0,0,.223-.108c.04-.02.054-.07.082-.105.028-.076.028-.089.009-.129C38.595,80.858,38.542,80.78,38.48,80.8Z" transform="translate(-1.705 -3.823)"/><path d="M34.632,83.313c-.023.026.055-.034,0,0Z" transform="translate(-1.639 -3.942)"/><path d="M34.622,83.2a2.721,2.721,0,0,1,.276-.153,1.067,1.067,0,0,0,.211-.131c.038-.024.046-.075.071-.113.02-.078.019-.092-.005-.129-.034-.071-.1-.143-.155-.119-.257.107-.476.243-.724.375-.184.1-.33.258-.514.354a3.924,3.924,0,0,1-.468.292c-.154.1-.168.14-.329.227-.1.033-.284.145-.26.286a.153.153,0,0,0,.168.126.3.3,0,0,0,.1-.019.961.961,0,0,0,.333-.163.773.773,0,0,1,.239-.135,4.457,4.457,0,0,1,.558-.34,1.907,1.907,0,0,0,.349-.234c.04-.028.061-.041.076-.05A1.049,1.049,0,0,1,34.622,83.2Z" transform="translate(-1.548 -3.906)"/><path d="M32.034,84.936a.043.043,0,0,0,.039-.027c.007-.005-.011-.041-.015-.061a.428.428,0,0,0-.055-.1.572.572,0,0,0-.116-.142.38.38,0,0,0-.164.038c-.04.012-.039.082-.08.093s-.028.062-.085.062c-.028.021-.016.048-.051.059-.028-.008-.065.013,0,.127a.544.544,0,0,0,.126.15.1.1,0,0,0,.035.018c.038.012.07.017.079-.01s.028-.02.049-.021a.166.166,0,0,1,.1-.067c.02-.017.054-.015.057-.057a.042.042,0,0,1,.013-.011.093.093,0,0,1,0-.028A.112.112,0,0,1,32.034,84.936Z" transform="translate(-1.489 -4.003)"/><path d="M32,85.007c0,.009.008,0,0,0Z" transform="translate(-1.514 -4.022)"/><path d="M41.772,82.376c-.028.02.06-.022,0,0Z" transform="translate(-1.976 -3.898)"/><path d="M42.07,82.2a1.152,1.152,0,0,0,.233-.074c.042-.013.061-.06.094-.089.038-.069.04-.081.027-.124-.014-.077-.057-.163-.122-.155a5.056,5.056,0,0,0-.8.2c-.2.06-.375.19-.574.255a5.091,5.091,0,0,1-.509.219c-.167.074-.187.116-.357.181-.1.021-.3.112-.295.255.014.093.08.154.148.146a.3.3,0,0,0,.1-.007,1,1,0,0,0,.348-.121.73.73,0,0,1,.253-.1,3.591,3.591,0,0,1,.6-.248,2.078,2.078,0,0,0,.383-.165c.044-.018.067-.028.083-.033s.034-.023.092-.055A2.374,2.374,0,0,1,42.07,82.2Z" transform="translate(-1.882 -3.869)"/><path d="M38.3,84.01c-.024.025.057-.031,0,0Z" transform="translate(-1.812 -3.975)"/><path d="M38.58,83.767a1.136,1.136,0,0,0,.218-.117c.039-.021.05-.071.076-.107.024-.076.024-.089,0-.128-.031-.072-.09-.147-.152-.126a6.386,6.386,0,0,0-.746.337c-.189.091-.339.247-.525.34a4.5,4.5,0,0,1-.472.289c-.154.1-.168.142-.328.229-.1.034-.28.15-.257.293a.15.15,0,0,0,.166.125.3.3,0,0,0,.1-.02.98.98,0,0,0,.329-.167.748.748,0,0,1,.237-.136,3.846,3.846,0,0,1,.56-.333,2.019,2.019,0,0,0,.355-.223l.078-.046a1.022,1.022,0,0,1,.082-.07A2.521,2.521,0,0,1,38.58,83.767Z" transform="translate(-1.722 -3.941)"/><path d="M33.493,87.09a.955.955,0,0,0,.322-.184.78.78,0,0,1,.23-.15,4.527,4.527,0,0,1,.536-.375,1.924,1.924,0,0,0,.334-.255l.073-.054a1.056,1.056,0,0,1,.075-.078,2.726,2.726,0,0,1,.267-.17,1.09,1.09,0,0,0,.2-.144c.036-.026.041-.077.063-.117.014-.079.012-.092-.015-.127-.04-.067-.107-.135-.165-.107-.25.123-.459.272-.7.419-.177.109-.312.277-.489.385a3.872,3.872,0,0,1-.447.32c-.147.106-.159.15-.312.245-.1.039-.273.161-.243.3a.151.151,0,0,0,.173.117A.3.3,0,0,0,33.493,87.09Z" transform="translate(-1.572 -4.037)"/><path d="M35.076,86.106c-.021.028.053-.037,0,0Z" transform="translate(-1.66 -4.074)"/><path d="M32.1,88.276c-.015.024.041-.031,0,0Z" transform="translate(-1.519 -4.177)"/><path d="M31.032,88.516a2.725,2.725,0,0,1-.24.207c-.077.03-.216.132-.17.264.039.085.112.133.167.118a.207.207,0,0,0,.079-.016.618.618,0,0,0,.256-.149.49.49,0,0,1,.18-.124,2.839,2.839,0,0,1,.416-.312,1.208,1.208,0,0,0,.256-.215.71.71,0,0,1,.057-.046.775.775,0,0,1,.055-.068,1.735,1.735,0,0,1,.209-.142.694.694,0,0,0,.157-.12c.028-.022.025-.069.039-.1,0-.072,0-.085-.028-.12-.043-.065-.11-.132-.157-.11a5.335,5.335,0,0,0-.552.343c-.139.09-.235.237-.375.325A2.476,2.476,0,0,1,31.032,88.516Z" transform="translate(-1.449 -4.144)"/><path d="M41.491,84.864a2.033,2.033,0,0,0,.354-.223l.077-.046a1.074,1.074,0,0,1,.082-.07,2.5,2.5,0,0,1,.284-.137,1.127,1.127,0,0,0,.218-.115c.039-.02.05-.07.077-.105.025-.075.025-.088,0-.127-.028-.073-.087-.15-.149-.13a5.8,5.8,0,0,0-.752.334c-.189.091-.341.246-.526.34a4.627,4.627,0,0,1-.471.289c-.154.1-.169.142-.328.227-.1.034-.28.149-.258.292a.149.149,0,0,0,.166.125.291.291,0,0,0,.1-.02.985.985,0,0,0,.33-.166.741.741,0,0,1,.238-.136A3.873,3.873,0,0,1,41.491,84.864Z" transform="translate(-1.898 -3.97)"/><path d="M42.013,84.629c-.024.025.057-.031,0,0Z" transform="translate(-1.988 -4.004)"/><path d="M38.792,86.729c-.021.028.052-.038,0,0Z" transform="translate(-1.835 -4.103)"/><path d="M38.633,86.748l.072-.057a1.013,1.013,0,0,1,.074-.079,2.727,2.727,0,0,1,.262-.175,1.064,1.064,0,0,0,.2-.147c.036-.027.04-.079.062-.119.014-.08.012-.093-.015-.128-.039-.068-.107-.135-.164-.106-.247.127-.454.28-.692.432-.175.113-.308.283-.484.394a3.868,3.868,0,0,1-.443.329c-.146.109-.157.153-.31.252-.095.041-.271.167-.236.306a.153.153,0,0,0,.178.111.3.3,0,0,0,.1-.026.958.958,0,0,0,.318-.189.776.776,0,0,1,.227-.154,4.518,4.518,0,0,1,.528-.384A1.893,1.893,0,0,0,38.633,86.748Z" transform="translate(-1.749 -4.066)"/><path d="M35.743,89.092c-.019.028.05-.041,0,0Z" transform="translate(-1.691 -4.215)"/><path d="M35.981,88.779a1.082,1.082,0,0,0,.191-.159c.034-.028.035-.08.054-.122.008-.08.005-.093-.024-.126-.045-.064-.118-.126-.173-.094-.239.142-.436.307-.663.472-.168.123-.29.3-.458.422a3.878,3.878,0,0,1-.421.354c-.138.117-.147.162-.293.269-.092.046-.259.182-.218.32a.151.151,0,0,0,.182.1.309.309,0,0,0,.093-.032.963.963,0,0,0,.307-.209.771.771,0,0,1,.218-.168,4.5,4.5,0,0,1,.505-.416,1.916,1.916,0,0,0,.312-.281l.068-.06a1.056,1.056,0,0,1,.069-.085A2.748,2.748,0,0,1,35.981,88.779Z" transform="translate(-1.607 -4.177)"/><path d="M33.049,91.289a1.093,1.093,0,0,0,.183-.168c.033-.03.031-.082.048-.124,0-.08,0-.093-.03-.125-.048-.062-.123-.121-.177-.085-.232.153-.421.328-.64.5-.162.131-.275.315-.438.444a3.891,3.891,0,0,1-.4.375c-.133.124-.139.17-.28.283-.09.051-.25.195-.2.331a.152.152,0,0,0,.188.093.3.3,0,0,0,.091-.036.959.959,0,0,0,.3-.223.769.769,0,0,1,.209-.178,4.486,4.486,0,0,1,.483-.44,1.9,1.9,0,0,0,.3-.3c.034-.034.052-.052.065-.063q.03-.045.064-.087A2.745,2.745,0,0,1,33.049,91.289Z" transform="translate(-1.472 -4.295)"/><path d="M32.823,91.618c-.018.03.048-.044,0,0Z" transform="translate(-1.553 -4.335)"/><path d="M30.445,93.8a.283.283,0,0,0,.088-.092c.016-.016,0-.057,0-.085a.176.176,0,0,0-.058-.1c-.053-.057-.126-.117-.156-.1a2.255,2.255,0,0,0-.338.259c-.085.068-.116.186-.2.253-.091.085-.085.139-.2.207-.064.068-.057.1-.129.161a.132.132,0,0,0-.055.21c.057.071.132.113.17.1a.132.132,0,0,0,.059-.01.275.275,0,0,0,.158-.111c.016-.049.065-.068.105-.094a1.183,1.183,0,0,1,.236-.238c.048-.054.114-.091.138-.165q.014-.018.031-.035a.324.324,0,0,1,.023-.054A.739.739,0,0,1,30.445,93.8Z" transform="translate(-1.39 -4.42)"/><path d="M30.345,93.982c0,.019.023-.024,0,0Z" transform="translate(-1.436 -4.447)"/><path d="M43.285,86.393c-.021.028.052-.038,0,0Z" transform="translate(-2.048 -4.087)"/><path d="M43.536,86.105a1.116,1.116,0,0,0,.2-.142c.036-.026.041-.076.063-.115.014-.078.012-.091-.014-.127-.039-.068-.107-.136-.165-.108a6.5,6.5,0,0,0-.7.425c-.176.113-.307.283-.481.4a4.35,4.35,0,0,1-.436.338c-.142.113-.152.158-.3.261-.093.044-.263.177-.227.317a.149.149,0,0,0,.178.108.3.3,0,0,0,.093-.028.972.972,0,0,0,.311-.2.758.758,0,0,1,.222-.161,4.023,4.023,0,0,1,.52-.394,2,2,0,0,0,.327-.263l.072-.057a1.069,1.069,0,0,1,.073-.079A2.484,2.484,0,0,1,43.536,86.105Z" transform="translate(-1.962 -4.051)"/><path d="M40.525,88.5a1.075,1.075,0,0,0,.185-.165c.033-.03.032-.082.05-.124.006-.081,0-.093-.028-.126-.046-.064-.119-.124-.173-.09-.234.149-.426.321-.648.494-.164.128-.28.312-.445.437a3.924,3.924,0,0,1-.41.368c-.135.122-.142.167-.284.279-.091.05-.254.191-.206.327a.153.153,0,0,0,.187.095.3.3,0,0,0,.092-.035.956.956,0,0,0,.3-.218.77.77,0,0,1,.211-.175,4.445,4.445,0,0,1,.49-.431,1.912,1.912,0,0,0,.3-.29c.034-.033.053-.051.066-.062a1.049,1.049,0,0,1,.066-.085A2.732,2.732,0,0,1,40.525,88.5Z" transform="translate(-1.824 -4.163)"/><path d="M40.295,88.823c-.018.028.048-.043,0,0Z" transform="translate(-1.907 -4.202)"/><path d="M37.5,91.472c-.016.031.045-.047,0,0Z" transform="translate(-1.774 -4.328)"/><path d="M37.708,91.121a1.087,1.087,0,0,0,.17-.18c.03-.033.025-.085.039-.127,0-.081,0-.093-.038-.124-.051-.059-.129-.113-.18-.075-.221.17-.4.356-.6.547-.153.142-.253.333-.407.474a3.925,3.925,0,0,1-.378.4c-.124.133-.127.178-.26.3-.085.057-.237.212-.179.343a.153.153,0,0,0,.195.079.3.3,0,0,0,.089-.042.956.956,0,0,0,.28-.243.769.769,0,0,1,.2-.192,4.419,4.419,0,0,1,.452-.471,1.91,1.91,0,0,0,.277-.315c.031-.036.049-.055.061-.067a1.046,1.046,0,0,1,.058-.091A2.774,2.774,0,0,1,37.708,91.121Z" transform="translate(-1.697 -4.287)"/><path d="M34.939,94.349c-.013.032.04-.05,0,0Z" transform="translate(-1.653 -4.464)"/><path d="M35.125,93.976a1.076,1.076,0,0,0,.154-.194c.028-.035.018-.085.028-.13-.007-.081-.013-.093-.048-.12-.057-.055-.139-.1-.186-.06-.206.187-.366.389-.555.6-.14.154-.223.354-.364.507a3.952,3.952,0,0,1-.341.433c-.114.142-.111.188-.233.323-.081.065-.218.232-.148.357a.154.154,0,0,0,.2.06.3.3,0,0,0,.085-.05.958.958,0,0,0,.258-.266.769.769,0,0,1,.179-.208,4.5,4.5,0,0,1,.409-.508,1.913,1.913,0,0,0,.249-.337c.028-.039.043-.059.054-.073s.018-.038.05-.1A2.719,2.719,0,0,1,35.125,93.976Z" transform="translate(-1.581 -4.422)"/><path d="M48.017,81.73c-.022-.008-.043-.014-.065-.024-.047-.021-.092-.014-.111-.069a.622.622,0,0,1,0-.151,2.862,2.862,0,0,0-.063-.5c-.014-.085,0-.165-.016-.248a.88.88,0,0,1-.028-.166.555.555,0,0,0-.032-.24.131.131,0,0,1,.122.014q-.017-.061-.036-.123A5.057,5.057,0,0,0,47,78.659a3.061,3.061,0,0,0-.417-.559,2.264,2.264,0,0,0-.767-.393,2.084,2.084,0,0,0-.86-.057,1.537,1.537,0,0,0-.692.263,1.752,1.752,0,0,0-.395.378,2.758,2.758,0,0,0-.483,1.057,7.413,7.413,0,0,0-.157,2.2,6.933,6.933,0,0,0,.148,1.048,6.9,6.9,0,0,0,.4.676,4.934,4.934,0,0,0,.419,1.01,2.125,2.125,0,0,0,.952.57,1.173,1.173,0,0,0,.521.075c.256-.047.269-.08.26-.131a.161.161,0,0,0-.014-.088.312.312,0,0,0-.246-.154,1.752,1.752,0,0,1-1-.793,6.174,6.174,0,0,1-.6-1.3c-.127-.377-.28-.751-.395-1.15a3.4,3.4,0,0,1-.154-1.242,2.321,2.321,0,0,1,.715-1.536,1.247,1.247,0,0,1,1.309-.149A2.5,2.5,0,0,1,46.6,79.2a3.672,3.672,0,0,1,.675,1.3,6.664,6.664,0,0,1,.252,1.471,3.136,3.136,0,0,1-.241,1.437,1.571,1.571,0,0,1-.883.872,1.7,1.7,0,0,0-.085.2c.032.018.069.032.1.047a1.342,1.342,0,0,0,.244.083l.073.013a2.061,2.061,0,0,0,.72-.689,3.308,3.308,0,0,0,.357-.737,4.015,4.015,0,0,0,.207-1c0-.085,0-.168,0-.251S48.018,81.8,48.017,81.73Z" transform="translate(-2.045 -3.673)"/><path d="M47.929,80.47a.555.555,0,0,1,.032.24.879.879,0,0,0,.028.166c.016.083,0,.165.016.248a2.855,2.855,0,0,1,.063.5.627.627,0,0,0,0,.151c.018.055.064.048.111.069.021.009.043.016.065.024.126.044.26.068.393.128a2.562,2.562,0,0,1,.256.085c.057.032.162.183.235.147.006-.041-.028-.09-.032-.135a.251.251,0,0,0,0-.028,1.023,1.023,0,0,0-.024-.148,1.523,1.523,0,0,1-.006-.186c-.007-.057-.032-.1-.039-.157a3.275,3.275,0,0,1,0-.392v-.142a.523.523,0,0,1,.071-.29c-.187.039-.175.03-.179.009-.185-.065-.378-.108-.568-.159a1.672,1.672,0,0,1-.241-.085.61.61,0,0,1-.055-.028.132.132,0,0,0-.12-.013Z" transform="translate(-2.268 -3.807)"/><path d="M62.45,75.345a15.345,15.345,0,0,0,1.034-1.157c.343-.4.626-.763.9-1.1a.757.757,0,0,0-.04-.222,29.814,29.814,0,0,1-2.167,2.476,5.345,5.345,0,0,1-2.785,1.366s.022-.1.053-.243l-.14.057c-.188.074-.409.076-.606.152s-1.164.53-1.367.591a12.454,12.454,0,0,1-2.069.537.5.5,0,0,0,.114.28,12.226,12.226,0,0,0,2.854-.409,16.827,16.827,0,0,0,2.54-1.164l.387-.2A5.937,5.937,0,0,0,62.45,75.345Z" transform="translate(-2.615 -3.448)"/><path d="M59.83,75.647c-.057.231-.133.567-.183.793-.032.143-.053.243-.053.243a5.345,5.345,0,0,0,2.785-1.366,29.832,29.832,0,0,0,2.167-2.476,3.172,3.172,0,0,0,.176-.264.7.7,0,0,0,.064-.133c.094-.33-.33-.188-1.086.094s-4.107,1.6-4.107,1.6.07.241.137.537A2.781,2.781,0,0,1,59.83,75.647Z" transform="translate(-2.82 -3.419)"/><path d="M24.383,103.431a.246.246,0,0,0,.079,0l.049-.011a.348.348,0,0,0,.059-.029.272.272,0,0,0,.089-.071.452.452,0,0,0,.073-.108.441.441,0,0,0,.018-.289c-.016-.087-.054-.17-.076-.257a.131.131,0,0,0-.016-.045c-.008-.011-.019-.022-.026-.034a.432.432,0,0,1-.043-.069.342.342,0,0,0-.095-.1.269.269,0,0,0-.106-.044.571.571,0,0,0-.057-.013.369.369,0,0,0-.065,0,.516.516,0,0,0-.131.026l-.052.015a.433.433,0,0,0-.06.024.128.128,0,0,0-.04.034.306.306,0,0,0-.023.076c-.01.032-.011.066-.02.1a.356.356,0,0,0-.014.089,1.581,1.581,0,0,0,.013.165c0,.052.01.1.02.157s.007.085.014.126.008.064.016.092a.084.084,0,0,0,.012.019.169.169,0,0,1,.008.023.217.217,0,0,0,.024.038.136.136,0,0,0,.034.029c.009.007.014.016.028.02s.019,0,.028,0a.151.151,0,0,0,.03.01c.011,0,.022,0,.032,0l.059.009c.02,0,.032.01.054.012a.147.147,0,0,0,.028,0A.144.144,0,0,1,24.383,103.431Z" transform="translate(-1.132 -4.843)"/><path d="M31.894,103.078a.221.221,0,0,0,.079,0c.016,0,.033-.009.049-.012a.349.349,0,0,0,.059-.029.267.267,0,0,0,.089-.07.4.4,0,0,0,.092-.4c-.016-.087-.054-.17-.075-.257a.126.126,0,0,0-.016-.045c-.008-.012-.019-.022-.026-.034a.529.529,0,0,1-.043-.069.321.321,0,0,0-.095-.1.256.256,0,0,0-.106-.044.579.579,0,0,0-.057-.013.246.246,0,0,0-.065,0,.515.515,0,0,0-.131.026c-.017.006-.036.009-.052.015a.345.345,0,0,0-.06.024.126.126,0,0,0-.04.034.3.3,0,0,0-.023.076c-.01.032-.011.065-.02.1a.348.348,0,0,0-.014.088,1.648,1.648,0,0,0,.013.166c0,.052.011.1.02.156s.007.086.014.127.008.063.016.091a.1.1,0,0,0,.012.02.113.113,0,0,1,.008.023.222.222,0,0,0,.024.037.136.136,0,0,0,.034.029c.009.008.014.016.028.02s.019,0,.028,0l.03.01.032,0,.059.009c.02,0,.032.01.054.013l.028,0A.165.165,0,0,1,31.894,103.078Z" transform="translate(-1.488 -4.826)"/><path d="M81.121,64.223a.259.259,0,0,0,.089,0c.018,0,.037-.009.055-.014a.411.411,0,0,0,.066-.031.292.292,0,0,0,.1-.079.447.447,0,0,0,.1-.443c-.018-.1-.061-.191-.085-.287a.152.152,0,0,0-.017-.051c-.009-.013-.021-.024-.028-.038a.565.565,0,0,1-.049-.077.359.359,0,0,0-.106-.115.288.288,0,0,0-.118-.049.654.654,0,0,0-.065-.015.355.355,0,0,0-.073,0,.577.577,0,0,0-.147.028c-.019.006-.04.01-.057.017a.405.405,0,0,0-.067.027.144.144,0,0,0-.045.038.369.369,0,0,0-.026.085c-.011.036-.012.073-.023.109a.389.389,0,0,0-.016.1,1.813,1.813,0,0,0,.015.184c0,.057.012.117.022.175s.007.094.015.142.009.071.018.1a.093.093,0,0,0,.013.022.134.134,0,0,1,.009.026.338.338,0,0,0,.027.042.149.149,0,0,0,.039.032c.01.008.016.018.031.023s.021,0,.031,0a.261.261,0,0,0,.033.012.354.354,0,0,0,.036,0l.066.009c.022,0,.036.012.06.015l.031,0A.177.177,0,0,1,81.121,64.223Z" transform="translate(-3.814 -2.982)"/><path d="M86.474,63.285a.274.274,0,0,0,.089,0c.018,0,.037-.009.054-.014a.417.417,0,0,0,.066-.031.291.291,0,0,0,.1-.08.447.447,0,0,0,.1-.442c-.018-.1-.061-.191-.085-.288a.15.15,0,0,0-.017-.05c-.009-.013-.021-.025-.028-.038a.541.541,0,0,1-.048-.077.363.363,0,0,0-.106-.115.287.287,0,0,0-.118-.049.578.578,0,0,0-.065-.015.357.357,0,0,0-.073,0,.577.577,0,0,0-.147.028c-.019.006-.04.01-.057.017a.413.413,0,0,0-.067.027.14.14,0,0,0-.045.038.357.357,0,0,0-.026.085c-.011.036-.012.073-.023.109a.389.389,0,0,0-.016.1,1.806,1.806,0,0,0,.015.184c0,.058.012.117.022.175s.008.094.016.142.009.071.018.1a.1.1,0,0,0,.013.022.133.133,0,0,1,.009.026.271.271,0,0,0,.027.042.148.148,0,0,0,.039.032c.01.008.016.018.031.023a.309.309,0,0,1,.031,0,.264.264,0,0,0,.033.011c.012,0,.024,0,.036,0l.066.009c.023,0,.036.012.06.015l.031,0A.179.179,0,0,1,86.474,63.285Z" transform="translate(-4.068 -2.938)"/><path d="M79.712,65.779c.145,0,.263-.014.421-.006.291.009.592.008.885,0a10.277,10.277,0,0,0,1.127-.1c1.027-.2-.339.053.695-.132.488-.113.979-.222,1.466-.353.557-.155.844-.243,1.129-.337s.57-.188,1.112-.39a9.451,9.451,0,0,0,.925-.345c.408-.18.818-.34,1.213-.522l.295-.135c.205-.1.328-.135.288-.02a3.2,3.2,0,0,1-1.171.7c-.605.252-.718.316-1.332.548-.827.273-1.056.379-1.887.634a17.972,17.972,0,0,1-2.186.555,10.228,10.228,0,0,1-2.953.113c-.232-.035-.284-.12-.25-.169C79.488,65.791,79.506,65.792,79.712,65.779Z" transform="translate(-3.761 -2.999)"/><path d="M75.911,40.907l.057.026A20.637,20.637,0,0,1,78,40.22a4.011,4.011,0,0,1,.44-.15,20,20,0,0,1,2.428-.5c.17-.027.355.028.532,0s1.062-.258,1.241-.287c.844-.143,1.045-.163,1.811-.247a.586.586,0,0,0-.085-.289,18.575,18.575,0,0,0-2.42-.043c-.953.122-1.737.368-2.656.56a20.36,20.36,0,0,0-2.491.9l-1.13.4a.7.7,0,0,0-.059.2Z" transform="translate(-3.578 -1.83)"/><path d="M75.5,36.425l.072.021c1.337-.542,2.464-.831,2.839-.967.207-.068.4-.154.616-.205.139-.034,1.535-.448,3.367-.8.234-.048.49-.014.735-.065s1.463-.387,1.707-.438c1.16-.243,1.436-.283,2.488-.453a.443.443,0,0,0-.119-.281,32.772,32.772,0,0,0-3.33.235c-1.306.236-2.376.58-3.632.882-1.221.3-2.338.827-3.446,1.2l-1.564.534a.8.8,0,0,0-.114.22Z" transform="translate(-3.554 -1.573)"/><path d="M99.863,47.385l-.027-.046c-.657-.005-1.191-.064-1.375-.043a1.746,1.746,0,0,1-.3.024c-.066,0-.735,0-1.593.062-.11.007-.229-.062-.344-.047s-.681.2-.792.223c-.532.125-.657.145-1.138.24a.91.91,0,0,0,.094.283c.507,0,1.051.134,1.509.08.578-.068,1.064-.234,1.64-.251.556-.015,1.1-.2,1.63-.181.277.012.518.038.743.066a.747.747,0,0,0,.087-.162Z" transform="translate(-4.462 -2.238)"/><path d="M99.575,50.085l-.019-.047c-.511-.019-.927-.094-1.072-.078a1.081,1.081,0,0,1-.235.015c-.051,0-.578-.016-1.251.009-.085,0-.179-.071-.269-.061s-.535.162-.621.183a7.259,7.259,0,0,1-.892.145,1.162,1.162,0,0,0,.064.291,6.464,6.464,0,0,0,1.185.191c.454-.04.832-.189,1.281-.187.431,0,.863-.17,1.275-.134a5.651,5.651,0,0,1,.578.083.856.856,0,0,0,.073-.16Z" transform="translate(-4.505 -2.362)"/><path d="M96.493,75.448l.019.025c.359-.062.653-.062.752-.085a.782.782,0,0,1,.161-.031c.036,0,.4-.041.872-.07.061,0,.126.038.19.031s.379-.105.441-.119c.3-.059.369-.068.638-.1a.588.588,0,0,0-.043-.174,5.771,5.771,0,0,0-.847-.1c-.328.031-.6.127-.93.152s-.612.17-.906.2c-.155.016-.29.024-.418.028a.461.461,0,0,0-.031.1Z" transform="translate(-4.561 -3.541)"/><path d="M44.693,81.1a.1.1,0,0,0,.04-.01l.024-.013a.215.215,0,0,0,.028-.025.185.185,0,0,0,.042-.058.385.385,0,0,0,.032-.082.42.42,0,0,0,0-.2c-.012-.059-.035-.113-.049-.172a.1.1,0,0,0-.01-.03c0-.007-.01-.013-.015-.021a.3.3,0,0,1-.025-.044.184.184,0,0,0-.052-.062.1.1,0,0,0-.055-.02l-.03,0a.121.121,0,0,0-.033.006.227.227,0,0,0-.065.031l-.026.016a.2.2,0,0,0-.028.023.091.091,0,0,0-.019.028.345.345,0,0,0-.008.057c0,.024,0,.046-.006.07a.345.345,0,0,0,0,.063c0,.039.009.076.014.113s.01.072.017.107.007.057.013.087.007.043.012.062a.053.053,0,0,0,.007.012.112.112,0,0,1,.005.016.161.161,0,0,0,.014.024.072.072,0,0,0,.019.016c.005,0,.008.01.015.011a.047.047,0,0,0,.014,0s.01,0,.015,0h.046c.011,0,.016,0,.028,0h.014A.061.061,0,0,1,44.693,81.1Z" transform="translate(-2.102 -3.802)"/><path d="M46.3,80.821a.093.093,0,0,0,.041-.006l.025-.01a.188.188,0,0,0,.032-.022.182.182,0,0,0,.048-.053.372.372,0,0,0,.041-.078.418.418,0,0,0,.02-.2c-.005-.06-.022-.117-.028-.176a.1.1,0,0,0-.006-.031c0-.008-.009-.014-.012-.022a.325.325,0,0,1-.02-.046.184.184,0,0,0-.045-.068.1.1,0,0,0-.053-.026l-.028-.007a.124.124,0,0,0-.034,0,.229.229,0,0,0-.068.024c-.009,0-.018.007-.027.012a.2.2,0,0,0-.032.019.086.086,0,0,0-.022.025.287.287,0,0,0-.015.054c-.006.023-.008.046-.014.069a.357.357,0,0,0-.011.062c0,.039,0,.076,0,.113a.905.905,0,0,0,0,.108c0,.028,0,.059,0,.088a.467.467,0,0,0,0,.063.077.077,0,0,0,.005.013.078.078,0,0,1,0,.016.142.142,0,0,0,.011.025.065.065,0,0,0,.016.018s.007.011.013.013.01,0,.014,0,.009,0,.015.006l.016,0,.03,0c.01,0,.016.006.027.007l.014,0A.057.057,0,0,1,46.3,80.821Z" transform="translate(-2.181 -3.789)"/><path d="M44.746,82.162a.092.092,0,0,0-.038.015l-.022.016a.178.178,0,0,0-.025.028.184.184,0,0,0-.034.063.385.385,0,0,0-.022.085.418.418,0,0,0,.028.2c.019.057.049.108.071.164a.124.124,0,0,0,.014.028c.005.007.012.012.017.019a.3.3,0,0,1,.03.04.189.189,0,0,0,.06.055.1.1,0,0,0,.057.013h.03a.122.122,0,0,0,.032-.01A.233.233,0,0,0,45,82.84c.007-.006.016-.012.023-.019a.191.191,0,0,0,.026-.026.087.087,0,0,0,.015-.03.313.313,0,0,0,0-.057c0-.024,0-.047,0-.07a.346.346,0,0,0,0-.063c-.006-.038-.019-.074-.028-.111s-.019-.07-.03-.1-.014-.057-.024-.085-.012-.042-.02-.06l-.008-.011a.084.084,0,0,1-.007-.015.146.146,0,0,0-.016-.022.063.063,0,0,0-.021-.014c-.005,0-.009-.009-.016-.009l-.014,0c-.006,0-.011,0-.016,0l-.016,0-.03,0a.134.134,0,0,0-.028,0l-.014,0A.065.065,0,0,1,44.746,82.162Z" transform="translate(-2.11 -3.887)"/><path d="M45.534,81.189a.1.1,0,0,0-.041.008l-.025.012a.2.2,0,0,0-.03.023.18.18,0,0,0-.045.057.373.373,0,0,0-.037.08.416.416,0,0,0-.01.2c.008.06.028.116.038.175a.1.1,0,0,0,.008.031c0,.008.01.014.013.022a.314.314,0,0,1,.022.045.183.183,0,0,0,.048.065.1.1,0,0,0,.054.024l.028.005a.112.112,0,0,0,.033,0,.233.233,0,0,0,.067-.027l.026-.014a.174.174,0,0,0,.031-.021.091.091,0,0,0,.02-.026.313.313,0,0,0,.012-.055c.005-.023.006-.046.01-.069a.342.342,0,0,0,.007-.062c0-.039,0-.076-.007-.113s-.005-.073-.01-.108,0-.058-.007-.087,0-.044-.008-.063a.053.053,0,0,0-.006-.012.112.112,0,0,1,0-.016.159.159,0,0,0-.012-.025.067.067,0,0,0-.018-.018s-.007-.01-.014-.012a.039.039,0,0,0-.014,0s-.01,0-.015-.005h-.016l-.03,0c-.011,0-.016-.005-.028-.006h-.014A.058.058,0,0,1,45.534,81.189Z" transform="translate(-2.145 -3.842)"/><path d="M46.593,81.869a.093.093,0,0,0-.04.008l-.025.012a.2.2,0,0,0-.03.023.183.183,0,0,0-.045.057.385.385,0,0,0-.037.08.418.418,0,0,0-.01.2c.008.06.028.116.038.175a.11.11,0,0,0,.008.031c0,.008.01.014.013.022a.293.293,0,0,1,.022.045.183.183,0,0,0,.048.065.1.1,0,0,0,.054.023l.028.006a.126.126,0,0,0,.033,0,.235.235,0,0,0,.067-.027c.008,0,.018-.008.026-.014a.179.179,0,0,0,.031-.021.1.1,0,0,0,.021-.026.341.341,0,0,0,.012-.055c0-.023.005-.046.01-.069a.339.339,0,0,0,.008-.063c0-.039,0-.076-.007-.113s-.005-.073-.01-.108,0-.059-.007-.087,0-.044-.008-.063a.058.058,0,0,0-.006-.013.109.109,0,0,1,0-.016.16.16,0,0,0-.012-.025c0-.008-.011-.012-.018-.018s-.007-.01-.014-.012a.033.033,0,0,0-.014,0s-.01,0-.015-.005a.074.074,0,0,0-.016,0l-.03,0c-.01,0-.016-.005-.028-.006h-.014A.057.057,0,0,1,46.593,81.869Z" transform="translate(-2.195 -3.874)"/><path d="M45.091,78.971a.1.1,0,0,0-.041,0l-.026.01a.2.2,0,0,0-.032.02.185.185,0,0,0-.05.052.4.4,0,0,0-.044.077.42.42,0,0,0-.026.2c0,.06.018.117.024.177a.1.1,0,0,0,.005.031c0,.008.008.015.012.023a.326.326,0,0,1,.018.047.184.184,0,0,0,.043.069.1.1,0,0,0,.052.028l.028.008a.122.122,0,0,0,.034,0,.219.219,0,0,0,.069-.022l.028-.012a.188.188,0,0,0,.032-.018.09.09,0,0,0,.022-.025.3.3,0,0,0,.016-.054c.006-.023.009-.046.016-.068a.359.359,0,0,0,.012-.062c0-.039,0-.076,0-.113s0-.072,0-.108v-.088a.427.427,0,0,0,0-.063.046.046,0,0,0-.005-.013.115.115,0,0,1,0-.016.143.143,0,0,0-.01-.025.069.069,0,0,0-.016-.019S45.246,79,45.239,79s-.01,0-.014,0-.009-.005-.015-.007l-.016,0-.028,0c-.01,0-.016-.007-.027-.008l-.014,0A.057.057,0,0,1,45.091,78.971Z" transform="translate(-2.123 -3.737)"/><path d="M45.795,83.209a.093.093,0,0,0-.04.008l-.025.012a.2.2,0,0,0-.03.023.18.18,0,0,0-.046.057.4.4,0,0,0-.037.08.418.418,0,0,0-.01.2c.008.06.028.116.038.175a.121.121,0,0,0,.008.031c0,.008.01.014.014.022a.328.328,0,0,1,.022.045.181.181,0,0,0,.048.065.1.1,0,0,0,.054.023l.028.006a.118.118,0,0,0,.033,0,.231.231,0,0,0,.067-.027c.009,0,.018-.008.026-.014a.171.171,0,0,0,.031-.021A.092.092,0,0,0,46,83.865a.331.331,0,0,0,.012-.055c0-.023.006-.046.01-.069a.363.363,0,0,0,.007-.063c0-.039,0-.076-.007-.113s-.005-.072-.01-.108,0-.059-.007-.087,0-.044-.008-.063a.074.074,0,0,0-.006-.013.1.1,0,0,1,0-.016.15.15,0,0,0-.012-.025c0-.008-.011-.012-.018-.018s-.007-.01-.014-.012a.034.034,0,0,0-.014,0s-.01,0-.015-.005H45.9l-.03,0c-.01,0-.016-.005-.028-.006h-.014A.056.056,0,0,1,45.795,83.209Z" transform="translate(-2.158 -3.937)"/></g></g></svg>